G04 #@! TF.GenerationSoftware,KiCad,Pcbnew,5.1.5-52549c5~84~ubuntu18.04.1*
G04 #@! TF.CreationDate,2020-01-03T01:36:26+01:00*
G04 #@! TF.ProjectId,presen-fsr,70726573-656e-42d6-9673-722e6b696361,0*
G04 #@! TF.SameCoordinates,Original*
G04 #@! TF.FileFunction,Copper,L2,Bot*
G04 #@! TF.FilePolarity,Positive*
%FSLAX46Y46*%
G04 Gerber Fmt 4.6, Leading zero omitted, Abs format (unit mm)*
G04 Created by KiCad (PCBNEW 5.1.5-52549c5~84~ubuntu18.04.1) date 2020-01-03 01:36:26*
%MOMM*%
%LPD*%
G04 APERTURE LIST*
%ADD10C,2.000000*%
%ADD11R,2.000000X2.000000*%
%ADD12C,2.600000*%
%ADD13R,2.600000X2.600000*%
%ADD14O,1.700000X1.700000*%
%ADD15R,1.700000X1.700000*%
%ADD16O,1.500000X2.000000*%
%ADD17O,2.000000X1.500000*%
%ADD18R,2.000000X1.500000*%
%ADD19C,0.800000*%
%ADD20C,0.750000*%
%ADD21C,0.500000*%
%ADD22C,0.254000*%
G04 APERTURE END LIST*
D10*
X75660000Y-155500000D03*
X75660000Y-150420000D03*
X68040000Y-155500000D03*
D11*
X65500000Y-155500000D03*
D10*
X68040000Y-150420000D03*
X65500000Y-150420000D03*
D12*
X61240000Y-115500000D03*
X56160000Y-115500000D03*
X51080000Y-115500000D03*
D13*
X46000000Y-115500000D03*
D12*
X72500000Y-145160000D03*
X72500000Y-140080000D03*
D13*
X72500000Y-135000000D03*
D14*
X46200000Y-155500000D03*
X43660000Y-155500000D03*
X41120000Y-155500000D03*
X38580000Y-155500000D03*
X36040000Y-155500000D03*
D15*
X33500000Y-155500000D03*
D14*
X74580000Y-113960000D03*
D16*
X74580000Y-116500000D03*
D14*
X72040000Y-113960000D03*
D16*
X72040000Y-116500000D03*
D17*
X69500000Y-113960000D03*
D18*
X69500000Y-116500000D03*
D12*
X38080000Y-115500000D03*
D13*
X33000000Y-115500000D03*
D19*
X57250000Y-127000000D03*
X36500000Y-141250000D03*
X36500000Y-143250000D03*
X51000000Y-141250000D03*
X51000000Y-142250000D03*
X51750000Y-141750000D03*
X56000000Y-143500000D03*
X55500000Y-144250000D03*
X36500000Y-142250000D03*
X32562500Y-143437500D03*
X32562500Y-144437500D03*
X32562500Y-145437500D03*
X55000000Y-143500000D03*
X55500000Y-150000000D03*
X58750000Y-123500000D03*
X60500000Y-139750000D03*
X47000000Y-139750000D03*
X65500000Y-141250000D03*
X63500000Y-135500000D03*
D20*
X51000000Y-142250000D02*
X36500000Y-142250000D01*
X36500000Y-141250000D02*
X36500000Y-143250000D01*
X51000000Y-142250000D02*
X51000000Y-141250000D01*
X51250000Y-141250000D02*
X51750000Y-141750000D01*
X51000000Y-141250000D02*
X51250000Y-141250000D01*
X51250000Y-142250000D02*
X51750000Y-141750000D01*
X51000000Y-142250000D02*
X51250000Y-142250000D01*
X55000000Y-143500000D02*
X56000000Y-143500000D01*
X56000000Y-143750000D02*
X55500000Y-144250000D01*
X56000000Y-143500000D02*
X56000000Y-143750000D01*
X55000000Y-143750000D02*
X55500000Y-144250000D01*
X55000000Y-143500000D02*
X55000000Y-143750000D01*
X32562500Y-143437500D02*
X32562500Y-145437500D01*
X55500000Y-144250000D02*
X55500000Y-150000000D01*
X54312500Y-145437500D02*
X55500000Y-144250000D01*
X32562500Y-145437500D02*
X54312500Y-145437500D01*
X57250000Y-127000000D02*
X57250000Y-125000000D01*
X57250000Y-125000000D02*
X58750000Y-123500000D01*
D21*
X60500000Y-139750000D02*
X47000000Y-139750000D01*
X65500000Y-141250000D02*
X65500000Y-137500000D01*
X65500000Y-137500000D02*
X63500000Y-135500000D01*
D22*
G36*
X78340000Y-158340000D02*
G01*
X29660000Y-158340000D01*
X29660000Y-156350000D01*
X32011928Y-156350000D01*
X32024188Y-156474482D01*
X32060498Y-156594180D01*
X32119463Y-156704494D01*
X32198815Y-156801185D01*
X32295506Y-156880537D01*
X32405820Y-156939502D01*
X32525518Y-156975812D01*
X32650000Y-156988072D01*
X33214250Y-156985000D01*
X33373000Y-156826250D01*
X33373000Y-155627000D01*
X32173750Y-155627000D01*
X32015000Y-155785750D01*
X32011928Y-156350000D01*
X29660000Y-156350000D01*
X29660000Y-154650000D01*
X32011928Y-154650000D01*
X32015000Y-155214250D01*
X32173750Y-155373000D01*
X33373000Y-155373000D01*
X33373000Y-154173750D01*
X33627000Y-154173750D01*
X33627000Y-155373000D01*
X33647000Y-155373000D01*
X33647000Y-155627000D01*
X33627000Y-155627000D01*
X33627000Y-156826250D01*
X33785750Y-156985000D01*
X34350000Y-156988072D01*
X34474482Y-156975812D01*
X34594180Y-156939502D01*
X34704494Y-156880537D01*
X34801185Y-156801185D01*
X34880537Y-156704494D01*
X34939502Y-156594180D01*
X34961513Y-156521620D01*
X35093368Y-156653475D01*
X35336589Y-156815990D01*
X35606842Y-156927932D01*
X35893740Y-156985000D01*
X36186260Y-156985000D01*
X36473158Y-156927932D01*
X36743411Y-156815990D01*
X36986632Y-156653475D01*
X37193475Y-156446632D01*
X37310000Y-156272240D01*
X37426525Y-156446632D01*
X37633368Y-156653475D01*
X37876589Y-156815990D01*
X38146842Y-156927932D01*
X38433740Y-156985000D01*
X38726260Y-156985000D01*
X39013158Y-156927932D01*
X39283411Y-156815990D01*
X39526632Y-156653475D01*
X39733475Y-156446632D01*
X39850000Y-156272240D01*
X39966525Y-156446632D01*
X40173368Y-156653475D01*
X40416589Y-156815990D01*
X40686842Y-156927932D01*
X40973740Y-156985000D01*
X41266260Y-156985000D01*
X41553158Y-156927932D01*
X41823411Y-156815990D01*
X42066632Y-156653475D01*
X42273475Y-156446632D01*
X42390000Y-156272240D01*
X42506525Y-156446632D01*
X42713368Y-156653475D01*
X42956589Y-156815990D01*
X43226842Y-156927932D01*
X43513740Y-156985000D01*
X43806260Y-156985000D01*
X44093158Y-156927932D01*
X44363411Y-156815990D01*
X44606632Y-156653475D01*
X44813475Y-156446632D01*
X44930000Y-156272240D01*
X45046525Y-156446632D01*
X45253368Y-156653475D01*
X45496589Y-156815990D01*
X45766842Y-156927932D01*
X46053740Y-156985000D01*
X46346260Y-156985000D01*
X46633158Y-156927932D01*
X46903411Y-156815990D01*
X47146632Y-156653475D01*
X47353475Y-156446632D01*
X47515990Y-156203411D01*
X47627932Y-155933158D01*
X47685000Y-155646260D01*
X47685000Y-155353740D01*
X47627932Y-155066842D01*
X47515990Y-154796589D01*
X47353475Y-154553368D01*
X47300107Y-154500000D01*
X63861928Y-154500000D01*
X63861928Y-156500000D01*
X63874188Y-156624482D01*
X63910498Y-156744180D01*
X63969463Y-156854494D01*
X64048815Y-156951185D01*
X64145506Y-157030537D01*
X64255820Y-157089502D01*
X64375518Y-157125812D01*
X64500000Y-157138072D01*
X66500000Y-157138072D01*
X66624482Y-157125812D01*
X66744180Y-157089502D01*
X66854494Y-157030537D01*
X66951185Y-156951185D01*
X67030537Y-156854494D01*
X67055191Y-156808370D01*
X67265537Y-156948918D01*
X67563088Y-157072168D01*
X67878967Y-157135000D01*
X68201033Y-157135000D01*
X68516912Y-157072168D01*
X68814463Y-156948918D01*
X69082252Y-156769987D01*
X69309987Y-156542252D01*
X69488918Y-156274463D01*
X69612168Y-155976912D01*
X69675000Y-155661033D01*
X69675000Y-155338967D01*
X74025000Y-155338967D01*
X74025000Y-155661033D01*
X74087832Y-155976912D01*
X74211082Y-156274463D01*
X74390013Y-156542252D01*
X74617748Y-156769987D01*
X74885537Y-156948918D01*
X75183088Y-157072168D01*
X75498967Y-157135000D01*
X75821033Y-157135000D01*
X76136912Y-157072168D01*
X76434463Y-156948918D01*
X76702252Y-156769987D01*
X76929987Y-156542252D01*
X77108918Y-156274463D01*
X77232168Y-155976912D01*
X77295000Y-155661033D01*
X77295000Y-155338967D01*
X77232168Y-155023088D01*
X77108918Y-154725537D01*
X76929987Y-154457748D01*
X76702252Y-154230013D01*
X76434463Y-154051082D01*
X76136912Y-153927832D01*
X75821033Y-153865000D01*
X75498967Y-153865000D01*
X75183088Y-153927832D01*
X74885537Y-154051082D01*
X74617748Y-154230013D01*
X74390013Y-154457748D01*
X74211082Y-154725537D01*
X74087832Y-155023088D01*
X74025000Y-155338967D01*
X69675000Y-155338967D01*
X69612168Y-155023088D01*
X69488918Y-154725537D01*
X69309987Y-154457748D01*
X69082252Y-154230013D01*
X68814463Y-154051082D01*
X68516912Y-153927832D01*
X68201033Y-153865000D01*
X67878967Y-153865000D01*
X67563088Y-153927832D01*
X67265537Y-154051082D01*
X67055191Y-154191630D01*
X67030537Y-154145506D01*
X66951185Y-154048815D01*
X66854494Y-153969463D01*
X66744180Y-153910498D01*
X66624482Y-153874188D01*
X66500000Y-153861928D01*
X64500000Y-153861928D01*
X64375518Y-153874188D01*
X64255820Y-153910498D01*
X64145506Y-153969463D01*
X64048815Y-154048815D01*
X63969463Y-154145506D01*
X63910498Y-154255820D01*
X63874188Y-154375518D01*
X63861928Y-154500000D01*
X47300107Y-154500000D01*
X47146632Y-154346525D01*
X46903411Y-154184010D01*
X46633158Y-154072068D01*
X46346260Y-154015000D01*
X46053740Y-154015000D01*
X45766842Y-154072068D01*
X45496589Y-154184010D01*
X45253368Y-154346525D01*
X45046525Y-154553368D01*
X44930000Y-154727760D01*
X44813475Y-154553368D01*
X44606632Y-154346525D01*
X44363411Y-154184010D01*
X44093158Y-154072068D01*
X43806260Y-154015000D01*
X43513740Y-154015000D01*
X43226842Y-154072068D01*
X42956589Y-154184010D01*
X42713368Y-154346525D01*
X42506525Y-154553368D01*
X42390000Y-154727760D01*
X42273475Y-154553368D01*
X42066632Y-154346525D01*
X41823411Y-154184010D01*
X41553158Y-154072068D01*
X41266260Y-154015000D01*
X40973740Y-154015000D01*
X40686842Y-154072068D01*
X40416589Y-154184010D01*
X40173368Y-154346525D01*
X39966525Y-154553368D01*
X39850000Y-154727760D01*
X39733475Y-154553368D01*
X39526632Y-154346525D01*
X39283411Y-154184010D01*
X39013158Y-154072068D01*
X38726260Y-154015000D01*
X38433740Y-154015000D01*
X38146842Y-154072068D01*
X37876589Y-154184010D01*
X37633368Y-154346525D01*
X37426525Y-154553368D01*
X37310000Y-154727760D01*
X37193475Y-154553368D01*
X36986632Y-154346525D01*
X36743411Y-154184010D01*
X36473158Y-154072068D01*
X36186260Y-154015000D01*
X35893740Y-154015000D01*
X35606842Y-154072068D01*
X35336589Y-154184010D01*
X35093368Y-154346525D01*
X34961513Y-154478380D01*
X34939502Y-154405820D01*
X34880537Y-154295506D01*
X34801185Y-154198815D01*
X34704494Y-154119463D01*
X34594180Y-154060498D01*
X34474482Y-154024188D01*
X34350000Y-154011928D01*
X33785750Y-154015000D01*
X33627000Y-154173750D01*
X33373000Y-154173750D01*
X33214250Y-154015000D01*
X32650000Y-154011928D01*
X32525518Y-154024188D01*
X32405820Y-154060498D01*
X32295506Y-154119463D01*
X32198815Y-154198815D01*
X32119463Y-154295506D01*
X32060498Y-154405820D01*
X32024188Y-154525518D01*
X32011928Y-154650000D01*
X29660000Y-154650000D01*
X29660000Y-143335561D01*
X31527500Y-143335561D01*
X31527500Y-143539439D01*
X31552500Y-143665124D01*
X31552500Y-144209875D01*
X31527500Y-144335561D01*
X31527500Y-144539439D01*
X31552501Y-144665127D01*
X31552501Y-145209872D01*
X31527500Y-145335561D01*
X31527500Y-145539439D01*
X31567274Y-145739398D01*
X31645295Y-145927756D01*
X31758563Y-146097274D01*
X31902726Y-146241437D01*
X32072244Y-146354705D01*
X32260602Y-146432726D01*
X32460561Y-146472500D01*
X32664439Y-146472500D01*
X32790123Y-146447500D01*
X54262892Y-146447500D01*
X54312500Y-146452386D01*
X54490000Y-146434903D01*
X54490001Y-149772372D01*
X54465000Y-149898061D01*
X54465000Y-150101939D01*
X54504774Y-150301898D01*
X54582795Y-150490256D01*
X54696063Y-150659774D01*
X54840226Y-150803937D01*
X55009744Y-150917205D01*
X55198102Y-150995226D01*
X55398061Y-151035000D01*
X55601939Y-151035000D01*
X55801898Y-150995226D01*
X55990256Y-150917205D01*
X56159774Y-150803937D01*
X56303937Y-150659774D01*
X56417205Y-150490256D01*
X56495226Y-150301898D01*
X56503765Y-150258967D01*
X63865000Y-150258967D01*
X63865000Y-150581033D01*
X63927832Y-150896912D01*
X64051082Y-151194463D01*
X64230013Y-151462252D01*
X64457748Y-151689987D01*
X64725537Y-151868918D01*
X65023088Y-151992168D01*
X65338967Y-152055000D01*
X65661033Y-152055000D01*
X65976912Y-151992168D01*
X66274463Y-151868918D01*
X66542252Y-151689987D01*
X66769987Y-151462252D01*
X66770000Y-151462233D01*
X66770013Y-151462252D01*
X66997748Y-151689987D01*
X67265537Y-151868918D01*
X67563088Y-151992168D01*
X67878967Y-152055000D01*
X68201033Y-152055000D01*
X68516912Y-151992168D01*
X68814463Y-151868918D01*
X69082252Y-151689987D01*
X69309987Y-151462252D01*
X69488918Y-151194463D01*
X69612168Y-150896912D01*
X69675000Y-150581033D01*
X69675000Y-150258967D01*
X74025000Y-150258967D01*
X74025000Y-150581033D01*
X74087832Y-150896912D01*
X74211082Y-151194463D01*
X74390013Y-151462252D01*
X74617748Y-151689987D01*
X74885537Y-151868918D01*
X75183088Y-151992168D01*
X75498967Y-152055000D01*
X75821033Y-152055000D01*
X76136912Y-151992168D01*
X76434463Y-151868918D01*
X76702252Y-151689987D01*
X76929987Y-151462252D01*
X77108918Y-151194463D01*
X77232168Y-150896912D01*
X77295000Y-150581033D01*
X77295000Y-150258967D01*
X77232168Y-149943088D01*
X77108918Y-149645537D01*
X76929987Y-149377748D01*
X76702252Y-149150013D01*
X76434463Y-148971082D01*
X76136912Y-148847832D01*
X75821033Y-148785000D01*
X75498967Y-148785000D01*
X75183088Y-148847832D01*
X74885537Y-148971082D01*
X74617748Y-149150013D01*
X74390013Y-149377748D01*
X74211082Y-149645537D01*
X74087832Y-149943088D01*
X74025000Y-150258967D01*
X69675000Y-150258967D01*
X69612168Y-149943088D01*
X69488918Y-149645537D01*
X69309987Y-149377748D01*
X69082252Y-149150013D01*
X68814463Y-148971082D01*
X68516912Y-148847832D01*
X68201033Y-148785000D01*
X67878967Y-148785000D01*
X67563088Y-148847832D01*
X67265537Y-148971082D01*
X66997748Y-149150013D01*
X66770013Y-149377748D01*
X66770000Y-149377767D01*
X66769987Y-149377748D01*
X66542252Y-149150013D01*
X66274463Y-148971082D01*
X65976912Y-148847832D01*
X65661033Y-148785000D01*
X65338967Y-148785000D01*
X65023088Y-148847832D01*
X64725537Y-148971082D01*
X64457748Y-149150013D01*
X64230013Y-149377748D01*
X64051082Y-149645537D01*
X63927832Y-149943088D01*
X63865000Y-150258967D01*
X56503765Y-150258967D01*
X56535000Y-150101939D01*
X56535000Y-149898061D01*
X56510000Y-149772377D01*
X56510000Y-144969419D01*
X70565000Y-144969419D01*
X70565000Y-145350581D01*
X70639361Y-145724419D01*
X70785225Y-146076566D01*
X70996987Y-146393491D01*
X71266509Y-146663013D01*
X71583434Y-146874775D01*
X71935581Y-147020639D01*
X72309419Y-147095000D01*
X72690581Y-147095000D01*
X73064419Y-147020639D01*
X73416566Y-146874775D01*
X73733491Y-146663013D01*
X74003013Y-146393491D01*
X74214775Y-146076566D01*
X74360639Y-145724419D01*
X74435000Y-145350581D01*
X74435000Y-144969419D01*
X74360639Y-144595581D01*
X74214775Y-144243434D01*
X74003013Y-143926509D01*
X73733491Y-143656987D01*
X73416566Y-143445225D01*
X73064419Y-143299361D01*
X72690581Y-143225000D01*
X72309419Y-143225000D01*
X71935581Y-143299361D01*
X71583434Y-143445225D01*
X71266509Y-143656987D01*
X70996987Y-143926509D01*
X70785225Y-144243434D01*
X70639361Y-144595581D01*
X70565000Y-144969419D01*
X56510000Y-144969419D01*
X56510000Y-144668355D01*
X56679094Y-144499261D01*
X56717633Y-144467633D01*
X56843847Y-144313840D01*
X56937632Y-144138380D01*
X56950101Y-144097274D01*
X56995385Y-143947995D01*
X57014886Y-143750000D01*
X57011794Y-143718605D01*
X57035000Y-143601939D01*
X57035000Y-143398061D01*
X56995226Y-143198102D01*
X56917205Y-143009744D01*
X56803937Y-142840226D01*
X56659774Y-142696063D01*
X56490256Y-142582795D01*
X56301898Y-142504774D01*
X56101939Y-142465000D01*
X55898061Y-142465000D01*
X55772377Y-142490000D01*
X55227623Y-142490000D01*
X55101939Y-142465000D01*
X54898061Y-142465000D01*
X54698102Y-142504774D01*
X54509744Y-142582795D01*
X54340226Y-142696063D01*
X54196063Y-142840226D01*
X54082795Y-143009744D01*
X54004774Y-143198102D01*
X53965000Y-143398061D01*
X53965000Y-143601939D01*
X53988206Y-143718605D01*
X53985114Y-143750000D01*
X53990000Y-143799607D01*
X53990000Y-143799608D01*
X54004615Y-143947994D01*
X54062368Y-144138380D01*
X54104479Y-144217165D01*
X53894145Y-144427500D01*
X33597500Y-144427500D01*
X33597500Y-144335561D01*
X33572500Y-144209877D01*
X33572500Y-143665123D01*
X33597500Y-143539439D01*
X33597500Y-143335561D01*
X33557726Y-143135602D01*
X33479705Y-142947244D01*
X33366437Y-142777726D01*
X33222274Y-142633563D01*
X33052756Y-142520295D01*
X32864398Y-142442274D01*
X32664439Y-142402500D01*
X32460561Y-142402500D01*
X32260602Y-142442274D01*
X32072244Y-142520295D01*
X31902726Y-142633563D01*
X31758563Y-142777726D01*
X31645295Y-142947244D01*
X31567274Y-143135602D01*
X31527500Y-143335561D01*
X29660000Y-143335561D01*
X29660000Y-139648061D01*
X45965000Y-139648061D01*
X45965000Y-139851939D01*
X46004774Y-140051898D01*
X46082795Y-140240256D01*
X46196063Y-140409774D01*
X46340226Y-140553937D01*
X46509744Y-140667205D01*
X46698102Y-140745226D01*
X46898061Y-140785000D01*
X47101939Y-140785000D01*
X47301898Y-140745226D01*
X47490256Y-140667205D01*
X47538454Y-140635000D01*
X59961546Y-140635000D01*
X60009744Y-140667205D01*
X60198102Y-140745226D01*
X60398061Y-140785000D01*
X60601939Y-140785000D01*
X60801898Y-140745226D01*
X60990256Y-140667205D01*
X61159774Y-140553937D01*
X61303937Y-140409774D01*
X61417205Y-140240256D01*
X61495226Y-140051898D01*
X61535000Y-139851939D01*
X61535000Y-139648061D01*
X61495226Y-139448102D01*
X61417205Y-139259744D01*
X61303937Y-139090226D01*
X61159774Y-138946063D01*
X60990256Y-138832795D01*
X60801898Y-138754774D01*
X60601939Y-138715000D01*
X60398061Y-138715000D01*
X60198102Y-138754774D01*
X60009744Y-138832795D01*
X59961546Y-138865000D01*
X47538454Y-138865000D01*
X47490256Y-138832795D01*
X47301898Y-138754774D01*
X47101939Y-138715000D01*
X46898061Y-138715000D01*
X46698102Y-138754774D01*
X46509744Y-138832795D01*
X46340226Y-138946063D01*
X46196063Y-139090226D01*
X46082795Y-139259744D01*
X46004774Y-139448102D01*
X45965000Y-139648061D01*
X29660000Y-139648061D01*
X29660000Y-135398061D01*
X62465000Y-135398061D01*
X62465000Y-135601939D01*
X62504774Y-135801898D01*
X62582795Y-135990256D01*
X62696063Y-136159774D01*
X62840226Y-136303937D01*
X63009744Y-136417205D01*
X63198102Y-136495226D01*
X63254957Y-136506535D01*
X64615001Y-137866580D01*
X64615000Y-140711545D01*
X64582795Y-140759744D01*
X64504774Y-140948102D01*
X64465000Y-141148061D01*
X64465000Y-141351939D01*
X64504774Y-141551898D01*
X64582795Y-141740256D01*
X64696063Y-141909774D01*
X64840226Y-142053937D01*
X65009744Y-142167205D01*
X65198102Y-142245226D01*
X65398061Y-142285000D01*
X65601939Y-142285000D01*
X65801898Y-142245226D01*
X65990256Y-142167205D01*
X66159774Y-142053937D01*
X66303937Y-141909774D01*
X66417205Y-141740256D01*
X66495226Y-141551898D01*
X66535000Y-141351939D01*
X66535000Y-141148061D01*
X66495226Y-140948102D01*
X66417205Y-140759744D01*
X66385000Y-140711546D01*
X66385000Y-139889419D01*
X70565000Y-139889419D01*
X70565000Y-140270581D01*
X70639361Y-140644419D01*
X70785225Y-140996566D01*
X70996987Y-141313491D01*
X71266509Y-141583013D01*
X71583434Y-141794775D01*
X71935581Y-141940639D01*
X72309419Y-142015000D01*
X72690581Y-142015000D01*
X73064419Y-141940639D01*
X73416566Y-141794775D01*
X73733491Y-141583013D01*
X74003013Y-141313491D01*
X74214775Y-140996566D01*
X74360639Y-140644419D01*
X74435000Y-140270581D01*
X74435000Y-139889419D01*
X74360639Y-139515581D01*
X74214775Y-139163434D01*
X74003013Y-138846509D01*
X73733491Y-138576987D01*
X73416566Y-138365225D01*
X73064419Y-138219361D01*
X72690581Y-138145000D01*
X72309419Y-138145000D01*
X71935581Y-138219361D01*
X71583434Y-138365225D01*
X71266509Y-138576987D01*
X70996987Y-138846509D01*
X70785225Y-139163434D01*
X70639361Y-139515581D01*
X70565000Y-139889419D01*
X66385000Y-139889419D01*
X66385000Y-137543465D01*
X66389281Y-137499999D01*
X66385000Y-137456533D01*
X66385000Y-137456523D01*
X66372195Y-137326510D01*
X66321589Y-137159687D01*
X66239411Y-137005941D01*
X66183712Y-136938072D01*
X66156532Y-136904953D01*
X66156530Y-136904951D01*
X66128817Y-136871183D01*
X66095049Y-136843470D01*
X64506535Y-135254957D01*
X64495226Y-135198102D01*
X64417205Y-135009744D01*
X64303937Y-134840226D01*
X64159774Y-134696063D01*
X63990256Y-134582795D01*
X63801898Y-134504774D01*
X63601939Y-134465000D01*
X63398061Y-134465000D01*
X63198102Y-134504774D01*
X63009744Y-134582795D01*
X62840226Y-134696063D01*
X62696063Y-134840226D01*
X62582795Y-135009744D01*
X62504774Y-135198102D01*
X62465000Y-135398061D01*
X29660000Y-135398061D01*
X29660000Y-133700000D01*
X70561928Y-133700000D01*
X70561928Y-136300000D01*
X70574188Y-136424482D01*
X70610498Y-136544180D01*
X70669463Y-136654494D01*
X70748815Y-136751185D01*
X70845506Y-136830537D01*
X70955820Y-136889502D01*
X71075518Y-136925812D01*
X71200000Y-136938072D01*
X73800000Y-136938072D01*
X73924482Y-136925812D01*
X74044180Y-136889502D01*
X74154494Y-136830537D01*
X74251185Y-136751185D01*
X74330537Y-136654494D01*
X74389502Y-136544180D01*
X74425812Y-136424482D01*
X74438072Y-136300000D01*
X74438072Y-133700000D01*
X74425812Y-133575518D01*
X74389502Y-133455820D01*
X74330537Y-133345506D01*
X74251185Y-133248815D01*
X74154494Y-133169463D01*
X74044180Y-133110498D01*
X73924482Y-133074188D01*
X73800000Y-133061928D01*
X71200000Y-133061928D01*
X71075518Y-133074188D01*
X70955820Y-133110498D01*
X70845506Y-133169463D01*
X70748815Y-133248815D01*
X70669463Y-133345506D01*
X70610498Y-133455820D01*
X70574188Y-133575518D01*
X70561928Y-133700000D01*
X29660000Y-133700000D01*
X29660000Y-126898061D01*
X56215000Y-126898061D01*
X56215000Y-127101939D01*
X56254774Y-127301898D01*
X56332795Y-127490256D01*
X56446063Y-127659774D01*
X56590226Y-127803937D01*
X56759744Y-127917205D01*
X56948102Y-127995226D01*
X57148061Y-128035000D01*
X57351939Y-128035000D01*
X57551898Y-127995226D01*
X57740256Y-127917205D01*
X57909774Y-127803937D01*
X58053937Y-127659774D01*
X58167205Y-127490256D01*
X58245226Y-127301898D01*
X58285000Y-127101939D01*
X58285000Y-126898061D01*
X58260000Y-126772377D01*
X58260000Y-125418355D01*
X59303223Y-124375132D01*
X59409774Y-124303937D01*
X59553937Y-124159774D01*
X59667205Y-123990256D01*
X59745226Y-123801898D01*
X59785000Y-123601939D01*
X59785000Y-123398061D01*
X59745226Y-123198102D01*
X59667205Y-123009744D01*
X59553937Y-122840226D01*
X59409774Y-122696063D01*
X59240256Y-122582795D01*
X59051898Y-122504774D01*
X58851939Y-122465000D01*
X58648061Y-122465000D01*
X58448102Y-122504774D01*
X58259744Y-122582795D01*
X58090226Y-122696063D01*
X57946063Y-122840226D01*
X57874868Y-122946777D01*
X56570901Y-124250744D01*
X56532368Y-124282367D01*
X56500745Y-124320900D01*
X56500744Y-124320901D01*
X56406154Y-124436160D01*
X56312368Y-124611621D01*
X56254615Y-124802006D01*
X56235114Y-125000000D01*
X56240001Y-125049617D01*
X56240000Y-126772376D01*
X56215000Y-126898061D01*
X29660000Y-126898061D01*
X29660000Y-116800000D01*
X31061928Y-116800000D01*
X31074188Y-116924482D01*
X31110498Y-117044180D01*
X31169463Y-117154494D01*
X31248815Y-117251185D01*
X31345506Y-117330537D01*
X31455820Y-117389502D01*
X31575518Y-117425812D01*
X31700000Y-117438072D01*
X32714250Y-117435000D01*
X32873000Y-117276250D01*
X32873000Y-115627000D01*
X33127000Y-115627000D01*
X33127000Y-117276250D01*
X33285750Y-117435000D01*
X34300000Y-117438072D01*
X34424482Y-117425812D01*
X34544180Y-117389502D01*
X34654494Y-117330537D01*
X34751185Y-117251185D01*
X34830537Y-117154494D01*
X34889502Y-117044180D01*
X34925812Y-116924482D01*
X34938072Y-116800000D01*
X34935000Y-115785750D01*
X34776250Y-115627000D01*
X33127000Y-115627000D01*
X32873000Y-115627000D01*
X31223750Y-115627000D01*
X31065000Y-115785750D01*
X31061928Y-116800000D01*
X29660000Y-116800000D01*
X29660000Y-114200000D01*
X31061928Y-114200000D01*
X31065000Y-115214250D01*
X31223750Y-115373000D01*
X32873000Y-115373000D01*
X32873000Y-113723750D01*
X33127000Y-113723750D01*
X33127000Y-115373000D01*
X34776250Y-115373000D01*
X34839831Y-115309419D01*
X36145000Y-115309419D01*
X36145000Y-115690581D01*
X36219361Y-116064419D01*
X36365225Y-116416566D01*
X36576987Y-116733491D01*
X36846509Y-117003013D01*
X37163434Y-117214775D01*
X37515581Y-117360639D01*
X37889419Y-117435000D01*
X38270581Y-117435000D01*
X38644419Y-117360639D01*
X38996566Y-117214775D01*
X39313491Y-117003013D01*
X39516504Y-116800000D01*
X44061928Y-116800000D01*
X44074188Y-116924482D01*
X44110498Y-117044180D01*
X44169463Y-117154494D01*
X44248815Y-117251185D01*
X44345506Y-117330537D01*
X44455820Y-117389502D01*
X44575518Y-117425812D01*
X44700000Y-117438072D01*
X45714250Y-117435000D01*
X45873000Y-117276250D01*
X45873000Y-115627000D01*
X46127000Y-115627000D01*
X46127000Y-117276250D01*
X46285750Y-117435000D01*
X47300000Y-117438072D01*
X47424482Y-117425812D01*
X47544180Y-117389502D01*
X47654494Y-117330537D01*
X47751185Y-117251185D01*
X47830537Y-117154494D01*
X47889502Y-117044180D01*
X47925812Y-116924482D01*
X47938072Y-116800000D01*
X47935000Y-115785750D01*
X47776250Y-115627000D01*
X46127000Y-115627000D01*
X45873000Y-115627000D01*
X44223750Y-115627000D01*
X44065000Y-115785750D01*
X44061928Y-116800000D01*
X39516504Y-116800000D01*
X39583013Y-116733491D01*
X39794775Y-116416566D01*
X39940639Y-116064419D01*
X40015000Y-115690581D01*
X40015000Y-115309419D01*
X39940639Y-114935581D01*
X39794775Y-114583434D01*
X39583013Y-114266509D01*
X39516504Y-114200000D01*
X44061928Y-114200000D01*
X44065000Y-115214250D01*
X44223750Y-115373000D01*
X45873000Y-115373000D01*
X45873000Y-113723750D01*
X46127000Y-113723750D01*
X46127000Y-115373000D01*
X47776250Y-115373000D01*
X47839831Y-115309419D01*
X49145000Y-115309419D01*
X49145000Y-115690581D01*
X49219361Y-116064419D01*
X49365225Y-116416566D01*
X49576987Y-116733491D01*
X49846509Y-117003013D01*
X50163434Y-117214775D01*
X50515581Y-117360639D01*
X50889419Y-117435000D01*
X51270581Y-117435000D01*
X51644419Y-117360639D01*
X51996566Y-117214775D01*
X52313491Y-117003013D01*
X52467280Y-116849224D01*
X54990381Y-116849224D01*
X55122317Y-117144312D01*
X55463045Y-117315159D01*
X55830557Y-117416250D01*
X56210729Y-117443701D01*
X56588951Y-117396457D01*
X56950690Y-117276333D01*
X57197683Y-117144312D01*
X57329619Y-116849224D01*
X56160000Y-115679605D01*
X54990381Y-116849224D01*
X52467280Y-116849224D01*
X52583013Y-116733491D01*
X52794775Y-116416566D01*
X52940639Y-116064419D01*
X53015000Y-115690581D01*
X53015000Y-115550729D01*
X54216299Y-115550729D01*
X54263543Y-115928951D01*
X54383667Y-116290690D01*
X54515688Y-116537683D01*
X54810776Y-116669619D01*
X55980395Y-115500000D01*
X56339605Y-115500000D01*
X57509224Y-116669619D01*
X57804312Y-116537683D01*
X57975159Y-116196955D01*
X58076250Y-115829443D01*
X58103701Y-115449271D01*
X58086232Y-115309419D01*
X59305000Y-115309419D01*
X59305000Y-115690581D01*
X59379361Y-116064419D01*
X59525225Y-116416566D01*
X59736987Y-116733491D01*
X60006509Y-117003013D01*
X60323434Y-117214775D01*
X60675581Y-117360639D01*
X61049419Y-117435000D01*
X61430581Y-117435000D01*
X61804419Y-117360639D01*
X62156566Y-117214775D01*
X62473491Y-117003013D01*
X62743013Y-116733491D01*
X62954775Y-116416566D01*
X63100639Y-116064419D01*
X63175000Y-115690581D01*
X63175000Y-115309419D01*
X63100639Y-114935581D01*
X62954775Y-114583434D01*
X62743013Y-114266509D01*
X62473491Y-113996987D01*
X62418136Y-113960000D01*
X67858299Y-113960000D01*
X67885040Y-114231507D01*
X67964236Y-114492581D01*
X68092843Y-114733188D01*
X68265919Y-114944081D01*
X68473608Y-115114527D01*
X68375518Y-115124188D01*
X68255820Y-115160498D01*
X68145506Y-115219463D01*
X68048815Y-115298815D01*
X67969463Y-115395506D01*
X67910498Y-115505820D01*
X67874188Y-115625518D01*
X67861928Y-115750000D01*
X67861928Y-117250000D01*
X67874188Y-117374482D01*
X67910498Y-117494180D01*
X67969463Y-117604494D01*
X68048815Y-117701185D01*
X68145506Y-117780537D01*
X68255820Y-117839502D01*
X68375518Y-117875812D01*
X68500000Y-117888072D01*
X70500000Y-117888072D01*
X70624482Y-117875812D01*
X70744180Y-117839502D01*
X70854494Y-117780537D01*
X70951185Y-117701185D01*
X70990054Y-117653823D01*
X71055920Y-117734081D01*
X71266813Y-117907157D01*
X71507420Y-118035764D01*
X71768494Y-118114960D01*
X72040000Y-118141701D01*
X72311507Y-118114960D01*
X72572581Y-118035764D01*
X72813188Y-117907157D01*
X73024081Y-117734081D01*
X73197157Y-117523188D01*
X73310000Y-117312073D01*
X73422843Y-117523188D01*
X73595920Y-117734081D01*
X73806813Y-117907157D01*
X74047420Y-118035764D01*
X74308494Y-118114960D01*
X74580000Y-118141701D01*
X74851507Y-118114960D01*
X75112581Y-118035764D01*
X75353188Y-117907157D01*
X75564081Y-117734081D01*
X75737157Y-117523188D01*
X75865764Y-117282580D01*
X75944960Y-117021506D01*
X75965000Y-116818036D01*
X75965000Y-116181963D01*
X75944960Y-115978493D01*
X75865764Y-115717419D01*
X75737157Y-115476812D01*
X75564080Y-115265919D01*
X75438803Y-115163106D01*
X75580269Y-115057588D01*
X75775178Y-114841355D01*
X75924157Y-114591252D01*
X76021481Y-114316891D01*
X75900814Y-114087000D01*
X74707000Y-114087000D01*
X74707000Y-114107000D01*
X74453000Y-114107000D01*
X74453000Y-114087000D01*
X74433000Y-114087000D01*
X74433000Y-113833000D01*
X74453000Y-113833000D01*
X74453000Y-112639845D01*
X74707000Y-112639845D01*
X74707000Y-113833000D01*
X75900814Y-113833000D01*
X76021481Y-113603109D01*
X75924157Y-113328748D01*
X75775178Y-113078645D01*
X75580269Y-112862412D01*
X75346920Y-112688359D01*
X75084099Y-112563175D01*
X74936890Y-112518524D01*
X74707000Y-112639845D01*
X74453000Y-112639845D01*
X74223110Y-112518524D01*
X74075901Y-112563175D01*
X73813080Y-112688359D01*
X73579731Y-112862412D01*
X73384822Y-113078645D01*
X73315195Y-113195534D01*
X73193475Y-113013368D01*
X72986632Y-112806525D01*
X72743411Y-112644010D01*
X72473158Y-112532068D01*
X72186260Y-112475000D01*
X71893740Y-112475000D01*
X71606842Y-112532068D01*
X71336589Y-112644010D01*
X71093368Y-112806525D01*
X70886525Y-113013368D01*
X70831903Y-113095115D01*
X70734081Y-112975919D01*
X70523188Y-112802843D01*
X70282581Y-112674236D01*
X70021507Y-112595040D01*
X69818037Y-112575000D01*
X69181963Y-112575000D01*
X68978493Y-112595040D01*
X68717419Y-112674236D01*
X68476812Y-112802843D01*
X68265919Y-112975919D01*
X68092843Y-113186812D01*
X67964236Y-113427419D01*
X67885040Y-113688493D01*
X67858299Y-113960000D01*
X62418136Y-113960000D01*
X62156566Y-113785225D01*
X61804419Y-113639361D01*
X61430581Y-113565000D01*
X61049419Y-113565000D01*
X60675581Y-113639361D01*
X60323434Y-113785225D01*
X60006509Y-113996987D01*
X59736987Y-114266509D01*
X59525225Y-114583434D01*
X59379361Y-114935581D01*
X59305000Y-115309419D01*
X58086232Y-115309419D01*
X58056457Y-115071049D01*
X57936333Y-114709310D01*
X57804312Y-114462317D01*
X57509224Y-114330381D01*
X56339605Y-115500000D01*
X55980395Y-115500000D01*
X54810776Y-114330381D01*
X54515688Y-114462317D01*
X54344841Y-114803045D01*
X54243750Y-115170557D01*
X54216299Y-115550729D01*
X53015000Y-115550729D01*
X53015000Y-115309419D01*
X52940639Y-114935581D01*
X52794775Y-114583434D01*
X52583013Y-114266509D01*
X52467280Y-114150776D01*
X54990381Y-114150776D01*
X56160000Y-115320395D01*
X57329619Y-114150776D01*
X57197683Y-113855688D01*
X56856955Y-113684841D01*
X56489443Y-113583750D01*
X56109271Y-113556299D01*
X55731049Y-113603543D01*
X55369310Y-113723667D01*
X55122317Y-113855688D01*
X54990381Y-114150776D01*
X52467280Y-114150776D01*
X52313491Y-113996987D01*
X51996566Y-113785225D01*
X51644419Y-113639361D01*
X51270581Y-113565000D01*
X50889419Y-113565000D01*
X50515581Y-113639361D01*
X50163434Y-113785225D01*
X49846509Y-113996987D01*
X49576987Y-114266509D01*
X49365225Y-114583434D01*
X49219361Y-114935581D01*
X49145000Y-115309419D01*
X47839831Y-115309419D01*
X47935000Y-115214250D01*
X47938072Y-114200000D01*
X47925812Y-114075518D01*
X47889502Y-113955820D01*
X47830537Y-113845506D01*
X47751185Y-113748815D01*
X47654494Y-113669463D01*
X47544180Y-113610498D01*
X47424482Y-113574188D01*
X47300000Y-113561928D01*
X46285750Y-113565000D01*
X46127000Y-113723750D01*
X45873000Y-113723750D01*
X45714250Y-113565000D01*
X44700000Y-113561928D01*
X44575518Y-113574188D01*
X44455820Y-113610498D01*
X44345506Y-113669463D01*
X44248815Y-113748815D01*
X44169463Y-113845506D01*
X44110498Y-113955820D01*
X44074188Y-114075518D01*
X44061928Y-114200000D01*
X39516504Y-114200000D01*
X39313491Y-113996987D01*
X38996566Y-113785225D01*
X38644419Y-113639361D01*
X38270581Y-113565000D01*
X37889419Y-113565000D01*
X37515581Y-113639361D01*
X37163434Y-113785225D01*
X36846509Y-113996987D01*
X36576987Y-114266509D01*
X36365225Y-114583434D01*
X36219361Y-114935581D01*
X36145000Y-115309419D01*
X34839831Y-115309419D01*
X34935000Y-115214250D01*
X34938072Y-114200000D01*
X34925812Y-114075518D01*
X34889502Y-113955820D01*
X34830537Y-113845506D01*
X34751185Y-113748815D01*
X34654494Y-113669463D01*
X34544180Y-113610498D01*
X34424482Y-113574188D01*
X34300000Y-113561928D01*
X33285750Y-113565000D01*
X33127000Y-113723750D01*
X32873000Y-113723750D01*
X32714250Y-113565000D01*
X31700000Y-113561928D01*
X31575518Y-113574188D01*
X31455820Y-113610498D01*
X31345506Y-113669463D01*
X31248815Y-113748815D01*
X31169463Y-113845506D01*
X31110498Y-113955820D01*
X31074188Y-114075518D01*
X31061928Y-114200000D01*
X29660000Y-114200000D01*
X29660000Y-109660000D01*
X78340001Y-109660000D01*
X78340000Y-158340000D01*
G37*
X78340000Y-158340000D02*
X29660000Y-158340000D01*
X29660000Y-156350000D01*
X32011928Y-156350000D01*
X32024188Y-156474482D01*
X32060498Y-156594180D01*
X32119463Y-156704494D01*
X32198815Y-156801185D01*
X32295506Y-156880537D01*
X32405820Y-156939502D01*
X32525518Y-156975812D01*
X32650000Y-156988072D01*
X33214250Y-156985000D01*
X33373000Y-156826250D01*
X33373000Y-155627000D01*
X32173750Y-155627000D01*
X32015000Y-155785750D01*
X32011928Y-156350000D01*
X29660000Y-156350000D01*
X29660000Y-154650000D01*
X32011928Y-154650000D01*
X32015000Y-155214250D01*
X32173750Y-155373000D01*
X33373000Y-155373000D01*
X33373000Y-154173750D01*
X33627000Y-154173750D01*
X33627000Y-155373000D01*
X33647000Y-155373000D01*
X33647000Y-155627000D01*
X33627000Y-155627000D01*
X33627000Y-156826250D01*
X33785750Y-156985000D01*
X34350000Y-156988072D01*
X34474482Y-156975812D01*
X34594180Y-156939502D01*
X34704494Y-156880537D01*
X34801185Y-156801185D01*
X34880537Y-156704494D01*
X34939502Y-156594180D01*
X34961513Y-156521620D01*
X35093368Y-156653475D01*
X35336589Y-156815990D01*
X35606842Y-156927932D01*
X35893740Y-156985000D01*
X36186260Y-156985000D01*
X36473158Y-156927932D01*
X36743411Y-156815990D01*
X36986632Y-156653475D01*
X37193475Y-156446632D01*
X37310000Y-156272240D01*
X37426525Y-156446632D01*
X37633368Y-156653475D01*
X37876589Y-156815990D01*
X38146842Y-156927932D01*
X38433740Y-156985000D01*
X38726260Y-156985000D01*
X39013158Y-156927932D01*
X39283411Y-156815990D01*
X39526632Y-156653475D01*
X39733475Y-156446632D01*
X39850000Y-156272240D01*
X39966525Y-156446632D01*
X40173368Y-156653475D01*
X40416589Y-156815990D01*
X40686842Y-156927932D01*
X40973740Y-156985000D01*
X41266260Y-156985000D01*
X41553158Y-156927932D01*
X41823411Y-156815990D01*
X42066632Y-156653475D01*
X42273475Y-156446632D01*
X42390000Y-156272240D01*
X42506525Y-156446632D01*
X42713368Y-156653475D01*
X42956589Y-156815990D01*
X43226842Y-156927932D01*
X43513740Y-156985000D01*
X43806260Y-156985000D01*
X44093158Y-156927932D01*
X44363411Y-156815990D01*
X44606632Y-156653475D01*
X44813475Y-156446632D01*
X44930000Y-156272240D01*
X45046525Y-156446632D01*
X45253368Y-156653475D01*
X45496589Y-156815990D01*
X45766842Y-156927932D01*
X46053740Y-156985000D01*
X46346260Y-156985000D01*
X46633158Y-156927932D01*
X46903411Y-156815990D01*
X47146632Y-156653475D01*
X47353475Y-156446632D01*
X47515990Y-156203411D01*
X47627932Y-155933158D01*
X47685000Y-155646260D01*
X47685000Y-155353740D01*
X47627932Y-155066842D01*
X47515990Y-154796589D01*
X47353475Y-154553368D01*
X47300107Y-154500000D01*
X63861928Y-154500000D01*
X63861928Y-156500000D01*
X63874188Y-156624482D01*
X63910498Y-156744180D01*
X63969463Y-156854494D01*
X64048815Y-156951185D01*
X64145506Y-157030537D01*
X64255820Y-157089502D01*
X64375518Y-157125812D01*
X64500000Y-157138072D01*
X66500000Y-157138072D01*
X66624482Y-157125812D01*
X66744180Y-157089502D01*
X66854494Y-157030537D01*
X66951185Y-156951185D01*
X67030537Y-156854494D01*
X67055191Y-156808370D01*
X67265537Y-156948918D01*
X67563088Y-157072168D01*
X67878967Y-157135000D01*
X68201033Y-157135000D01*
X68516912Y-157072168D01*
X68814463Y-156948918D01*
X69082252Y-156769987D01*
X69309987Y-156542252D01*
X69488918Y-156274463D01*
X69612168Y-155976912D01*
X69675000Y-155661033D01*
X69675000Y-155338967D01*
X74025000Y-155338967D01*
X74025000Y-155661033D01*
X74087832Y-155976912D01*
X74211082Y-156274463D01*
X74390013Y-156542252D01*
X74617748Y-156769987D01*
X74885537Y-156948918D01*
X75183088Y-157072168D01*
X75498967Y-157135000D01*
X75821033Y-157135000D01*
X76136912Y-157072168D01*
X76434463Y-156948918D01*
X76702252Y-156769987D01*
X76929987Y-156542252D01*
X77108918Y-156274463D01*
X77232168Y-155976912D01*
X77295000Y-155661033D01*
X77295000Y-155338967D01*
X77232168Y-155023088D01*
X77108918Y-154725537D01*
X76929987Y-154457748D01*
X76702252Y-154230013D01*
X76434463Y-154051082D01*
X76136912Y-153927832D01*
X75821033Y-153865000D01*
X75498967Y-153865000D01*
X75183088Y-153927832D01*
X74885537Y-154051082D01*
X74617748Y-154230013D01*
X74390013Y-154457748D01*
X74211082Y-154725537D01*
X74087832Y-155023088D01*
X74025000Y-155338967D01*
X69675000Y-155338967D01*
X69612168Y-155023088D01*
X69488918Y-154725537D01*
X69309987Y-154457748D01*
X69082252Y-154230013D01*
X68814463Y-154051082D01*
X68516912Y-153927832D01*
X68201033Y-153865000D01*
X67878967Y-153865000D01*
X67563088Y-153927832D01*
X67265537Y-154051082D01*
X67055191Y-154191630D01*
X67030537Y-154145506D01*
X66951185Y-154048815D01*
X66854494Y-153969463D01*
X66744180Y-153910498D01*
X66624482Y-153874188D01*
X66500000Y-153861928D01*
X64500000Y-153861928D01*
X64375518Y-153874188D01*
X64255820Y-153910498D01*
X64145506Y-153969463D01*
X64048815Y-154048815D01*
X63969463Y-154145506D01*
X63910498Y-154255820D01*
X63874188Y-154375518D01*
X63861928Y-154500000D01*
X47300107Y-154500000D01*
X47146632Y-154346525D01*
X46903411Y-154184010D01*
X46633158Y-154072068D01*
X46346260Y-154015000D01*
X46053740Y-154015000D01*
X45766842Y-154072068D01*
X45496589Y-154184010D01*
X45253368Y-154346525D01*
X45046525Y-154553368D01*
X44930000Y-154727760D01*
X44813475Y-154553368D01*
X44606632Y-154346525D01*
X44363411Y-154184010D01*
X44093158Y-154072068D01*
X43806260Y-154015000D01*
X43513740Y-154015000D01*
X43226842Y-154072068D01*
X42956589Y-154184010D01*
X42713368Y-154346525D01*
X42506525Y-154553368D01*
X42390000Y-154727760D01*
X42273475Y-154553368D01*
X42066632Y-154346525D01*
X41823411Y-154184010D01*
X41553158Y-154072068D01*
X41266260Y-154015000D01*
X40973740Y-154015000D01*
X40686842Y-154072068D01*
X40416589Y-154184010D01*
X40173368Y-154346525D01*
X39966525Y-154553368D01*
X39850000Y-154727760D01*
X39733475Y-154553368D01*
X39526632Y-154346525D01*
X39283411Y-154184010D01*
X39013158Y-154072068D01*
X38726260Y-154015000D01*
X38433740Y-154015000D01*
X38146842Y-154072068D01*
X37876589Y-154184010D01*
X37633368Y-154346525D01*
X37426525Y-154553368D01*
X37310000Y-154727760D01*
X37193475Y-154553368D01*
X36986632Y-154346525D01*
X36743411Y-154184010D01*
X36473158Y-154072068D01*
X36186260Y-154015000D01*
X35893740Y-154015000D01*
X35606842Y-154072068D01*
X35336589Y-154184010D01*
X35093368Y-154346525D01*
X34961513Y-154478380D01*
X34939502Y-154405820D01*
X34880537Y-154295506D01*
X34801185Y-154198815D01*
X34704494Y-154119463D01*
X34594180Y-154060498D01*
X34474482Y-154024188D01*
X34350000Y-154011928D01*
X33785750Y-154015000D01*
X33627000Y-154173750D01*
X33373000Y-154173750D01*
X33214250Y-154015000D01*
X32650000Y-154011928D01*
X32525518Y-154024188D01*
X32405820Y-154060498D01*
X32295506Y-154119463D01*
X32198815Y-154198815D01*
X32119463Y-154295506D01*
X32060498Y-154405820D01*
X32024188Y-154525518D01*
X32011928Y-154650000D01*
X29660000Y-154650000D01*
X29660000Y-143335561D01*
X31527500Y-143335561D01*
X31527500Y-143539439D01*
X31552500Y-143665124D01*
X31552500Y-144209875D01*
X31527500Y-144335561D01*
X31527500Y-144539439D01*
X31552501Y-144665127D01*
X31552501Y-145209872D01*
X31527500Y-145335561D01*
X31527500Y-145539439D01*
X31567274Y-145739398D01*
X31645295Y-145927756D01*
X31758563Y-146097274D01*
X31902726Y-146241437D01*
X32072244Y-146354705D01*
X32260602Y-146432726D01*
X32460561Y-146472500D01*
X32664439Y-146472500D01*
X32790123Y-146447500D01*
X54262892Y-146447500D01*
X54312500Y-146452386D01*
X54490000Y-146434903D01*
X54490001Y-149772372D01*
X54465000Y-149898061D01*
X54465000Y-150101939D01*
X54504774Y-150301898D01*
X54582795Y-150490256D01*
X54696063Y-150659774D01*
X54840226Y-150803937D01*
X55009744Y-150917205D01*
X55198102Y-150995226D01*
X55398061Y-151035000D01*
X55601939Y-151035000D01*
X55801898Y-150995226D01*
X55990256Y-150917205D01*
X56159774Y-150803937D01*
X56303937Y-150659774D01*
X56417205Y-150490256D01*
X56495226Y-150301898D01*
X56503765Y-150258967D01*
X63865000Y-150258967D01*
X63865000Y-150581033D01*
X63927832Y-150896912D01*
X64051082Y-151194463D01*
X64230013Y-151462252D01*
X64457748Y-151689987D01*
X64725537Y-151868918D01*
X65023088Y-151992168D01*
X65338967Y-152055000D01*
X65661033Y-152055000D01*
X65976912Y-151992168D01*
X66274463Y-151868918D01*
X66542252Y-151689987D01*
X66769987Y-151462252D01*
X66770000Y-151462233D01*
X66770013Y-151462252D01*
X66997748Y-151689987D01*
X67265537Y-151868918D01*
X67563088Y-151992168D01*
X67878967Y-152055000D01*
X68201033Y-152055000D01*
X68516912Y-151992168D01*
X68814463Y-151868918D01*
X69082252Y-151689987D01*
X69309987Y-151462252D01*
X69488918Y-151194463D01*
X69612168Y-150896912D01*
X69675000Y-150581033D01*
X69675000Y-150258967D01*
X74025000Y-150258967D01*
X74025000Y-150581033D01*
X74087832Y-150896912D01*
X74211082Y-151194463D01*
X74390013Y-151462252D01*
X74617748Y-151689987D01*
X74885537Y-151868918D01*
X75183088Y-151992168D01*
X75498967Y-152055000D01*
X75821033Y-152055000D01*
X76136912Y-151992168D01*
X76434463Y-151868918D01*
X76702252Y-151689987D01*
X76929987Y-151462252D01*
X77108918Y-151194463D01*
X77232168Y-150896912D01*
X77295000Y-150581033D01*
X77295000Y-150258967D01*
X77232168Y-149943088D01*
X77108918Y-149645537D01*
X76929987Y-149377748D01*
X76702252Y-149150013D01*
X76434463Y-148971082D01*
X76136912Y-148847832D01*
X75821033Y-148785000D01*
X75498967Y-148785000D01*
X75183088Y-148847832D01*
X74885537Y-148971082D01*
X74617748Y-149150013D01*
X74390013Y-149377748D01*
X74211082Y-149645537D01*
X74087832Y-149943088D01*
X74025000Y-150258967D01*
X69675000Y-150258967D01*
X69612168Y-149943088D01*
X69488918Y-149645537D01*
X69309987Y-149377748D01*
X69082252Y-149150013D01*
X68814463Y-148971082D01*
X68516912Y-148847832D01*
X68201033Y-148785000D01*
X67878967Y-148785000D01*
X67563088Y-148847832D01*
X67265537Y-148971082D01*
X66997748Y-149150013D01*
X66770013Y-149377748D01*
X66770000Y-149377767D01*
X66769987Y-149377748D01*
X66542252Y-149150013D01*
X66274463Y-148971082D01*
X65976912Y-148847832D01*
X65661033Y-148785000D01*
X65338967Y-148785000D01*
X65023088Y-148847832D01*
X64725537Y-148971082D01*
X64457748Y-149150013D01*
X64230013Y-149377748D01*
X64051082Y-149645537D01*
X63927832Y-149943088D01*
X63865000Y-150258967D01*
X56503765Y-150258967D01*
X56535000Y-150101939D01*
X56535000Y-149898061D01*
X56510000Y-149772377D01*
X56510000Y-144969419D01*
X70565000Y-144969419D01*
X70565000Y-145350581D01*
X70639361Y-145724419D01*
X70785225Y-146076566D01*
X70996987Y-146393491D01*
X71266509Y-146663013D01*
X71583434Y-146874775D01*
X71935581Y-147020639D01*
X72309419Y-147095000D01*
X72690581Y-147095000D01*
X73064419Y-147020639D01*
X73416566Y-146874775D01*
X73733491Y-146663013D01*
X74003013Y-146393491D01*
X74214775Y-146076566D01*
X74360639Y-145724419D01*
X74435000Y-145350581D01*
X74435000Y-144969419D01*
X74360639Y-144595581D01*
X74214775Y-144243434D01*
X74003013Y-143926509D01*
X73733491Y-143656987D01*
X73416566Y-143445225D01*
X73064419Y-143299361D01*
X72690581Y-143225000D01*
X72309419Y-143225000D01*
X71935581Y-143299361D01*
X71583434Y-143445225D01*
X71266509Y-143656987D01*
X70996987Y-143926509D01*
X70785225Y-144243434D01*
X70639361Y-144595581D01*
X70565000Y-144969419D01*
X56510000Y-144969419D01*
X56510000Y-144668355D01*
X56679094Y-144499261D01*
X56717633Y-144467633D01*
X56843847Y-144313840D01*
X56937632Y-144138380D01*
X56950101Y-144097274D01*
X56995385Y-143947995D01*
X57014886Y-143750000D01*
X57011794Y-143718605D01*
X57035000Y-143601939D01*
X57035000Y-143398061D01*
X56995226Y-143198102D01*
X56917205Y-143009744D01*
X56803937Y-142840226D01*
X56659774Y-142696063D01*
X56490256Y-142582795D01*
X56301898Y-142504774D01*
X56101939Y-142465000D01*
X55898061Y-142465000D01*
X55772377Y-142490000D01*
X55227623Y-142490000D01*
X55101939Y-142465000D01*
X54898061Y-142465000D01*
X54698102Y-142504774D01*
X54509744Y-142582795D01*
X54340226Y-142696063D01*
X54196063Y-142840226D01*
X54082795Y-143009744D01*
X54004774Y-143198102D01*
X53965000Y-143398061D01*
X53965000Y-143601939D01*
X53988206Y-143718605D01*
X53985114Y-143750000D01*
X53990000Y-143799607D01*
X53990000Y-143799608D01*
X54004615Y-143947994D01*
X54062368Y-144138380D01*
X54104479Y-144217165D01*
X53894145Y-144427500D01*
X33597500Y-144427500D01*
X33597500Y-144335561D01*
X33572500Y-144209877D01*
X33572500Y-143665123D01*
X33597500Y-143539439D01*
X33597500Y-143335561D01*
X33557726Y-143135602D01*
X33479705Y-142947244D01*
X33366437Y-142777726D01*
X33222274Y-142633563D01*
X33052756Y-142520295D01*
X32864398Y-142442274D01*
X32664439Y-142402500D01*
X32460561Y-142402500D01*
X32260602Y-142442274D01*
X32072244Y-142520295D01*
X31902726Y-142633563D01*
X31758563Y-142777726D01*
X31645295Y-142947244D01*
X31567274Y-143135602D01*
X31527500Y-143335561D01*
X29660000Y-143335561D01*
X29660000Y-139648061D01*
X45965000Y-139648061D01*
X45965000Y-139851939D01*
X46004774Y-140051898D01*
X46082795Y-140240256D01*
X46196063Y-140409774D01*
X46340226Y-140553937D01*
X46509744Y-140667205D01*
X46698102Y-140745226D01*
X46898061Y-140785000D01*
X47101939Y-140785000D01*
X47301898Y-140745226D01*
X47490256Y-140667205D01*
X47538454Y-140635000D01*
X59961546Y-140635000D01*
X60009744Y-140667205D01*
X60198102Y-140745226D01*
X60398061Y-140785000D01*
X60601939Y-140785000D01*
X60801898Y-140745226D01*
X60990256Y-140667205D01*
X61159774Y-140553937D01*
X61303937Y-140409774D01*
X61417205Y-140240256D01*
X61495226Y-140051898D01*
X61535000Y-139851939D01*
X61535000Y-139648061D01*
X61495226Y-139448102D01*
X61417205Y-139259744D01*
X61303937Y-139090226D01*
X61159774Y-138946063D01*
X60990256Y-138832795D01*
X60801898Y-138754774D01*
X60601939Y-138715000D01*
X60398061Y-138715000D01*
X60198102Y-138754774D01*
X60009744Y-138832795D01*
X59961546Y-138865000D01*
X47538454Y-138865000D01*
X47490256Y-138832795D01*
X47301898Y-138754774D01*
X47101939Y-138715000D01*
X46898061Y-138715000D01*
X46698102Y-138754774D01*
X46509744Y-138832795D01*
X46340226Y-138946063D01*
X46196063Y-139090226D01*
X46082795Y-139259744D01*
X46004774Y-139448102D01*
X45965000Y-139648061D01*
X29660000Y-139648061D01*
X29660000Y-135398061D01*
X62465000Y-135398061D01*
X62465000Y-135601939D01*
X62504774Y-135801898D01*
X62582795Y-135990256D01*
X62696063Y-136159774D01*
X62840226Y-136303937D01*
X63009744Y-136417205D01*
X63198102Y-136495226D01*
X63254957Y-136506535D01*
X64615001Y-137866580D01*
X64615000Y-140711545D01*
X64582795Y-140759744D01*
X64504774Y-140948102D01*
X64465000Y-141148061D01*
X64465000Y-141351939D01*
X64504774Y-141551898D01*
X64582795Y-141740256D01*
X64696063Y-141909774D01*
X64840226Y-142053937D01*
X65009744Y-142167205D01*
X65198102Y-142245226D01*
X65398061Y-142285000D01*
X65601939Y-142285000D01*
X65801898Y-142245226D01*
X65990256Y-142167205D01*
X66159774Y-142053937D01*
X66303937Y-141909774D01*
X66417205Y-141740256D01*
X66495226Y-141551898D01*
X66535000Y-141351939D01*
X66535000Y-141148061D01*
X66495226Y-140948102D01*
X66417205Y-140759744D01*
X66385000Y-140711546D01*
X66385000Y-139889419D01*
X70565000Y-139889419D01*
X70565000Y-140270581D01*
X70639361Y-140644419D01*
X70785225Y-140996566D01*
X70996987Y-141313491D01*
X71266509Y-141583013D01*
X71583434Y-141794775D01*
X71935581Y-141940639D01*
X72309419Y-142015000D01*
X72690581Y-142015000D01*
X73064419Y-141940639D01*
X73416566Y-141794775D01*
X73733491Y-141583013D01*
X74003013Y-141313491D01*
X74214775Y-140996566D01*
X74360639Y-140644419D01*
X74435000Y-140270581D01*
X74435000Y-139889419D01*
X74360639Y-139515581D01*
X74214775Y-139163434D01*
X74003013Y-138846509D01*
X73733491Y-138576987D01*
X73416566Y-138365225D01*
X73064419Y-138219361D01*
X72690581Y-138145000D01*
X72309419Y-138145000D01*
X71935581Y-138219361D01*
X71583434Y-138365225D01*
X71266509Y-138576987D01*
X70996987Y-138846509D01*
X70785225Y-139163434D01*
X70639361Y-139515581D01*
X70565000Y-139889419D01*
X66385000Y-139889419D01*
X66385000Y-137543465D01*
X66389281Y-137499999D01*
X66385000Y-137456533D01*
X66385000Y-137456523D01*
X66372195Y-137326510D01*
X66321589Y-137159687D01*
X66239411Y-137005941D01*
X66183712Y-136938072D01*
X66156532Y-136904953D01*
X66156530Y-136904951D01*
X66128817Y-136871183D01*
X66095049Y-136843470D01*
X64506535Y-135254957D01*
X64495226Y-135198102D01*
X64417205Y-135009744D01*
X64303937Y-134840226D01*
X64159774Y-134696063D01*
X63990256Y-134582795D01*
X63801898Y-134504774D01*
X63601939Y-134465000D01*
X63398061Y-134465000D01*
X63198102Y-134504774D01*
X63009744Y-134582795D01*
X62840226Y-134696063D01*
X62696063Y-134840226D01*
X62582795Y-135009744D01*
X62504774Y-135198102D01*
X62465000Y-135398061D01*
X29660000Y-135398061D01*
X29660000Y-133700000D01*
X70561928Y-133700000D01*
X70561928Y-136300000D01*
X70574188Y-136424482D01*
X70610498Y-136544180D01*
X70669463Y-136654494D01*
X70748815Y-136751185D01*
X70845506Y-136830537D01*
X70955820Y-136889502D01*
X71075518Y-136925812D01*
X71200000Y-136938072D01*
X73800000Y-136938072D01*
X73924482Y-136925812D01*
X74044180Y-136889502D01*
X74154494Y-136830537D01*
X74251185Y-136751185D01*
X74330537Y-136654494D01*
X74389502Y-136544180D01*
X74425812Y-136424482D01*
X74438072Y-136300000D01*
X74438072Y-133700000D01*
X74425812Y-133575518D01*
X74389502Y-133455820D01*
X74330537Y-133345506D01*
X74251185Y-133248815D01*
X74154494Y-133169463D01*
X74044180Y-133110498D01*
X73924482Y-133074188D01*
X73800000Y-133061928D01*
X71200000Y-133061928D01*
X71075518Y-133074188D01*
X70955820Y-133110498D01*
X70845506Y-133169463D01*
X70748815Y-133248815D01*
X70669463Y-133345506D01*
X70610498Y-133455820D01*
X70574188Y-133575518D01*
X70561928Y-133700000D01*
X29660000Y-133700000D01*
X29660000Y-126898061D01*
X56215000Y-126898061D01*
X56215000Y-127101939D01*
X56254774Y-127301898D01*
X56332795Y-127490256D01*
X56446063Y-127659774D01*
X56590226Y-127803937D01*
X56759744Y-127917205D01*
X56948102Y-127995226D01*
X57148061Y-128035000D01*
X57351939Y-128035000D01*
X57551898Y-127995226D01*
X57740256Y-127917205D01*
X57909774Y-127803937D01*
X58053937Y-127659774D01*
X58167205Y-127490256D01*
X58245226Y-127301898D01*
X58285000Y-127101939D01*
X58285000Y-126898061D01*
X58260000Y-126772377D01*
X58260000Y-125418355D01*
X59303223Y-124375132D01*
X59409774Y-124303937D01*
X59553937Y-124159774D01*
X59667205Y-123990256D01*
X59745226Y-123801898D01*
X59785000Y-123601939D01*
X59785000Y-123398061D01*
X59745226Y-123198102D01*
X59667205Y-123009744D01*
X59553937Y-122840226D01*
X59409774Y-122696063D01*
X59240256Y-122582795D01*
X59051898Y-122504774D01*
X58851939Y-122465000D01*
X58648061Y-122465000D01*
X58448102Y-122504774D01*
X58259744Y-122582795D01*
X58090226Y-122696063D01*
X57946063Y-122840226D01*
X57874868Y-122946777D01*
X56570901Y-124250744D01*
X56532368Y-124282367D01*
X56500745Y-124320900D01*
X56500744Y-124320901D01*
X56406154Y-124436160D01*
X56312368Y-124611621D01*
X56254615Y-124802006D01*
X56235114Y-125000000D01*
X56240001Y-125049617D01*
X56240000Y-126772376D01*
X56215000Y-126898061D01*
X29660000Y-126898061D01*
X29660000Y-116800000D01*
X31061928Y-116800000D01*
X31074188Y-116924482D01*
X31110498Y-117044180D01*
X31169463Y-117154494D01*
X31248815Y-117251185D01*
X31345506Y-117330537D01*
X31455820Y-117389502D01*
X31575518Y-117425812D01*
X31700000Y-117438072D01*
X32714250Y-117435000D01*
X32873000Y-117276250D01*
X32873000Y-115627000D01*
X33127000Y-115627000D01*
X33127000Y-117276250D01*
X33285750Y-117435000D01*
X34300000Y-117438072D01*
X34424482Y-117425812D01*
X34544180Y-117389502D01*
X34654494Y-117330537D01*
X34751185Y-117251185D01*
X34830537Y-117154494D01*
X34889502Y-117044180D01*
X34925812Y-116924482D01*
X34938072Y-116800000D01*
X34935000Y-115785750D01*
X34776250Y-115627000D01*
X33127000Y-115627000D01*
X32873000Y-115627000D01*
X31223750Y-115627000D01*
X31065000Y-115785750D01*
X31061928Y-116800000D01*
X29660000Y-116800000D01*
X29660000Y-114200000D01*
X31061928Y-114200000D01*
X31065000Y-115214250D01*
X31223750Y-115373000D01*
X32873000Y-115373000D01*
X32873000Y-113723750D01*
X33127000Y-113723750D01*
X33127000Y-115373000D01*
X34776250Y-115373000D01*
X34839831Y-115309419D01*
X36145000Y-115309419D01*
X36145000Y-115690581D01*
X36219361Y-116064419D01*
X36365225Y-116416566D01*
X36576987Y-116733491D01*
X36846509Y-117003013D01*
X37163434Y-117214775D01*
X37515581Y-117360639D01*
X37889419Y-117435000D01*
X38270581Y-117435000D01*
X38644419Y-117360639D01*
X38996566Y-117214775D01*
X39313491Y-117003013D01*
X39516504Y-116800000D01*
X44061928Y-116800000D01*
X44074188Y-116924482D01*
X44110498Y-117044180D01*
X44169463Y-117154494D01*
X44248815Y-117251185D01*
X44345506Y-117330537D01*
X44455820Y-117389502D01*
X44575518Y-117425812D01*
X44700000Y-117438072D01*
X45714250Y-117435000D01*
X45873000Y-117276250D01*
X45873000Y-115627000D01*
X46127000Y-115627000D01*
X46127000Y-117276250D01*
X46285750Y-117435000D01*
X47300000Y-117438072D01*
X47424482Y-117425812D01*
X47544180Y-117389502D01*
X47654494Y-117330537D01*
X47751185Y-117251185D01*
X47830537Y-117154494D01*
X47889502Y-117044180D01*
X47925812Y-116924482D01*
X47938072Y-116800000D01*
X47935000Y-115785750D01*
X47776250Y-115627000D01*
X46127000Y-115627000D01*
X45873000Y-115627000D01*
X44223750Y-115627000D01*
X44065000Y-115785750D01*
X44061928Y-116800000D01*
X39516504Y-116800000D01*
X39583013Y-116733491D01*
X39794775Y-116416566D01*
X39940639Y-116064419D01*
X40015000Y-115690581D01*
X40015000Y-115309419D01*
X39940639Y-114935581D01*
X39794775Y-114583434D01*
X39583013Y-114266509D01*
X39516504Y-114200000D01*
X44061928Y-114200000D01*
X44065000Y-115214250D01*
X44223750Y-115373000D01*
X45873000Y-115373000D01*
X45873000Y-113723750D01*
X46127000Y-113723750D01*
X46127000Y-115373000D01*
X47776250Y-115373000D01*
X47839831Y-115309419D01*
X49145000Y-115309419D01*
X49145000Y-115690581D01*
X49219361Y-116064419D01*
X49365225Y-116416566D01*
X49576987Y-116733491D01*
X49846509Y-117003013D01*
X50163434Y-117214775D01*
X50515581Y-117360639D01*
X50889419Y-117435000D01*
X51270581Y-117435000D01*
X51644419Y-117360639D01*
X51996566Y-117214775D01*
X52313491Y-117003013D01*
X52467280Y-116849224D01*
X54990381Y-116849224D01*
X55122317Y-117144312D01*
X55463045Y-117315159D01*
X55830557Y-117416250D01*
X56210729Y-117443701D01*
X56588951Y-117396457D01*
X56950690Y-117276333D01*
X57197683Y-117144312D01*
X57329619Y-116849224D01*
X56160000Y-115679605D01*
X54990381Y-116849224D01*
X52467280Y-116849224D01*
X52583013Y-116733491D01*
X52794775Y-116416566D01*
X52940639Y-116064419D01*
X53015000Y-115690581D01*
X53015000Y-115550729D01*
X54216299Y-115550729D01*
X54263543Y-115928951D01*
X54383667Y-116290690D01*
X54515688Y-116537683D01*
X54810776Y-116669619D01*
X55980395Y-115500000D01*
X56339605Y-115500000D01*
X57509224Y-116669619D01*
X57804312Y-116537683D01*
X57975159Y-116196955D01*
X58076250Y-115829443D01*
X58103701Y-115449271D01*
X58086232Y-115309419D01*
X59305000Y-115309419D01*
X59305000Y-115690581D01*
X59379361Y-116064419D01*
X59525225Y-116416566D01*
X59736987Y-116733491D01*
X60006509Y-117003013D01*
X60323434Y-117214775D01*
X60675581Y-117360639D01*
X61049419Y-117435000D01*
X61430581Y-117435000D01*
X61804419Y-117360639D01*
X62156566Y-117214775D01*
X62473491Y-117003013D01*
X62743013Y-116733491D01*
X62954775Y-116416566D01*
X63100639Y-116064419D01*
X63175000Y-115690581D01*
X63175000Y-115309419D01*
X63100639Y-114935581D01*
X62954775Y-114583434D01*
X62743013Y-114266509D01*
X62473491Y-113996987D01*
X62418136Y-113960000D01*
X67858299Y-113960000D01*
X67885040Y-114231507D01*
X67964236Y-114492581D01*
X68092843Y-114733188D01*
X68265919Y-114944081D01*
X68473608Y-115114527D01*
X68375518Y-115124188D01*
X68255820Y-115160498D01*
X68145506Y-115219463D01*
X68048815Y-115298815D01*
X67969463Y-115395506D01*
X67910498Y-115505820D01*
X67874188Y-115625518D01*
X67861928Y-115750000D01*
X67861928Y-117250000D01*
X67874188Y-117374482D01*
X67910498Y-117494180D01*
X67969463Y-117604494D01*
X68048815Y-117701185D01*
X68145506Y-117780537D01*
X68255820Y-117839502D01*
X68375518Y-117875812D01*
X68500000Y-117888072D01*
X70500000Y-117888072D01*
X70624482Y-117875812D01*
X70744180Y-117839502D01*
X70854494Y-117780537D01*
X70951185Y-117701185D01*
X70990054Y-117653823D01*
X71055920Y-117734081D01*
X71266813Y-117907157D01*
X71507420Y-118035764D01*
X71768494Y-118114960D01*
X72040000Y-118141701D01*
X72311507Y-118114960D01*
X72572581Y-118035764D01*
X72813188Y-117907157D01*
X73024081Y-117734081D01*
X73197157Y-117523188D01*
X73310000Y-117312073D01*
X73422843Y-117523188D01*
X73595920Y-117734081D01*
X73806813Y-117907157D01*
X74047420Y-118035764D01*
X74308494Y-118114960D01*
X74580000Y-118141701D01*
X74851507Y-118114960D01*
X75112581Y-118035764D01*
X75353188Y-117907157D01*
X75564081Y-117734081D01*
X75737157Y-117523188D01*
X75865764Y-117282580D01*
X75944960Y-117021506D01*
X75965000Y-116818036D01*
X75965000Y-116181963D01*
X75944960Y-115978493D01*
X75865764Y-115717419D01*
X75737157Y-115476812D01*
X75564080Y-115265919D01*
X75438803Y-115163106D01*
X75580269Y-115057588D01*
X75775178Y-114841355D01*
X75924157Y-114591252D01*
X76021481Y-114316891D01*
X75900814Y-114087000D01*
X74707000Y-114087000D01*
X74707000Y-114107000D01*
X74453000Y-114107000D01*
X74453000Y-114087000D01*
X74433000Y-114087000D01*
X74433000Y-113833000D01*
X74453000Y-113833000D01*
X74453000Y-112639845D01*
X74707000Y-112639845D01*
X74707000Y-113833000D01*
X75900814Y-113833000D01*
X76021481Y-113603109D01*
X75924157Y-113328748D01*
X75775178Y-113078645D01*
X75580269Y-112862412D01*
X75346920Y-112688359D01*
X75084099Y-112563175D01*
X74936890Y-112518524D01*
X74707000Y-112639845D01*
X74453000Y-112639845D01*
X74223110Y-112518524D01*
X74075901Y-112563175D01*
X73813080Y-112688359D01*
X73579731Y-112862412D01*
X73384822Y-113078645D01*
X73315195Y-113195534D01*
X73193475Y-113013368D01*
X72986632Y-112806525D01*
X72743411Y-112644010D01*
X72473158Y-112532068D01*
X72186260Y-112475000D01*
X71893740Y-112475000D01*
X71606842Y-112532068D01*
X71336589Y-112644010D01*
X71093368Y-112806525D01*
X70886525Y-113013368D01*
X70831903Y-113095115D01*
X70734081Y-112975919D01*
X70523188Y-112802843D01*
X70282581Y-112674236D01*
X70021507Y-112595040D01*
X69818037Y-112575000D01*
X69181963Y-112575000D01*
X68978493Y-112595040D01*
X68717419Y-112674236D01*
X68476812Y-112802843D01*
X68265919Y-112975919D01*
X68092843Y-113186812D01*
X67964236Y-113427419D01*
X67885040Y-113688493D01*
X67858299Y-113960000D01*
X62418136Y-113960000D01*
X62156566Y-113785225D01*
X61804419Y-113639361D01*
X61430581Y-113565000D01*
X61049419Y-113565000D01*
X60675581Y-113639361D01*
X60323434Y-113785225D01*
X60006509Y-113996987D01*
X59736987Y-114266509D01*
X59525225Y-114583434D01*
X59379361Y-114935581D01*
X59305000Y-115309419D01*
X58086232Y-115309419D01*
X58056457Y-115071049D01*
X57936333Y-114709310D01*
X57804312Y-114462317D01*
X57509224Y-114330381D01*
X56339605Y-115500000D01*
X55980395Y-115500000D01*
X54810776Y-114330381D01*
X54515688Y-114462317D01*
X54344841Y-114803045D01*
X54243750Y-115170557D01*
X54216299Y-115550729D01*
X53015000Y-115550729D01*
X53015000Y-115309419D01*
X52940639Y-114935581D01*
X52794775Y-114583434D01*
X52583013Y-114266509D01*
X52467280Y-114150776D01*
X54990381Y-114150776D01*
X56160000Y-115320395D01*
X57329619Y-114150776D01*
X57197683Y-113855688D01*
X56856955Y-113684841D01*
X56489443Y-113583750D01*
X56109271Y-113556299D01*
X55731049Y-113603543D01*
X55369310Y-113723667D01*
X55122317Y-113855688D01*
X54990381Y-114150776D01*
X52467280Y-114150776D01*
X52313491Y-113996987D01*
X51996566Y-113785225D01*
X51644419Y-113639361D01*
X51270581Y-113565000D01*
X50889419Y-113565000D01*
X50515581Y-113639361D01*
X50163434Y-113785225D01*
X49846509Y-113996987D01*
X49576987Y-114266509D01*
X49365225Y-114583434D01*
X49219361Y-114935581D01*
X49145000Y-115309419D01*
X47839831Y-115309419D01*
X47935000Y-115214250D01*
X47938072Y-114200000D01*
X47925812Y-114075518D01*
X47889502Y-113955820D01*
X47830537Y-113845506D01*
X47751185Y-113748815D01*
X47654494Y-113669463D01*
X47544180Y-113610498D01*
X47424482Y-113574188D01*
X47300000Y-113561928D01*
X46285750Y-113565000D01*
X46127000Y-113723750D01*
X45873000Y-113723750D01*
X45714250Y-113565000D01*
X44700000Y-113561928D01*
X44575518Y-113574188D01*
X44455820Y-113610498D01*
X44345506Y-113669463D01*
X44248815Y-113748815D01*
X44169463Y-113845506D01*
X44110498Y-113955820D01*
X44074188Y-114075518D01*
X44061928Y-114200000D01*
X39516504Y-114200000D01*
X39313491Y-113996987D01*
X38996566Y-113785225D01*
X38644419Y-113639361D01*
X38270581Y-113565000D01*
X37889419Y-113565000D01*
X37515581Y-113639361D01*
X37163434Y-113785225D01*
X36846509Y-113996987D01*
X36576987Y-114266509D01*
X36365225Y-114583434D01*
X36219361Y-114935581D01*
X36145000Y-115309419D01*
X34839831Y-115309419D01*
X34935000Y-115214250D01*
X34938072Y-114200000D01*
X34925812Y-114075518D01*
X34889502Y-113955820D01*
X34830537Y-113845506D01*
X34751185Y-113748815D01*
X34654494Y-113669463D01*
X34544180Y-113610498D01*
X34424482Y-113574188D01*
X34300000Y-113561928D01*
X33285750Y-113565000D01*
X33127000Y-113723750D01*
X32873000Y-113723750D01*
X32714250Y-113565000D01*
X31700000Y-113561928D01*
X31575518Y-113574188D01*
X31455820Y-113610498D01*
X31345506Y-113669463D01*
X31248815Y-113748815D01*
X31169463Y-113845506D01*
X31110498Y-113955820D01*
X31074188Y-114075518D01*
X31061928Y-114200000D01*
X29660000Y-114200000D01*
X29660000Y-109660000D01*
X78340001Y-109660000D01*
X78340000Y-158340000D01*
M02*
