M48
; DRILL file {KiCad 5.1.5-52549c5~84~ubuntu18.04.1} date Pi  3. január 2020, 01:36:52 CET
; FORMAT={-:-/ absolute / metric / decimal}
; #@! TF.CreationDate,2020-01-03T01:36:52+01:00
; #@! TF.GenerationSoftware,Kicad,Pcbnew,5.1.5-52549c5~84~ubuntu18.04.1
FMAT,2
METRIC
T1C0.400
T2C1.000
T3C1.300
%
G90
G05
T1
X32.562Y-143.438
X32.562Y-144.438
X32.562Y-145.438
X36.5Y-141.25
X36.5Y-142.25
X36.5Y-143.25
X47.0Y-139.75
X51.0Y-141.25
X51.0Y-142.25
X51.75Y-141.75
X55.0Y-143.5
X55.5Y-144.25
X55.5Y-150.0
X56.0Y-143.5
X57.25Y-127.0
X58.75Y-123.5
X60.5Y-139.75
X63.5Y-135.5
X65.5Y-141.25
T2
X33.5Y-155.5
X36.04Y-155.5
X38.58Y-155.5
X41.12Y-155.5
X43.66Y-155.5
X46.2Y-155.5
X69.5Y-113.96
X69.5Y-116.5
X72.04Y-113.96
X72.04Y-116.5
X74.58Y-113.96
X74.58Y-116.5
X65.5Y-150.42
X65.5Y-155.5
X68.04Y-150.42
X68.04Y-155.5
X75.66Y-150.42
X75.66Y-155.5
T3
X46.0Y-115.5
X51.08Y-115.5
X56.16Y-115.5
X61.24Y-115.5
X72.5Y-135.0
X72.5Y-140.08
X72.5Y-145.16
X33.0Y-115.5
X38.08Y-115.5
T0
M30
