G04 #@! TF.GenerationSoftware,KiCad,Pcbnew,5.1.5-52549c5~84~ubuntu18.04.1*
G04 #@! TF.CreationDate,2020-01-03T01:36:26+01:00*
G04 #@! TF.ProjectId,presen-fsr,70726573-656e-42d6-9673-722e6b696361,0*
G04 #@! TF.SameCoordinates,Original*
G04 #@! TF.FileFunction,Paste,Top*
G04 #@! TF.FilePolarity,Positive*
%FSLAX46Y46*%
G04 Gerber Fmt 4.6, Leading zero omitted, Abs format (unit mm)*
G04 Created by KiCad (PCBNEW 5.1.5-52549c5~84~ubuntu18.04.1) date 2020-01-03 01:36:26*
%MOMM*%
%LPD*%
G04 APERTURE LIST*
%ADD10C,0.100000*%
%ADD11R,1.600000X0.550000*%
%ADD12R,0.550000X1.600000*%
%ADD13R,3.050000X2.750000*%
%ADD14R,2.200000X1.200000*%
%ADD15R,2.440000X1.120000*%
%ADD16R,0.900000X0.800000*%
G04 APERTURE END LIST*
D10*
G36*
X61029405Y-143251445D02*
G01*
X61058527Y-143255764D01*
X61087085Y-143262918D01*
X61114805Y-143272836D01*
X61141419Y-143285424D01*
X61166671Y-143300559D01*
X61190318Y-143318097D01*
X61212132Y-143337868D01*
X61231903Y-143359682D01*
X61249441Y-143383329D01*
X61264576Y-143408581D01*
X61277164Y-143435195D01*
X61287082Y-143462915D01*
X61294236Y-143491473D01*
X61298555Y-143520595D01*
X61300000Y-143550000D01*
X61300000Y-144150000D01*
X61298555Y-144179405D01*
X61294236Y-144208527D01*
X61287082Y-144237085D01*
X61277164Y-144264805D01*
X61264576Y-144291419D01*
X61249441Y-144316671D01*
X61231903Y-144340318D01*
X61212132Y-144362132D01*
X61190318Y-144381903D01*
X61166671Y-144399441D01*
X61141419Y-144414576D01*
X61114805Y-144427164D01*
X61087085Y-144437082D01*
X61058527Y-144444236D01*
X61029405Y-144448555D01*
X61000000Y-144450000D01*
X60200000Y-144450000D01*
X60170595Y-144448555D01*
X60141473Y-144444236D01*
X60112915Y-144437082D01*
X60085195Y-144427164D01*
X60058581Y-144414576D01*
X60033329Y-144399441D01*
X60009682Y-144381903D01*
X59987868Y-144362132D01*
X59968097Y-144340318D01*
X59950559Y-144316671D01*
X59935424Y-144291419D01*
X59922836Y-144264805D01*
X59912918Y-144237085D01*
X59905764Y-144208527D01*
X59901445Y-144179405D01*
X59900000Y-144150000D01*
X59900000Y-143550000D01*
X59901445Y-143520595D01*
X59905764Y-143491473D01*
X59912918Y-143462915D01*
X59922836Y-143435195D01*
X59935424Y-143408581D01*
X59950559Y-143383329D01*
X59968097Y-143359682D01*
X59987868Y-143337868D01*
X60009682Y-143318097D01*
X60033329Y-143300559D01*
X60058581Y-143285424D01*
X60085195Y-143272836D01*
X60112915Y-143262918D01*
X60141473Y-143255764D01*
X60170595Y-143251445D01*
X60200000Y-143250000D01*
X61000000Y-143250000D01*
X61029405Y-143251445D01*
G37*
G36*
X58829405Y-143251445D02*
G01*
X58858527Y-143255764D01*
X58887085Y-143262918D01*
X58914805Y-143272836D01*
X58941419Y-143285424D01*
X58966671Y-143300559D01*
X58990318Y-143318097D01*
X59012132Y-143337868D01*
X59031903Y-143359682D01*
X59049441Y-143383329D01*
X59064576Y-143408581D01*
X59077164Y-143435195D01*
X59087082Y-143462915D01*
X59094236Y-143491473D01*
X59098555Y-143520595D01*
X59100000Y-143550000D01*
X59100000Y-144150000D01*
X59098555Y-144179405D01*
X59094236Y-144208527D01*
X59087082Y-144237085D01*
X59077164Y-144264805D01*
X59064576Y-144291419D01*
X59049441Y-144316671D01*
X59031903Y-144340318D01*
X59012132Y-144362132D01*
X58990318Y-144381903D01*
X58966671Y-144399441D01*
X58941419Y-144414576D01*
X58914805Y-144427164D01*
X58887085Y-144437082D01*
X58858527Y-144444236D01*
X58829405Y-144448555D01*
X58800000Y-144450000D01*
X58000000Y-144450000D01*
X57970595Y-144448555D01*
X57941473Y-144444236D01*
X57912915Y-144437082D01*
X57885195Y-144427164D01*
X57858581Y-144414576D01*
X57833329Y-144399441D01*
X57809682Y-144381903D01*
X57787868Y-144362132D01*
X57768097Y-144340318D01*
X57750559Y-144316671D01*
X57735424Y-144291419D01*
X57722836Y-144264805D01*
X57712918Y-144237085D01*
X57705764Y-144208527D01*
X57701445Y-144179405D01*
X57700000Y-144150000D01*
X57700000Y-143550000D01*
X57701445Y-143520595D01*
X57705764Y-143491473D01*
X57712918Y-143462915D01*
X57722836Y-143435195D01*
X57735424Y-143408581D01*
X57750559Y-143383329D01*
X57768097Y-143359682D01*
X57787868Y-143337868D01*
X57809682Y-143318097D01*
X57833329Y-143300559D01*
X57858581Y-143285424D01*
X57885195Y-143272836D01*
X57912915Y-143262918D01*
X57941473Y-143255764D01*
X57970595Y-143251445D01*
X58000000Y-143250000D01*
X58800000Y-143250000D01*
X58829405Y-143251445D01*
G37*
G36*
X58829405Y-141551445D02*
G01*
X58858527Y-141555764D01*
X58887085Y-141562918D01*
X58914805Y-141572836D01*
X58941419Y-141585424D01*
X58966671Y-141600559D01*
X58990318Y-141618097D01*
X59012132Y-141637868D01*
X59031903Y-141659682D01*
X59049441Y-141683329D01*
X59064576Y-141708581D01*
X59077164Y-141735195D01*
X59087082Y-141762915D01*
X59094236Y-141791473D01*
X59098555Y-141820595D01*
X59100000Y-141850000D01*
X59100000Y-142450000D01*
X59098555Y-142479405D01*
X59094236Y-142508527D01*
X59087082Y-142537085D01*
X59077164Y-142564805D01*
X59064576Y-142591419D01*
X59049441Y-142616671D01*
X59031903Y-142640318D01*
X59012132Y-142662132D01*
X58990318Y-142681903D01*
X58966671Y-142699441D01*
X58941419Y-142714576D01*
X58914805Y-142727164D01*
X58887085Y-142737082D01*
X58858527Y-142744236D01*
X58829405Y-142748555D01*
X58800000Y-142750000D01*
X58000000Y-142750000D01*
X57970595Y-142748555D01*
X57941473Y-142744236D01*
X57912915Y-142737082D01*
X57885195Y-142727164D01*
X57858581Y-142714576D01*
X57833329Y-142699441D01*
X57809682Y-142681903D01*
X57787868Y-142662132D01*
X57768097Y-142640318D01*
X57750559Y-142616671D01*
X57735424Y-142591419D01*
X57722836Y-142564805D01*
X57712918Y-142537085D01*
X57705764Y-142508527D01*
X57701445Y-142479405D01*
X57700000Y-142450000D01*
X57700000Y-141850000D01*
X57701445Y-141820595D01*
X57705764Y-141791473D01*
X57712918Y-141762915D01*
X57722836Y-141735195D01*
X57735424Y-141708581D01*
X57750559Y-141683329D01*
X57768097Y-141659682D01*
X57787868Y-141637868D01*
X57809682Y-141618097D01*
X57833329Y-141600559D01*
X57858581Y-141585424D01*
X57885195Y-141572836D01*
X57912915Y-141562918D01*
X57941473Y-141555764D01*
X57970595Y-141551445D01*
X58000000Y-141550000D01*
X58800000Y-141550000D01*
X58829405Y-141551445D01*
G37*
G36*
X61029405Y-141551445D02*
G01*
X61058527Y-141555764D01*
X61087085Y-141562918D01*
X61114805Y-141572836D01*
X61141419Y-141585424D01*
X61166671Y-141600559D01*
X61190318Y-141618097D01*
X61212132Y-141637868D01*
X61231903Y-141659682D01*
X61249441Y-141683329D01*
X61264576Y-141708581D01*
X61277164Y-141735195D01*
X61287082Y-141762915D01*
X61294236Y-141791473D01*
X61298555Y-141820595D01*
X61300000Y-141850000D01*
X61300000Y-142450000D01*
X61298555Y-142479405D01*
X61294236Y-142508527D01*
X61287082Y-142537085D01*
X61277164Y-142564805D01*
X61264576Y-142591419D01*
X61249441Y-142616671D01*
X61231903Y-142640318D01*
X61212132Y-142662132D01*
X61190318Y-142681903D01*
X61166671Y-142699441D01*
X61141419Y-142714576D01*
X61114805Y-142727164D01*
X61087085Y-142737082D01*
X61058527Y-142744236D01*
X61029405Y-142748555D01*
X61000000Y-142750000D01*
X60200000Y-142750000D01*
X60170595Y-142748555D01*
X60141473Y-142744236D01*
X60112915Y-142737082D01*
X60085195Y-142727164D01*
X60058581Y-142714576D01*
X60033329Y-142699441D01*
X60009682Y-142681903D01*
X59987868Y-142662132D01*
X59968097Y-142640318D01*
X59950559Y-142616671D01*
X59935424Y-142591419D01*
X59922836Y-142564805D01*
X59912918Y-142537085D01*
X59905764Y-142508527D01*
X59901445Y-142479405D01*
X59900000Y-142450000D01*
X59900000Y-141850000D01*
X59901445Y-141820595D01*
X59905764Y-141791473D01*
X59912918Y-141762915D01*
X59922836Y-141735195D01*
X59935424Y-141708581D01*
X59950559Y-141683329D01*
X59968097Y-141659682D01*
X59987868Y-141637868D01*
X60009682Y-141618097D01*
X60033329Y-141600559D01*
X60058581Y-141585424D01*
X60085195Y-141572836D01*
X60112915Y-141562918D01*
X60141473Y-141555764D01*
X60170595Y-141551445D01*
X60200000Y-141550000D01*
X61000000Y-141550000D01*
X61029405Y-141551445D01*
G37*
D11*
X50750000Y-138300000D03*
X50750000Y-137500000D03*
X50750000Y-136700000D03*
X50750000Y-135900000D03*
X50750000Y-135100000D03*
X50750000Y-134300000D03*
X50750000Y-133500000D03*
X50750000Y-132700000D03*
D12*
X52200000Y-131250000D03*
X53000000Y-131250000D03*
X53800000Y-131250000D03*
X54600000Y-131250000D03*
X55400000Y-131250000D03*
X56200000Y-131250000D03*
X57000000Y-131250000D03*
X57800000Y-131250000D03*
D11*
X59250000Y-132700000D03*
X59250000Y-133500000D03*
X59250000Y-134300000D03*
X59250000Y-135100000D03*
X59250000Y-135900000D03*
X59250000Y-136700000D03*
X59250000Y-137500000D03*
X59250000Y-138300000D03*
D12*
X57800000Y-139750000D03*
X57000000Y-139750000D03*
X56200000Y-139750000D03*
X55400000Y-139750000D03*
X54600000Y-139750000D03*
X53800000Y-139750000D03*
X53000000Y-139750000D03*
X52200000Y-139750000D03*
D13*
X36925000Y-136025000D03*
X40275000Y-132975000D03*
X36925000Y-132975000D03*
X40275000Y-136025000D03*
D14*
X32300000Y-136780000D03*
X32300000Y-132220000D03*
D15*
X76805000Y-123960000D03*
X68195000Y-129040000D03*
X76805000Y-126500000D03*
X68195000Y-126500000D03*
X76805000Y-129040000D03*
X68195000Y-123960000D03*
D10*
G36*
X55324505Y-122801204D02*
G01*
X55348773Y-122804804D01*
X55372572Y-122810765D01*
X55395671Y-122819030D01*
X55417850Y-122829520D01*
X55438893Y-122842132D01*
X55458599Y-122856747D01*
X55476777Y-122873223D01*
X55493253Y-122891401D01*
X55507868Y-122911107D01*
X55520480Y-122932150D01*
X55530970Y-122954329D01*
X55539235Y-122977428D01*
X55545196Y-123001227D01*
X55548796Y-123025495D01*
X55550000Y-123049999D01*
X55550000Y-123950001D01*
X55548796Y-123974505D01*
X55545196Y-123998773D01*
X55539235Y-124022572D01*
X55530970Y-124045671D01*
X55520480Y-124067850D01*
X55507868Y-124088893D01*
X55493253Y-124108599D01*
X55476777Y-124126777D01*
X55458599Y-124143253D01*
X55438893Y-124157868D01*
X55417850Y-124170480D01*
X55395671Y-124180970D01*
X55372572Y-124189235D01*
X55348773Y-124195196D01*
X55324505Y-124198796D01*
X55300001Y-124200000D01*
X54649999Y-124200000D01*
X54625495Y-124198796D01*
X54601227Y-124195196D01*
X54577428Y-124189235D01*
X54554329Y-124180970D01*
X54532150Y-124170480D01*
X54511107Y-124157868D01*
X54491401Y-124143253D01*
X54473223Y-124126777D01*
X54456747Y-124108599D01*
X54442132Y-124088893D01*
X54429520Y-124067850D01*
X54419030Y-124045671D01*
X54410765Y-124022572D01*
X54404804Y-123998773D01*
X54401204Y-123974505D01*
X54400000Y-123950001D01*
X54400000Y-123049999D01*
X54401204Y-123025495D01*
X54404804Y-123001227D01*
X54410765Y-122977428D01*
X54419030Y-122954329D01*
X54429520Y-122932150D01*
X54442132Y-122911107D01*
X54456747Y-122891401D01*
X54473223Y-122873223D01*
X54491401Y-122856747D01*
X54511107Y-122842132D01*
X54532150Y-122829520D01*
X54554329Y-122819030D01*
X54577428Y-122810765D01*
X54601227Y-122804804D01*
X54625495Y-122801204D01*
X54649999Y-122800000D01*
X55300001Y-122800000D01*
X55324505Y-122801204D01*
G37*
G36*
X57374505Y-122801204D02*
G01*
X57398773Y-122804804D01*
X57422572Y-122810765D01*
X57445671Y-122819030D01*
X57467850Y-122829520D01*
X57488893Y-122842132D01*
X57508599Y-122856747D01*
X57526777Y-122873223D01*
X57543253Y-122891401D01*
X57557868Y-122911107D01*
X57570480Y-122932150D01*
X57580970Y-122954329D01*
X57589235Y-122977428D01*
X57595196Y-123001227D01*
X57598796Y-123025495D01*
X57600000Y-123049999D01*
X57600000Y-123950001D01*
X57598796Y-123974505D01*
X57595196Y-123998773D01*
X57589235Y-124022572D01*
X57580970Y-124045671D01*
X57570480Y-124067850D01*
X57557868Y-124088893D01*
X57543253Y-124108599D01*
X57526777Y-124126777D01*
X57508599Y-124143253D01*
X57488893Y-124157868D01*
X57467850Y-124170480D01*
X57445671Y-124180970D01*
X57422572Y-124189235D01*
X57398773Y-124195196D01*
X57374505Y-124198796D01*
X57350001Y-124200000D01*
X56699999Y-124200000D01*
X56675495Y-124198796D01*
X56651227Y-124195196D01*
X56627428Y-124189235D01*
X56604329Y-124180970D01*
X56582150Y-124170480D01*
X56561107Y-124157868D01*
X56541401Y-124143253D01*
X56523223Y-124126777D01*
X56506747Y-124108599D01*
X56492132Y-124088893D01*
X56479520Y-124067850D01*
X56469030Y-124045671D01*
X56460765Y-124022572D01*
X56454804Y-123998773D01*
X56451204Y-123974505D01*
X56450000Y-123950001D01*
X56450000Y-123049999D01*
X56451204Y-123025495D01*
X56454804Y-123001227D01*
X56460765Y-122977428D01*
X56469030Y-122954329D01*
X56479520Y-122932150D01*
X56492132Y-122911107D01*
X56506747Y-122891401D01*
X56523223Y-122873223D01*
X56541401Y-122856747D01*
X56561107Y-122842132D01*
X56582150Y-122829520D01*
X56604329Y-122819030D01*
X56627428Y-122810765D01*
X56651227Y-122804804D01*
X56675495Y-122801204D01*
X56699999Y-122800000D01*
X57350001Y-122800000D01*
X57374505Y-122801204D01*
G37*
G36*
X58324505Y-120801204D02*
G01*
X58348773Y-120804804D01*
X58372572Y-120810765D01*
X58395671Y-120819030D01*
X58417850Y-120829520D01*
X58438893Y-120842132D01*
X58458599Y-120856747D01*
X58476777Y-120873223D01*
X58493253Y-120891401D01*
X58507868Y-120911107D01*
X58520480Y-120932150D01*
X58530970Y-120954329D01*
X58539235Y-120977428D01*
X58545196Y-121001227D01*
X58548796Y-121025495D01*
X58550000Y-121049999D01*
X58550000Y-121950001D01*
X58548796Y-121974505D01*
X58545196Y-121998773D01*
X58539235Y-122022572D01*
X58530970Y-122045671D01*
X58520480Y-122067850D01*
X58507868Y-122088893D01*
X58493253Y-122108599D01*
X58476777Y-122126777D01*
X58458599Y-122143253D01*
X58438893Y-122157868D01*
X58417850Y-122170480D01*
X58395671Y-122180970D01*
X58372572Y-122189235D01*
X58348773Y-122195196D01*
X58324505Y-122198796D01*
X58300001Y-122200000D01*
X57649999Y-122200000D01*
X57625495Y-122198796D01*
X57601227Y-122195196D01*
X57577428Y-122189235D01*
X57554329Y-122180970D01*
X57532150Y-122170480D01*
X57511107Y-122157868D01*
X57491401Y-122143253D01*
X57473223Y-122126777D01*
X57456747Y-122108599D01*
X57442132Y-122088893D01*
X57429520Y-122067850D01*
X57419030Y-122045671D01*
X57410765Y-122022572D01*
X57404804Y-121998773D01*
X57401204Y-121974505D01*
X57400000Y-121950001D01*
X57400000Y-121049999D01*
X57401204Y-121025495D01*
X57404804Y-121001227D01*
X57410765Y-120977428D01*
X57419030Y-120954329D01*
X57429520Y-120932150D01*
X57442132Y-120911107D01*
X57456747Y-120891401D01*
X57473223Y-120873223D01*
X57491401Y-120856747D01*
X57511107Y-120842132D01*
X57532150Y-120829520D01*
X57554329Y-120819030D01*
X57577428Y-120810765D01*
X57601227Y-120804804D01*
X57625495Y-120801204D01*
X57649999Y-120800000D01*
X58300001Y-120800000D01*
X58324505Y-120801204D01*
G37*
G36*
X60374505Y-120801204D02*
G01*
X60398773Y-120804804D01*
X60422572Y-120810765D01*
X60445671Y-120819030D01*
X60467850Y-120829520D01*
X60488893Y-120842132D01*
X60508599Y-120856747D01*
X60526777Y-120873223D01*
X60543253Y-120891401D01*
X60557868Y-120911107D01*
X60570480Y-120932150D01*
X60580970Y-120954329D01*
X60589235Y-120977428D01*
X60595196Y-121001227D01*
X60598796Y-121025495D01*
X60600000Y-121049999D01*
X60600000Y-121950001D01*
X60598796Y-121974505D01*
X60595196Y-121998773D01*
X60589235Y-122022572D01*
X60580970Y-122045671D01*
X60570480Y-122067850D01*
X60557868Y-122088893D01*
X60543253Y-122108599D01*
X60526777Y-122126777D01*
X60508599Y-122143253D01*
X60488893Y-122157868D01*
X60467850Y-122170480D01*
X60445671Y-122180970D01*
X60422572Y-122189235D01*
X60398773Y-122195196D01*
X60374505Y-122198796D01*
X60350001Y-122200000D01*
X59699999Y-122200000D01*
X59675495Y-122198796D01*
X59651227Y-122195196D01*
X59627428Y-122189235D01*
X59604329Y-122180970D01*
X59582150Y-122170480D01*
X59561107Y-122157868D01*
X59541401Y-122143253D01*
X59523223Y-122126777D01*
X59506747Y-122108599D01*
X59492132Y-122088893D01*
X59479520Y-122067850D01*
X59469030Y-122045671D01*
X59460765Y-122022572D01*
X59454804Y-121998773D01*
X59451204Y-121974505D01*
X59450000Y-121950001D01*
X59450000Y-121049999D01*
X59451204Y-121025495D01*
X59454804Y-121001227D01*
X59460765Y-120977428D01*
X59469030Y-120954329D01*
X59479520Y-120932150D01*
X59492132Y-120911107D01*
X59506747Y-120891401D01*
X59523223Y-120873223D01*
X59541401Y-120856747D01*
X59561107Y-120842132D01*
X59582150Y-120829520D01*
X59604329Y-120819030D01*
X59627428Y-120810765D01*
X59651227Y-120804804D01*
X59675495Y-120801204D01*
X59699999Y-120800000D01*
X60350001Y-120800000D01*
X60374505Y-120801204D01*
G37*
G36*
X59474505Y-149901204D02*
G01*
X59498773Y-149904804D01*
X59522572Y-149910765D01*
X59545671Y-149919030D01*
X59567850Y-149929520D01*
X59588893Y-149942132D01*
X59608599Y-149956747D01*
X59626777Y-149973223D01*
X59643253Y-149991401D01*
X59657868Y-150011107D01*
X59670480Y-150032150D01*
X59680970Y-150054329D01*
X59689235Y-150077428D01*
X59695196Y-150101227D01*
X59698796Y-150125495D01*
X59700000Y-150149999D01*
X59700000Y-150800001D01*
X59698796Y-150824505D01*
X59695196Y-150848773D01*
X59689235Y-150872572D01*
X59680970Y-150895671D01*
X59670480Y-150917850D01*
X59657868Y-150938893D01*
X59643253Y-150958599D01*
X59626777Y-150976777D01*
X59608599Y-150993253D01*
X59588893Y-151007868D01*
X59567850Y-151020480D01*
X59545671Y-151030970D01*
X59522572Y-151039235D01*
X59498773Y-151045196D01*
X59474505Y-151048796D01*
X59450001Y-151050000D01*
X58549999Y-151050000D01*
X58525495Y-151048796D01*
X58501227Y-151045196D01*
X58477428Y-151039235D01*
X58454329Y-151030970D01*
X58432150Y-151020480D01*
X58411107Y-151007868D01*
X58391401Y-150993253D01*
X58373223Y-150976777D01*
X58356747Y-150958599D01*
X58342132Y-150938893D01*
X58329520Y-150917850D01*
X58319030Y-150895671D01*
X58310765Y-150872572D01*
X58304804Y-150848773D01*
X58301204Y-150824505D01*
X58300000Y-150800001D01*
X58300000Y-150149999D01*
X58301204Y-150125495D01*
X58304804Y-150101227D01*
X58310765Y-150077428D01*
X58319030Y-150054329D01*
X58329520Y-150032150D01*
X58342132Y-150011107D01*
X58356747Y-149991401D01*
X58373223Y-149973223D01*
X58391401Y-149956747D01*
X58411107Y-149942132D01*
X58432150Y-149929520D01*
X58454329Y-149919030D01*
X58477428Y-149910765D01*
X58501227Y-149904804D01*
X58525495Y-149901204D01*
X58549999Y-149900000D01*
X59450001Y-149900000D01*
X59474505Y-149901204D01*
G37*
G36*
X59474505Y-151951204D02*
G01*
X59498773Y-151954804D01*
X59522572Y-151960765D01*
X59545671Y-151969030D01*
X59567850Y-151979520D01*
X59588893Y-151992132D01*
X59608599Y-152006747D01*
X59626777Y-152023223D01*
X59643253Y-152041401D01*
X59657868Y-152061107D01*
X59670480Y-152082150D01*
X59680970Y-152104329D01*
X59689235Y-152127428D01*
X59695196Y-152151227D01*
X59698796Y-152175495D01*
X59700000Y-152199999D01*
X59700000Y-152850001D01*
X59698796Y-152874505D01*
X59695196Y-152898773D01*
X59689235Y-152922572D01*
X59680970Y-152945671D01*
X59670480Y-152967850D01*
X59657868Y-152988893D01*
X59643253Y-153008599D01*
X59626777Y-153026777D01*
X59608599Y-153043253D01*
X59588893Y-153057868D01*
X59567850Y-153070480D01*
X59545671Y-153080970D01*
X59522572Y-153089235D01*
X59498773Y-153095196D01*
X59474505Y-153098796D01*
X59450001Y-153100000D01*
X58549999Y-153100000D01*
X58525495Y-153098796D01*
X58501227Y-153095196D01*
X58477428Y-153089235D01*
X58454329Y-153080970D01*
X58432150Y-153070480D01*
X58411107Y-153057868D01*
X58391401Y-153043253D01*
X58373223Y-153026777D01*
X58356747Y-153008599D01*
X58342132Y-152988893D01*
X58329520Y-152967850D01*
X58319030Y-152945671D01*
X58310765Y-152922572D01*
X58304804Y-152898773D01*
X58301204Y-152874505D01*
X58300000Y-152850001D01*
X58300000Y-152199999D01*
X58301204Y-152175495D01*
X58304804Y-152151227D01*
X58310765Y-152127428D01*
X58319030Y-152104329D01*
X58329520Y-152082150D01*
X58342132Y-152061107D01*
X58356747Y-152041401D01*
X58373223Y-152023223D01*
X58391401Y-152006747D01*
X58411107Y-151992132D01*
X58432150Y-151979520D01*
X58454329Y-151969030D01*
X58477428Y-151960765D01*
X58501227Y-151954804D01*
X58525495Y-151951204D01*
X58549999Y-151950000D01*
X59450001Y-151950000D01*
X59474505Y-151951204D01*
G37*
G36*
X58824505Y-128301204D02*
G01*
X58848773Y-128304804D01*
X58872572Y-128310765D01*
X58895671Y-128319030D01*
X58917850Y-128329520D01*
X58938893Y-128342132D01*
X58958599Y-128356747D01*
X58976777Y-128373223D01*
X58993253Y-128391401D01*
X59007868Y-128411107D01*
X59020480Y-128432150D01*
X59030970Y-128454329D01*
X59039235Y-128477428D01*
X59045196Y-128501227D01*
X59048796Y-128525495D01*
X59050000Y-128549999D01*
X59050000Y-129450001D01*
X59048796Y-129474505D01*
X59045196Y-129498773D01*
X59039235Y-129522572D01*
X59030970Y-129545671D01*
X59020480Y-129567850D01*
X59007868Y-129588893D01*
X58993253Y-129608599D01*
X58976777Y-129626777D01*
X58958599Y-129643253D01*
X58938893Y-129657868D01*
X58917850Y-129670480D01*
X58895671Y-129680970D01*
X58872572Y-129689235D01*
X58848773Y-129695196D01*
X58824505Y-129698796D01*
X58800001Y-129700000D01*
X58149999Y-129700000D01*
X58125495Y-129698796D01*
X58101227Y-129695196D01*
X58077428Y-129689235D01*
X58054329Y-129680970D01*
X58032150Y-129670480D01*
X58011107Y-129657868D01*
X57991401Y-129643253D01*
X57973223Y-129626777D01*
X57956747Y-129608599D01*
X57942132Y-129588893D01*
X57929520Y-129567850D01*
X57919030Y-129545671D01*
X57910765Y-129522572D01*
X57904804Y-129498773D01*
X57901204Y-129474505D01*
X57900000Y-129450001D01*
X57900000Y-128549999D01*
X57901204Y-128525495D01*
X57904804Y-128501227D01*
X57910765Y-128477428D01*
X57919030Y-128454329D01*
X57929520Y-128432150D01*
X57942132Y-128411107D01*
X57956747Y-128391401D01*
X57973223Y-128373223D01*
X57991401Y-128356747D01*
X58011107Y-128342132D01*
X58032150Y-128329520D01*
X58054329Y-128319030D01*
X58077428Y-128310765D01*
X58101227Y-128304804D01*
X58125495Y-128301204D01*
X58149999Y-128300000D01*
X58800001Y-128300000D01*
X58824505Y-128301204D01*
G37*
G36*
X60874505Y-128301204D02*
G01*
X60898773Y-128304804D01*
X60922572Y-128310765D01*
X60945671Y-128319030D01*
X60967850Y-128329520D01*
X60988893Y-128342132D01*
X61008599Y-128356747D01*
X61026777Y-128373223D01*
X61043253Y-128391401D01*
X61057868Y-128411107D01*
X61070480Y-128432150D01*
X61080970Y-128454329D01*
X61089235Y-128477428D01*
X61095196Y-128501227D01*
X61098796Y-128525495D01*
X61100000Y-128549999D01*
X61100000Y-129450001D01*
X61098796Y-129474505D01*
X61095196Y-129498773D01*
X61089235Y-129522572D01*
X61080970Y-129545671D01*
X61070480Y-129567850D01*
X61057868Y-129588893D01*
X61043253Y-129608599D01*
X61026777Y-129626777D01*
X61008599Y-129643253D01*
X60988893Y-129657868D01*
X60967850Y-129670480D01*
X60945671Y-129680970D01*
X60922572Y-129689235D01*
X60898773Y-129695196D01*
X60874505Y-129698796D01*
X60850001Y-129700000D01*
X60199999Y-129700000D01*
X60175495Y-129698796D01*
X60151227Y-129695196D01*
X60127428Y-129689235D01*
X60104329Y-129680970D01*
X60082150Y-129670480D01*
X60061107Y-129657868D01*
X60041401Y-129643253D01*
X60023223Y-129626777D01*
X60006747Y-129608599D01*
X59992132Y-129588893D01*
X59979520Y-129567850D01*
X59969030Y-129545671D01*
X59960765Y-129522572D01*
X59954804Y-129498773D01*
X59951204Y-129474505D01*
X59950000Y-129450001D01*
X59950000Y-128549999D01*
X59951204Y-128525495D01*
X59954804Y-128501227D01*
X59960765Y-128477428D01*
X59969030Y-128454329D01*
X59979520Y-128432150D01*
X59992132Y-128411107D01*
X60006747Y-128391401D01*
X60023223Y-128373223D01*
X60041401Y-128356747D01*
X60061107Y-128342132D01*
X60082150Y-128329520D01*
X60104329Y-128319030D01*
X60127428Y-128310765D01*
X60151227Y-128304804D01*
X60175495Y-128301204D01*
X60199999Y-128300000D01*
X60850001Y-128300000D01*
X60874505Y-128301204D01*
G37*
G36*
X59374505Y-147801204D02*
G01*
X59398773Y-147804804D01*
X59422572Y-147810765D01*
X59445671Y-147819030D01*
X59467850Y-147829520D01*
X59488893Y-147842132D01*
X59508599Y-147856747D01*
X59526777Y-147873223D01*
X59543253Y-147891401D01*
X59557868Y-147911107D01*
X59570480Y-147932150D01*
X59580970Y-147954329D01*
X59589235Y-147977428D01*
X59595196Y-148001227D01*
X59598796Y-148025495D01*
X59600000Y-148049999D01*
X59600000Y-148950001D01*
X59598796Y-148974505D01*
X59595196Y-148998773D01*
X59589235Y-149022572D01*
X59580970Y-149045671D01*
X59570480Y-149067850D01*
X59557868Y-149088893D01*
X59543253Y-149108599D01*
X59526777Y-149126777D01*
X59508599Y-149143253D01*
X59488893Y-149157868D01*
X59467850Y-149170480D01*
X59445671Y-149180970D01*
X59422572Y-149189235D01*
X59398773Y-149195196D01*
X59374505Y-149198796D01*
X59350001Y-149200000D01*
X58699999Y-149200000D01*
X58675495Y-149198796D01*
X58651227Y-149195196D01*
X58627428Y-149189235D01*
X58604329Y-149180970D01*
X58582150Y-149170480D01*
X58561107Y-149157868D01*
X58541401Y-149143253D01*
X58523223Y-149126777D01*
X58506747Y-149108599D01*
X58492132Y-149088893D01*
X58479520Y-149067850D01*
X58469030Y-149045671D01*
X58460765Y-149022572D01*
X58454804Y-148998773D01*
X58451204Y-148974505D01*
X58450000Y-148950001D01*
X58450000Y-148049999D01*
X58451204Y-148025495D01*
X58454804Y-148001227D01*
X58460765Y-147977428D01*
X58469030Y-147954329D01*
X58479520Y-147932150D01*
X58492132Y-147911107D01*
X58506747Y-147891401D01*
X58523223Y-147873223D01*
X58541401Y-147856747D01*
X58561107Y-147842132D01*
X58582150Y-147829520D01*
X58604329Y-147819030D01*
X58627428Y-147810765D01*
X58651227Y-147804804D01*
X58675495Y-147801204D01*
X58699999Y-147800000D01*
X59350001Y-147800000D01*
X59374505Y-147801204D01*
G37*
G36*
X57324505Y-147801204D02*
G01*
X57348773Y-147804804D01*
X57372572Y-147810765D01*
X57395671Y-147819030D01*
X57417850Y-147829520D01*
X57438893Y-147842132D01*
X57458599Y-147856747D01*
X57476777Y-147873223D01*
X57493253Y-147891401D01*
X57507868Y-147911107D01*
X57520480Y-147932150D01*
X57530970Y-147954329D01*
X57539235Y-147977428D01*
X57545196Y-148001227D01*
X57548796Y-148025495D01*
X57550000Y-148049999D01*
X57550000Y-148950001D01*
X57548796Y-148974505D01*
X57545196Y-148998773D01*
X57539235Y-149022572D01*
X57530970Y-149045671D01*
X57520480Y-149067850D01*
X57507868Y-149088893D01*
X57493253Y-149108599D01*
X57476777Y-149126777D01*
X57458599Y-149143253D01*
X57438893Y-149157868D01*
X57417850Y-149170480D01*
X57395671Y-149180970D01*
X57372572Y-149189235D01*
X57348773Y-149195196D01*
X57324505Y-149198796D01*
X57300001Y-149200000D01*
X56649999Y-149200000D01*
X56625495Y-149198796D01*
X56601227Y-149195196D01*
X56577428Y-149189235D01*
X56554329Y-149180970D01*
X56532150Y-149170480D01*
X56511107Y-149157868D01*
X56491401Y-149143253D01*
X56473223Y-149126777D01*
X56456747Y-149108599D01*
X56442132Y-149088893D01*
X56429520Y-149067850D01*
X56419030Y-149045671D01*
X56410765Y-149022572D01*
X56404804Y-148998773D01*
X56401204Y-148974505D01*
X56400000Y-148950001D01*
X56400000Y-148049999D01*
X56401204Y-148025495D01*
X56404804Y-148001227D01*
X56410765Y-147977428D01*
X56419030Y-147954329D01*
X56429520Y-147932150D01*
X56442132Y-147911107D01*
X56456747Y-147891401D01*
X56473223Y-147873223D01*
X56491401Y-147856747D01*
X56511107Y-147842132D01*
X56532150Y-147829520D01*
X56554329Y-147819030D01*
X56577428Y-147810765D01*
X56601227Y-147804804D01*
X56625495Y-147801204D01*
X56649999Y-147800000D01*
X57300001Y-147800000D01*
X57324505Y-147801204D01*
G37*
G36*
X41474505Y-150401204D02*
G01*
X41498773Y-150404804D01*
X41522572Y-150410765D01*
X41545671Y-150419030D01*
X41567850Y-150429520D01*
X41588893Y-150442132D01*
X41608599Y-150456747D01*
X41626777Y-150473223D01*
X41643253Y-150491401D01*
X41657868Y-150511107D01*
X41670480Y-150532150D01*
X41680970Y-150554329D01*
X41689235Y-150577428D01*
X41695196Y-150601227D01*
X41698796Y-150625495D01*
X41700000Y-150649999D01*
X41700000Y-151300001D01*
X41698796Y-151324505D01*
X41695196Y-151348773D01*
X41689235Y-151372572D01*
X41680970Y-151395671D01*
X41670480Y-151417850D01*
X41657868Y-151438893D01*
X41643253Y-151458599D01*
X41626777Y-151476777D01*
X41608599Y-151493253D01*
X41588893Y-151507868D01*
X41567850Y-151520480D01*
X41545671Y-151530970D01*
X41522572Y-151539235D01*
X41498773Y-151545196D01*
X41474505Y-151548796D01*
X41450001Y-151550000D01*
X40549999Y-151550000D01*
X40525495Y-151548796D01*
X40501227Y-151545196D01*
X40477428Y-151539235D01*
X40454329Y-151530970D01*
X40432150Y-151520480D01*
X40411107Y-151507868D01*
X40391401Y-151493253D01*
X40373223Y-151476777D01*
X40356747Y-151458599D01*
X40342132Y-151438893D01*
X40329520Y-151417850D01*
X40319030Y-151395671D01*
X40310765Y-151372572D01*
X40304804Y-151348773D01*
X40301204Y-151324505D01*
X40300000Y-151300001D01*
X40300000Y-150649999D01*
X40301204Y-150625495D01*
X40304804Y-150601227D01*
X40310765Y-150577428D01*
X40319030Y-150554329D01*
X40329520Y-150532150D01*
X40342132Y-150511107D01*
X40356747Y-150491401D01*
X40373223Y-150473223D01*
X40391401Y-150456747D01*
X40411107Y-150442132D01*
X40432150Y-150429520D01*
X40454329Y-150419030D01*
X40477428Y-150410765D01*
X40501227Y-150404804D01*
X40525495Y-150401204D01*
X40549999Y-150400000D01*
X41450001Y-150400000D01*
X41474505Y-150401204D01*
G37*
G36*
X41474505Y-152451204D02*
G01*
X41498773Y-152454804D01*
X41522572Y-152460765D01*
X41545671Y-152469030D01*
X41567850Y-152479520D01*
X41588893Y-152492132D01*
X41608599Y-152506747D01*
X41626777Y-152523223D01*
X41643253Y-152541401D01*
X41657868Y-152561107D01*
X41670480Y-152582150D01*
X41680970Y-152604329D01*
X41689235Y-152627428D01*
X41695196Y-152651227D01*
X41698796Y-152675495D01*
X41700000Y-152699999D01*
X41700000Y-153350001D01*
X41698796Y-153374505D01*
X41695196Y-153398773D01*
X41689235Y-153422572D01*
X41680970Y-153445671D01*
X41670480Y-153467850D01*
X41657868Y-153488893D01*
X41643253Y-153508599D01*
X41626777Y-153526777D01*
X41608599Y-153543253D01*
X41588893Y-153557868D01*
X41567850Y-153570480D01*
X41545671Y-153580970D01*
X41522572Y-153589235D01*
X41498773Y-153595196D01*
X41474505Y-153598796D01*
X41450001Y-153600000D01*
X40549999Y-153600000D01*
X40525495Y-153598796D01*
X40501227Y-153595196D01*
X40477428Y-153589235D01*
X40454329Y-153580970D01*
X40432150Y-153570480D01*
X40411107Y-153557868D01*
X40391401Y-153543253D01*
X40373223Y-153526777D01*
X40356747Y-153508599D01*
X40342132Y-153488893D01*
X40329520Y-153467850D01*
X40319030Y-153445671D01*
X40310765Y-153422572D01*
X40304804Y-153398773D01*
X40301204Y-153374505D01*
X40300000Y-153350001D01*
X40300000Y-152699999D01*
X40301204Y-152675495D01*
X40304804Y-152651227D01*
X40310765Y-152627428D01*
X40319030Y-152604329D01*
X40329520Y-152582150D01*
X40342132Y-152561107D01*
X40356747Y-152541401D01*
X40373223Y-152523223D01*
X40391401Y-152506747D01*
X40411107Y-152492132D01*
X40432150Y-152479520D01*
X40454329Y-152469030D01*
X40477428Y-152460765D01*
X40501227Y-152454804D01*
X40525495Y-152451204D01*
X40549999Y-152450000D01*
X41450001Y-152450000D01*
X41474505Y-152451204D01*
G37*
G36*
X43974505Y-150401204D02*
G01*
X43998773Y-150404804D01*
X44022572Y-150410765D01*
X44045671Y-150419030D01*
X44067850Y-150429520D01*
X44088893Y-150442132D01*
X44108599Y-150456747D01*
X44126777Y-150473223D01*
X44143253Y-150491401D01*
X44157868Y-150511107D01*
X44170480Y-150532150D01*
X44180970Y-150554329D01*
X44189235Y-150577428D01*
X44195196Y-150601227D01*
X44198796Y-150625495D01*
X44200000Y-150649999D01*
X44200000Y-151300001D01*
X44198796Y-151324505D01*
X44195196Y-151348773D01*
X44189235Y-151372572D01*
X44180970Y-151395671D01*
X44170480Y-151417850D01*
X44157868Y-151438893D01*
X44143253Y-151458599D01*
X44126777Y-151476777D01*
X44108599Y-151493253D01*
X44088893Y-151507868D01*
X44067850Y-151520480D01*
X44045671Y-151530970D01*
X44022572Y-151539235D01*
X43998773Y-151545196D01*
X43974505Y-151548796D01*
X43950001Y-151550000D01*
X43049999Y-151550000D01*
X43025495Y-151548796D01*
X43001227Y-151545196D01*
X42977428Y-151539235D01*
X42954329Y-151530970D01*
X42932150Y-151520480D01*
X42911107Y-151507868D01*
X42891401Y-151493253D01*
X42873223Y-151476777D01*
X42856747Y-151458599D01*
X42842132Y-151438893D01*
X42829520Y-151417850D01*
X42819030Y-151395671D01*
X42810765Y-151372572D01*
X42804804Y-151348773D01*
X42801204Y-151324505D01*
X42800000Y-151300001D01*
X42800000Y-150649999D01*
X42801204Y-150625495D01*
X42804804Y-150601227D01*
X42810765Y-150577428D01*
X42819030Y-150554329D01*
X42829520Y-150532150D01*
X42842132Y-150511107D01*
X42856747Y-150491401D01*
X42873223Y-150473223D01*
X42891401Y-150456747D01*
X42911107Y-150442132D01*
X42932150Y-150429520D01*
X42954329Y-150419030D01*
X42977428Y-150410765D01*
X43001227Y-150404804D01*
X43025495Y-150401204D01*
X43049999Y-150400000D01*
X43950001Y-150400000D01*
X43974505Y-150401204D01*
G37*
G36*
X43974505Y-152451204D02*
G01*
X43998773Y-152454804D01*
X44022572Y-152460765D01*
X44045671Y-152469030D01*
X44067850Y-152479520D01*
X44088893Y-152492132D01*
X44108599Y-152506747D01*
X44126777Y-152523223D01*
X44143253Y-152541401D01*
X44157868Y-152561107D01*
X44170480Y-152582150D01*
X44180970Y-152604329D01*
X44189235Y-152627428D01*
X44195196Y-152651227D01*
X44198796Y-152675495D01*
X44200000Y-152699999D01*
X44200000Y-153350001D01*
X44198796Y-153374505D01*
X44195196Y-153398773D01*
X44189235Y-153422572D01*
X44180970Y-153445671D01*
X44170480Y-153467850D01*
X44157868Y-153488893D01*
X44143253Y-153508599D01*
X44126777Y-153526777D01*
X44108599Y-153543253D01*
X44088893Y-153557868D01*
X44067850Y-153570480D01*
X44045671Y-153580970D01*
X44022572Y-153589235D01*
X43998773Y-153595196D01*
X43974505Y-153598796D01*
X43950001Y-153600000D01*
X43049999Y-153600000D01*
X43025495Y-153598796D01*
X43001227Y-153595196D01*
X42977428Y-153589235D01*
X42954329Y-153580970D01*
X42932150Y-153570480D01*
X42911107Y-153557868D01*
X42891401Y-153543253D01*
X42873223Y-153526777D01*
X42856747Y-153508599D01*
X42842132Y-153488893D01*
X42829520Y-153467850D01*
X42819030Y-153445671D01*
X42810765Y-153422572D01*
X42804804Y-153398773D01*
X42801204Y-153374505D01*
X42800000Y-153350001D01*
X42800000Y-152699999D01*
X42801204Y-152675495D01*
X42804804Y-152651227D01*
X42810765Y-152627428D01*
X42819030Y-152604329D01*
X42829520Y-152582150D01*
X42842132Y-152561107D01*
X42856747Y-152541401D01*
X42873223Y-152523223D01*
X42891401Y-152506747D01*
X42911107Y-152492132D01*
X42932150Y-152479520D01*
X42954329Y-152469030D01*
X42977428Y-152460765D01*
X43001227Y-152454804D01*
X43025495Y-152451204D01*
X43049999Y-152450000D01*
X43950001Y-152450000D01*
X43974505Y-152451204D01*
G37*
G36*
X55474505Y-147701204D02*
G01*
X55498773Y-147704804D01*
X55522572Y-147710765D01*
X55545671Y-147719030D01*
X55567850Y-147729520D01*
X55588893Y-147742132D01*
X55608599Y-147756747D01*
X55626777Y-147773223D01*
X55643253Y-147791401D01*
X55657868Y-147811107D01*
X55670480Y-147832150D01*
X55680970Y-147854329D01*
X55689235Y-147877428D01*
X55695196Y-147901227D01*
X55698796Y-147925495D01*
X55700000Y-147949999D01*
X55700000Y-148600001D01*
X55698796Y-148624505D01*
X55695196Y-148648773D01*
X55689235Y-148672572D01*
X55680970Y-148695671D01*
X55670480Y-148717850D01*
X55657868Y-148738893D01*
X55643253Y-148758599D01*
X55626777Y-148776777D01*
X55608599Y-148793253D01*
X55588893Y-148807868D01*
X55567850Y-148820480D01*
X55545671Y-148830970D01*
X55522572Y-148839235D01*
X55498773Y-148845196D01*
X55474505Y-148848796D01*
X55450001Y-148850000D01*
X54549999Y-148850000D01*
X54525495Y-148848796D01*
X54501227Y-148845196D01*
X54477428Y-148839235D01*
X54454329Y-148830970D01*
X54432150Y-148820480D01*
X54411107Y-148807868D01*
X54391401Y-148793253D01*
X54373223Y-148776777D01*
X54356747Y-148758599D01*
X54342132Y-148738893D01*
X54329520Y-148717850D01*
X54319030Y-148695671D01*
X54310765Y-148672572D01*
X54304804Y-148648773D01*
X54301204Y-148624505D01*
X54300000Y-148600001D01*
X54300000Y-147949999D01*
X54301204Y-147925495D01*
X54304804Y-147901227D01*
X54310765Y-147877428D01*
X54319030Y-147854329D01*
X54329520Y-147832150D01*
X54342132Y-147811107D01*
X54356747Y-147791401D01*
X54373223Y-147773223D01*
X54391401Y-147756747D01*
X54411107Y-147742132D01*
X54432150Y-147729520D01*
X54454329Y-147719030D01*
X54477428Y-147710765D01*
X54501227Y-147704804D01*
X54525495Y-147701204D01*
X54549999Y-147700000D01*
X55450001Y-147700000D01*
X55474505Y-147701204D01*
G37*
G36*
X55474505Y-145651204D02*
G01*
X55498773Y-145654804D01*
X55522572Y-145660765D01*
X55545671Y-145669030D01*
X55567850Y-145679520D01*
X55588893Y-145692132D01*
X55608599Y-145706747D01*
X55626777Y-145723223D01*
X55643253Y-145741401D01*
X55657868Y-145761107D01*
X55670480Y-145782150D01*
X55680970Y-145804329D01*
X55689235Y-145827428D01*
X55695196Y-145851227D01*
X55698796Y-145875495D01*
X55700000Y-145899999D01*
X55700000Y-146550001D01*
X55698796Y-146574505D01*
X55695196Y-146598773D01*
X55689235Y-146622572D01*
X55680970Y-146645671D01*
X55670480Y-146667850D01*
X55657868Y-146688893D01*
X55643253Y-146708599D01*
X55626777Y-146726777D01*
X55608599Y-146743253D01*
X55588893Y-146757868D01*
X55567850Y-146770480D01*
X55545671Y-146780970D01*
X55522572Y-146789235D01*
X55498773Y-146795196D01*
X55474505Y-146798796D01*
X55450001Y-146800000D01*
X54549999Y-146800000D01*
X54525495Y-146798796D01*
X54501227Y-146795196D01*
X54477428Y-146789235D01*
X54454329Y-146780970D01*
X54432150Y-146770480D01*
X54411107Y-146757868D01*
X54391401Y-146743253D01*
X54373223Y-146726777D01*
X54356747Y-146708599D01*
X54342132Y-146688893D01*
X54329520Y-146667850D01*
X54319030Y-146645671D01*
X54310765Y-146622572D01*
X54304804Y-146598773D01*
X54301204Y-146574505D01*
X54300000Y-146550001D01*
X54300000Y-145899999D01*
X54301204Y-145875495D01*
X54304804Y-145851227D01*
X54310765Y-145827428D01*
X54319030Y-145804329D01*
X54329520Y-145782150D01*
X54342132Y-145761107D01*
X54356747Y-145741401D01*
X54373223Y-145723223D01*
X54391401Y-145706747D01*
X54411107Y-145692132D01*
X54432150Y-145679520D01*
X54454329Y-145669030D01*
X54477428Y-145660765D01*
X54501227Y-145654804D01*
X54525495Y-145651204D01*
X54549999Y-145650000D01*
X55450001Y-145650000D01*
X55474505Y-145651204D01*
G37*
D16*
X63000000Y-151500000D03*
X61000000Y-152450000D03*
X61000000Y-150550000D03*
D10*
G36*
X60874505Y-126301204D02*
G01*
X60898773Y-126304804D01*
X60922572Y-126310765D01*
X60945671Y-126319030D01*
X60967850Y-126329520D01*
X60988893Y-126342132D01*
X61008599Y-126356747D01*
X61026777Y-126373223D01*
X61043253Y-126391401D01*
X61057868Y-126411107D01*
X61070480Y-126432150D01*
X61080970Y-126454329D01*
X61089235Y-126477428D01*
X61095196Y-126501227D01*
X61098796Y-126525495D01*
X61100000Y-126549999D01*
X61100000Y-127450001D01*
X61098796Y-127474505D01*
X61095196Y-127498773D01*
X61089235Y-127522572D01*
X61080970Y-127545671D01*
X61070480Y-127567850D01*
X61057868Y-127588893D01*
X61043253Y-127608599D01*
X61026777Y-127626777D01*
X61008599Y-127643253D01*
X60988893Y-127657868D01*
X60967850Y-127670480D01*
X60945671Y-127680970D01*
X60922572Y-127689235D01*
X60898773Y-127695196D01*
X60874505Y-127698796D01*
X60850001Y-127700000D01*
X60199999Y-127700000D01*
X60175495Y-127698796D01*
X60151227Y-127695196D01*
X60127428Y-127689235D01*
X60104329Y-127680970D01*
X60082150Y-127670480D01*
X60061107Y-127657868D01*
X60041401Y-127643253D01*
X60023223Y-127626777D01*
X60006747Y-127608599D01*
X59992132Y-127588893D01*
X59979520Y-127567850D01*
X59969030Y-127545671D01*
X59960765Y-127522572D01*
X59954804Y-127498773D01*
X59951204Y-127474505D01*
X59950000Y-127450001D01*
X59950000Y-126549999D01*
X59951204Y-126525495D01*
X59954804Y-126501227D01*
X59960765Y-126477428D01*
X59969030Y-126454329D01*
X59979520Y-126432150D01*
X59992132Y-126411107D01*
X60006747Y-126391401D01*
X60023223Y-126373223D01*
X60041401Y-126356747D01*
X60061107Y-126342132D01*
X60082150Y-126329520D01*
X60104329Y-126319030D01*
X60127428Y-126310765D01*
X60151227Y-126304804D01*
X60175495Y-126301204D01*
X60199999Y-126300000D01*
X60850001Y-126300000D01*
X60874505Y-126301204D01*
G37*
G36*
X58824505Y-126301204D02*
G01*
X58848773Y-126304804D01*
X58872572Y-126310765D01*
X58895671Y-126319030D01*
X58917850Y-126329520D01*
X58938893Y-126342132D01*
X58958599Y-126356747D01*
X58976777Y-126373223D01*
X58993253Y-126391401D01*
X59007868Y-126411107D01*
X59020480Y-126432150D01*
X59030970Y-126454329D01*
X59039235Y-126477428D01*
X59045196Y-126501227D01*
X59048796Y-126525495D01*
X59050000Y-126549999D01*
X59050000Y-127450001D01*
X59048796Y-127474505D01*
X59045196Y-127498773D01*
X59039235Y-127522572D01*
X59030970Y-127545671D01*
X59020480Y-127567850D01*
X59007868Y-127588893D01*
X58993253Y-127608599D01*
X58976777Y-127626777D01*
X58958599Y-127643253D01*
X58938893Y-127657868D01*
X58917850Y-127670480D01*
X58895671Y-127680970D01*
X58872572Y-127689235D01*
X58848773Y-127695196D01*
X58824505Y-127698796D01*
X58800001Y-127700000D01*
X58149999Y-127700000D01*
X58125495Y-127698796D01*
X58101227Y-127695196D01*
X58077428Y-127689235D01*
X58054329Y-127680970D01*
X58032150Y-127670480D01*
X58011107Y-127657868D01*
X57991401Y-127643253D01*
X57973223Y-127626777D01*
X57956747Y-127608599D01*
X57942132Y-127588893D01*
X57929520Y-127567850D01*
X57919030Y-127545671D01*
X57910765Y-127522572D01*
X57904804Y-127498773D01*
X57901204Y-127474505D01*
X57900000Y-127450001D01*
X57900000Y-126549999D01*
X57901204Y-126525495D01*
X57904804Y-126501227D01*
X57910765Y-126477428D01*
X57919030Y-126454329D01*
X57929520Y-126432150D01*
X57942132Y-126411107D01*
X57956747Y-126391401D01*
X57973223Y-126373223D01*
X57991401Y-126356747D01*
X58011107Y-126342132D01*
X58032150Y-126329520D01*
X58054329Y-126319030D01*
X58077428Y-126310765D01*
X58101227Y-126304804D01*
X58125495Y-126301204D01*
X58149999Y-126300000D01*
X58800001Y-126300000D01*
X58824505Y-126301204D01*
G37*
G36*
X63374505Y-147801204D02*
G01*
X63398773Y-147804804D01*
X63422572Y-147810765D01*
X63445671Y-147819030D01*
X63467850Y-147829520D01*
X63488893Y-147842132D01*
X63508599Y-147856747D01*
X63526777Y-147873223D01*
X63543253Y-147891401D01*
X63557868Y-147911107D01*
X63570480Y-147932150D01*
X63580970Y-147954329D01*
X63589235Y-147977428D01*
X63595196Y-148001227D01*
X63598796Y-148025495D01*
X63600000Y-148049999D01*
X63600000Y-148950001D01*
X63598796Y-148974505D01*
X63595196Y-148998773D01*
X63589235Y-149022572D01*
X63580970Y-149045671D01*
X63570480Y-149067850D01*
X63557868Y-149088893D01*
X63543253Y-149108599D01*
X63526777Y-149126777D01*
X63508599Y-149143253D01*
X63488893Y-149157868D01*
X63467850Y-149170480D01*
X63445671Y-149180970D01*
X63422572Y-149189235D01*
X63398773Y-149195196D01*
X63374505Y-149198796D01*
X63350001Y-149200000D01*
X62699999Y-149200000D01*
X62675495Y-149198796D01*
X62651227Y-149195196D01*
X62627428Y-149189235D01*
X62604329Y-149180970D01*
X62582150Y-149170480D01*
X62561107Y-149157868D01*
X62541401Y-149143253D01*
X62523223Y-149126777D01*
X62506747Y-149108599D01*
X62492132Y-149088893D01*
X62479520Y-149067850D01*
X62469030Y-149045671D01*
X62460765Y-149022572D01*
X62454804Y-148998773D01*
X62451204Y-148974505D01*
X62450000Y-148950001D01*
X62450000Y-148049999D01*
X62451204Y-148025495D01*
X62454804Y-148001227D01*
X62460765Y-147977428D01*
X62469030Y-147954329D01*
X62479520Y-147932150D01*
X62492132Y-147911107D01*
X62506747Y-147891401D01*
X62523223Y-147873223D01*
X62541401Y-147856747D01*
X62561107Y-147842132D01*
X62582150Y-147829520D01*
X62604329Y-147819030D01*
X62627428Y-147810765D01*
X62651227Y-147804804D01*
X62675495Y-147801204D01*
X62699999Y-147800000D01*
X63350001Y-147800000D01*
X63374505Y-147801204D01*
G37*
G36*
X61324505Y-147801204D02*
G01*
X61348773Y-147804804D01*
X61372572Y-147810765D01*
X61395671Y-147819030D01*
X61417850Y-147829520D01*
X61438893Y-147842132D01*
X61458599Y-147856747D01*
X61476777Y-147873223D01*
X61493253Y-147891401D01*
X61507868Y-147911107D01*
X61520480Y-147932150D01*
X61530970Y-147954329D01*
X61539235Y-147977428D01*
X61545196Y-148001227D01*
X61548796Y-148025495D01*
X61550000Y-148049999D01*
X61550000Y-148950001D01*
X61548796Y-148974505D01*
X61545196Y-148998773D01*
X61539235Y-149022572D01*
X61530970Y-149045671D01*
X61520480Y-149067850D01*
X61507868Y-149088893D01*
X61493253Y-149108599D01*
X61476777Y-149126777D01*
X61458599Y-149143253D01*
X61438893Y-149157868D01*
X61417850Y-149170480D01*
X61395671Y-149180970D01*
X61372572Y-149189235D01*
X61348773Y-149195196D01*
X61324505Y-149198796D01*
X61300001Y-149200000D01*
X60649999Y-149200000D01*
X60625495Y-149198796D01*
X60601227Y-149195196D01*
X60577428Y-149189235D01*
X60554329Y-149180970D01*
X60532150Y-149170480D01*
X60511107Y-149157868D01*
X60491401Y-149143253D01*
X60473223Y-149126777D01*
X60456747Y-149108599D01*
X60442132Y-149088893D01*
X60429520Y-149067850D01*
X60419030Y-149045671D01*
X60410765Y-149022572D01*
X60404804Y-148998773D01*
X60401204Y-148974505D01*
X60400000Y-148950001D01*
X60400000Y-148049999D01*
X60401204Y-148025495D01*
X60404804Y-148001227D01*
X60410765Y-147977428D01*
X60419030Y-147954329D01*
X60429520Y-147932150D01*
X60442132Y-147911107D01*
X60456747Y-147891401D01*
X60473223Y-147873223D01*
X60491401Y-147856747D01*
X60511107Y-147842132D01*
X60532150Y-147829520D01*
X60554329Y-147819030D01*
X60577428Y-147810765D01*
X60601227Y-147804804D01*
X60625495Y-147801204D01*
X60649999Y-147800000D01*
X61300001Y-147800000D01*
X61324505Y-147801204D01*
G37*
G36*
X62980142Y-154076174D02*
G01*
X63003803Y-154079684D01*
X63027007Y-154085496D01*
X63049529Y-154093554D01*
X63071153Y-154103782D01*
X63091670Y-154116079D01*
X63110883Y-154130329D01*
X63128607Y-154146393D01*
X63144671Y-154164117D01*
X63158921Y-154183330D01*
X63171218Y-154203847D01*
X63181446Y-154225471D01*
X63189504Y-154247993D01*
X63195316Y-154271197D01*
X63198826Y-154294858D01*
X63200000Y-154318750D01*
X63200000Y-154806250D01*
X63198826Y-154830142D01*
X63195316Y-154853803D01*
X63189504Y-154877007D01*
X63181446Y-154899529D01*
X63171218Y-154921153D01*
X63158921Y-154941670D01*
X63144671Y-154960883D01*
X63128607Y-154978607D01*
X63110883Y-154994671D01*
X63091670Y-155008921D01*
X63071153Y-155021218D01*
X63049529Y-155031446D01*
X63027007Y-155039504D01*
X63003803Y-155045316D01*
X62980142Y-155048826D01*
X62956250Y-155050000D01*
X62043750Y-155050000D01*
X62019858Y-155048826D01*
X61996197Y-155045316D01*
X61972993Y-155039504D01*
X61950471Y-155031446D01*
X61928847Y-155021218D01*
X61908330Y-155008921D01*
X61889117Y-154994671D01*
X61871393Y-154978607D01*
X61855329Y-154960883D01*
X61841079Y-154941670D01*
X61828782Y-154921153D01*
X61818554Y-154899529D01*
X61810496Y-154877007D01*
X61804684Y-154853803D01*
X61801174Y-154830142D01*
X61800000Y-154806250D01*
X61800000Y-154318750D01*
X61801174Y-154294858D01*
X61804684Y-154271197D01*
X61810496Y-154247993D01*
X61818554Y-154225471D01*
X61828782Y-154203847D01*
X61841079Y-154183330D01*
X61855329Y-154164117D01*
X61871393Y-154146393D01*
X61889117Y-154130329D01*
X61908330Y-154116079D01*
X61928847Y-154103782D01*
X61950471Y-154093554D01*
X61972993Y-154085496D01*
X61996197Y-154079684D01*
X62019858Y-154076174D01*
X62043750Y-154075000D01*
X62956250Y-154075000D01*
X62980142Y-154076174D01*
G37*
G36*
X62980142Y-155951174D02*
G01*
X63003803Y-155954684D01*
X63027007Y-155960496D01*
X63049529Y-155968554D01*
X63071153Y-155978782D01*
X63091670Y-155991079D01*
X63110883Y-156005329D01*
X63128607Y-156021393D01*
X63144671Y-156039117D01*
X63158921Y-156058330D01*
X63171218Y-156078847D01*
X63181446Y-156100471D01*
X63189504Y-156122993D01*
X63195316Y-156146197D01*
X63198826Y-156169858D01*
X63200000Y-156193750D01*
X63200000Y-156681250D01*
X63198826Y-156705142D01*
X63195316Y-156728803D01*
X63189504Y-156752007D01*
X63181446Y-156774529D01*
X63171218Y-156796153D01*
X63158921Y-156816670D01*
X63144671Y-156835883D01*
X63128607Y-156853607D01*
X63110883Y-156869671D01*
X63091670Y-156883921D01*
X63071153Y-156896218D01*
X63049529Y-156906446D01*
X63027007Y-156914504D01*
X63003803Y-156920316D01*
X62980142Y-156923826D01*
X62956250Y-156925000D01*
X62043750Y-156925000D01*
X62019858Y-156923826D01*
X61996197Y-156920316D01*
X61972993Y-156914504D01*
X61950471Y-156906446D01*
X61928847Y-156896218D01*
X61908330Y-156883921D01*
X61889117Y-156869671D01*
X61871393Y-156853607D01*
X61855329Y-156835883D01*
X61841079Y-156816670D01*
X61828782Y-156796153D01*
X61818554Y-156774529D01*
X61810496Y-156752007D01*
X61804684Y-156728803D01*
X61801174Y-156705142D01*
X61800000Y-156681250D01*
X61800000Y-156193750D01*
X61801174Y-156169858D01*
X61804684Y-156146197D01*
X61810496Y-156122993D01*
X61818554Y-156100471D01*
X61828782Y-156078847D01*
X61841079Y-156058330D01*
X61855329Y-156039117D01*
X61871393Y-156021393D01*
X61889117Y-156005329D01*
X61908330Y-155991079D01*
X61928847Y-155978782D01*
X61950471Y-155968554D01*
X61972993Y-155960496D01*
X61996197Y-155954684D01*
X62019858Y-155951174D01*
X62043750Y-155950000D01*
X62956250Y-155950000D01*
X62980142Y-155951174D01*
G37*
G36*
X34705142Y-152301174D02*
G01*
X34728803Y-152304684D01*
X34752007Y-152310496D01*
X34774529Y-152318554D01*
X34796153Y-152328782D01*
X34816670Y-152341079D01*
X34835883Y-152355329D01*
X34853607Y-152371393D01*
X34869671Y-152389117D01*
X34883921Y-152408330D01*
X34896218Y-152428847D01*
X34906446Y-152450471D01*
X34914504Y-152472993D01*
X34920316Y-152496197D01*
X34923826Y-152519858D01*
X34925000Y-152543750D01*
X34925000Y-153456250D01*
X34923826Y-153480142D01*
X34920316Y-153503803D01*
X34914504Y-153527007D01*
X34906446Y-153549529D01*
X34896218Y-153571153D01*
X34883921Y-153591670D01*
X34869671Y-153610883D01*
X34853607Y-153628607D01*
X34835883Y-153644671D01*
X34816670Y-153658921D01*
X34796153Y-153671218D01*
X34774529Y-153681446D01*
X34752007Y-153689504D01*
X34728803Y-153695316D01*
X34705142Y-153698826D01*
X34681250Y-153700000D01*
X34193750Y-153700000D01*
X34169858Y-153698826D01*
X34146197Y-153695316D01*
X34122993Y-153689504D01*
X34100471Y-153681446D01*
X34078847Y-153671218D01*
X34058330Y-153658921D01*
X34039117Y-153644671D01*
X34021393Y-153628607D01*
X34005329Y-153610883D01*
X33991079Y-153591670D01*
X33978782Y-153571153D01*
X33968554Y-153549529D01*
X33960496Y-153527007D01*
X33954684Y-153503803D01*
X33951174Y-153480142D01*
X33950000Y-153456250D01*
X33950000Y-152543750D01*
X33951174Y-152519858D01*
X33954684Y-152496197D01*
X33960496Y-152472993D01*
X33968554Y-152450471D01*
X33978782Y-152428847D01*
X33991079Y-152408330D01*
X34005329Y-152389117D01*
X34021393Y-152371393D01*
X34039117Y-152355329D01*
X34058330Y-152341079D01*
X34078847Y-152328782D01*
X34100471Y-152318554D01*
X34122993Y-152310496D01*
X34146197Y-152304684D01*
X34169858Y-152301174D01*
X34193750Y-152300000D01*
X34681250Y-152300000D01*
X34705142Y-152301174D01*
G37*
G36*
X32830142Y-152301174D02*
G01*
X32853803Y-152304684D01*
X32877007Y-152310496D01*
X32899529Y-152318554D01*
X32921153Y-152328782D01*
X32941670Y-152341079D01*
X32960883Y-152355329D01*
X32978607Y-152371393D01*
X32994671Y-152389117D01*
X33008921Y-152408330D01*
X33021218Y-152428847D01*
X33031446Y-152450471D01*
X33039504Y-152472993D01*
X33045316Y-152496197D01*
X33048826Y-152519858D01*
X33050000Y-152543750D01*
X33050000Y-153456250D01*
X33048826Y-153480142D01*
X33045316Y-153503803D01*
X33039504Y-153527007D01*
X33031446Y-153549529D01*
X33021218Y-153571153D01*
X33008921Y-153591670D01*
X32994671Y-153610883D01*
X32978607Y-153628607D01*
X32960883Y-153644671D01*
X32941670Y-153658921D01*
X32921153Y-153671218D01*
X32899529Y-153681446D01*
X32877007Y-153689504D01*
X32853803Y-153695316D01*
X32830142Y-153698826D01*
X32806250Y-153700000D01*
X32318750Y-153700000D01*
X32294858Y-153698826D01*
X32271197Y-153695316D01*
X32247993Y-153689504D01*
X32225471Y-153681446D01*
X32203847Y-153671218D01*
X32183330Y-153658921D01*
X32164117Y-153644671D01*
X32146393Y-153628607D01*
X32130329Y-153610883D01*
X32116079Y-153591670D01*
X32103782Y-153571153D01*
X32093554Y-153549529D01*
X32085496Y-153527007D01*
X32079684Y-153503803D01*
X32076174Y-153480142D01*
X32075000Y-153456250D01*
X32075000Y-152543750D01*
X32076174Y-152519858D01*
X32079684Y-152496197D01*
X32085496Y-152472993D01*
X32093554Y-152450471D01*
X32103782Y-152428847D01*
X32116079Y-152408330D01*
X32130329Y-152389117D01*
X32146393Y-152371393D01*
X32164117Y-152355329D01*
X32183330Y-152341079D01*
X32203847Y-152328782D01*
X32225471Y-152318554D01*
X32247993Y-152310496D01*
X32271197Y-152304684D01*
X32294858Y-152301174D01*
X32318750Y-152300000D01*
X32806250Y-152300000D01*
X32830142Y-152301174D01*
G37*
G36*
X33705142Y-121801174D02*
G01*
X33728803Y-121804684D01*
X33752007Y-121810496D01*
X33774529Y-121818554D01*
X33796153Y-121828782D01*
X33816670Y-121841079D01*
X33835883Y-121855329D01*
X33853607Y-121871393D01*
X33869671Y-121889117D01*
X33883921Y-121908330D01*
X33896218Y-121928847D01*
X33906446Y-121950471D01*
X33914504Y-121972993D01*
X33920316Y-121996197D01*
X33923826Y-122019858D01*
X33925000Y-122043750D01*
X33925000Y-122956250D01*
X33923826Y-122980142D01*
X33920316Y-123003803D01*
X33914504Y-123027007D01*
X33906446Y-123049529D01*
X33896218Y-123071153D01*
X33883921Y-123091670D01*
X33869671Y-123110883D01*
X33853607Y-123128607D01*
X33835883Y-123144671D01*
X33816670Y-123158921D01*
X33796153Y-123171218D01*
X33774529Y-123181446D01*
X33752007Y-123189504D01*
X33728803Y-123195316D01*
X33705142Y-123198826D01*
X33681250Y-123200000D01*
X33193750Y-123200000D01*
X33169858Y-123198826D01*
X33146197Y-123195316D01*
X33122993Y-123189504D01*
X33100471Y-123181446D01*
X33078847Y-123171218D01*
X33058330Y-123158921D01*
X33039117Y-123144671D01*
X33021393Y-123128607D01*
X33005329Y-123110883D01*
X32991079Y-123091670D01*
X32978782Y-123071153D01*
X32968554Y-123049529D01*
X32960496Y-123027007D01*
X32954684Y-123003803D01*
X32951174Y-122980142D01*
X32950000Y-122956250D01*
X32950000Y-122043750D01*
X32951174Y-122019858D01*
X32954684Y-121996197D01*
X32960496Y-121972993D01*
X32968554Y-121950471D01*
X32978782Y-121928847D01*
X32991079Y-121908330D01*
X33005329Y-121889117D01*
X33021393Y-121871393D01*
X33039117Y-121855329D01*
X33058330Y-121841079D01*
X33078847Y-121828782D01*
X33100471Y-121818554D01*
X33122993Y-121810496D01*
X33146197Y-121804684D01*
X33169858Y-121801174D01*
X33193750Y-121800000D01*
X33681250Y-121800000D01*
X33705142Y-121801174D01*
G37*
G36*
X31830142Y-121801174D02*
G01*
X31853803Y-121804684D01*
X31877007Y-121810496D01*
X31899529Y-121818554D01*
X31921153Y-121828782D01*
X31941670Y-121841079D01*
X31960883Y-121855329D01*
X31978607Y-121871393D01*
X31994671Y-121889117D01*
X32008921Y-121908330D01*
X32021218Y-121928847D01*
X32031446Y-121950471D01*
X32039504Y-121972993D01*
X32045316Y-121996197D01*
X32048826Y-122019858D01*
X32050000Y-122043750D01*
X32050000Y-122956250D01*
X32048826Y-122980142D01*
X32045316Y-123003803D01*
X32039504Y-123027007D01*
X32031446Y-123049529D01*
X32021218Y-123071153D01*
X32008921Y-123091670D01*
X31994671Y-123110883D01*
X31978607Y-123128607D01*
X31960883Y-123144671D01*
X31941670Y-123158921D01*
X31921153Y-123171218D01*
X31899529Y-123181446D01*
X31877007Y-123189504D01*
X31853803Y-123195316D01*
X31830142Y-123198826D01*
X31806250Y-123200000D01*
X31318750Y-123200000D01*
X31294858Y-123198826D01*
X31271197Y-123195316D01*
X31247993Y-123189504D01*
X31225471Y-123181446D01*
X31203847Y-123171218D01*
X31183330Y-123158921D01*
X31164117Y-123144671D01*
X31146393Y-123128607D01*
X31130329Y-123110883D01*
X31116079Y-123091670D01*
X31103782Y-123071153D01*
X31093554Y-123049529D01*
X31085496Y-123027007D01*
X31079684Y-123003803D01*
X31076174Y-122980142D01*
X31075000Y-122956250D01*
X31075000Y-122043750D01*
X31076174Y-122019858D01*
X31079684Y-121996197D01*
X31085496Y-121972993D01*
X31093554Y-121950471D01*
X31103782Y-121928847D01*
X31116079Y-121908330D01*
X31130329Y-121889117D01*
X31146393Y-121871393D01*
X31164117Y-121855329D01*
X31183330Y-121841079D01*
X31203847Y-121828782D01*
X31225471Y-121818554D01*
X31247993Y-121810496D01*
X31271197Y-121804684D01*
X31294858Y-121801174D01*
X31318750Y-121800000D01*
X31806250Y-121800000D01*
X31830142Y-121801174D01*
G37*
G36*
X47824505Y-120801204D02*
G01*
X47848773Y-120804804D01*
X47872572Y-120810765D01*
X47895671Y-120819030D01*
X47917850Y-120829520D01*
X47938893Y-120842132D01*
X47958599Y-120856747D01*
X47976777Y-120873223D01*
X47993253Y-120891401D01*
X48007868Y-120911107D01*
X48020480Y-120932150D01*
X48030970Y-120954329D01*
X48039235Y-120977428D01*
X48045196Y-121001227D01*
X48048796Y-121025495D01*
X48050000Y-121049999D01*
X48050000Y-121950001D01*
X48048796Y-121974505D01*
X48045196Y-121998773D01*
X48039235Y-122022572D01*
X48030970Y-122045671D01*
X48020480Y-122067850D01*
X48007868Y-122088893D01*
X47993253Y-122108599D01*
X47976777Y-122126777D01*
X47958599Y-122143253D01*
X47938893Y-122157868D01*
X47917850Y-122170480D01*
X47895671Y-122180970D01*
X47872572Y-122189235D01*
X47848773Y-122195196D01*
X47824505Y-122198796D01*
X47800001Y-122200000D01*
X47149999Y-122200000D01*
X47125495Y-122198796D01*
X47101227Y-122195196D01*
X47077428Y-122189235D01*
X47054329Y-122180970D01*
X47032150Y-122170480D01*
X47011107Y-122157868D01*
X46991401Y-122143253D01*
X46973223Y-122126777D01*
X46956747Y-122108599D01*
X46942132Y-122088893D01*
X46929520Y-122067850D01*
X46919030Y-122045671D01*
X46910765Y-122022572D01*
X46904804Y-121998773D01*
X46901204Y-121974505D01*
X46900000Y-121950001D01*
X46900000Y-121049999D01*
X46901204Y-121025495D01*
X46904804Y-121001227D01*
X46910765Y-120977428D01*
X46919030Y-120954329D01*
X46929520Y-120932150D01*
X46942132Y-120911107D01*
X46956747Y-120891401D01*
X46973223Y-120873223D01*
X46991401Y-120856747D01*
X47011107Y-120842132D01*
X47032150Y-120829520D01*
X47054329Y-120819030D01*
X47077428Y-120810765D01*
X47101227Y-120804804D01*
X47125495Y-120801204D01*
X47149999Y-120800000D01*
X47800001Y-120800000D01*
X47824505Y-120801204D01*
G37*
G36*
X49874505Y-120801204D02*
G01*
X49898773Y-120804804D01*
X49922572Y-120810765D01*
X49945671Y-120819030D01*
X49967850Y-120829520D01*
X49988893Y-120842132D01*
X50008599Y-120856747D01*
X50026777Y-120873223D01*
X50043253Y-120891401D01*
X50057868Y-120911107D01*
X50070480Y-120932150D01*
X50080970Y-120954329D01*
X50089235Y-120977428D01*
X50095196Y-121001227D01*
X50098796Y-121025495D01*
X50100000Y-121049999D01*
X50100000Y-121950001D01*
X50098796Y-121974505D01*
X50095196Y-121998773D01*
X50089235Y-122022572D01*
X50080970Y-122045671D01*
X50070480Y-122067850D01*
X50057868Y-122088893D01*
X50043253Y-122108599D01*
X50026777Y-122126777D01*
X50008599Y-122143253D01*
X49988893Y-122157868D01*
X49967850Y-122170480D01*
X49945671Y-122180970D01*
X49922572Y-122189235D01*
X49898773Y-122195196D01*
X49874505Y-122198796D01*
X49850001Y-122200000D01*
X49199999Y-122200000D01*
X49175495Y-122198796D01*
X49151227Y-122195196D01*
X49127428Y-122189235D01*
X49104329Y-122180970D01*
X49082150Y-122170480D01*
X49061107Y-122157868D01*
X49041401Y-122143253D01*
X49023223Y-122126777D01*
X49006747Y-122108599D01*
X48992132Y-122088893D01*
X48979520Y-122067850D01*
X48969030Y-122045671D01*
X48960765Y-122022572D01*
X48954804Y-121998773D01*
X48951204Y-121974505D01*
X48950000Y-121950001D01*
X48950000Y-121049999D01*
X48951204Y-121025495D01*
X48954804Y-121001227D01*
X48960765Y-120977428D01*
X48969030Y-120954329D01*
X48979520Y-120932150D01*
X48992132Y-120911107D01*
X49006747Y-120891401D01*
X49023223Y-120873223D01*
X49041401Y-120856747D01*
X49061107Y-120842132D01*
X49082150Y-120829520D01*
X49104329Y-120819030D01*
X49127428Y-120810765D01*
X49151227Y-120804804D01*
X49175495Y-120801204D01*
X49199999Y-120800000D01*
X49850001Y-120800000D01*
X49874505Y-120801204D01*
G37*
G36*
X54324505Y-120801204D02*
G01*
X54348773Y-120804804D01*
X54372572Y-120810765D01*
X54395671Y-120819030D01*
X54417850Y-120829520D01*
X54438893Y-120842132D01*
X54458599Y-120856747D01*
X54476777Y-120873223D01*
X54493253Y-120891401D01*
X54507868Y-120911107D01*
X54520480Y-120932150D01*
X54530970Y-120954329D01*
X54539235Y-120977428D01*
X54545196Y-121001227D01*
X54548796Y-121025495D01*
X54550000Y-121049999D01*
X54550000Y-121950001D01*
X54548796Y-121974505D01*
X54545196Y-121998773D01*
X54539235Y-122022572D01*
X54530970Y-122045671D01*
X54520480Y-122067850D01*
X54507868Y-122088893D01*
X54493253Y-122108599D01*
X54476777Y-122126777D01*
X54458599Y-122143253D01*
X54438893Y-122157868D01*
X54417850Y-122170480D01*
X54395671Y-122180970D01*
X54372572Y-122189235D01*
X54348773Y-122195196D01*
X54324505Y-122198796D01*
X54300001Y-122200000D01*
X53649999Y-122200000D01*
X53625495Y-122198796D01*
X53601227Y-122195196D01*
X53577428Y-122189235D01*
X53554329Y-122180970D01*
X53532150Y-122170480D01*
X53511107Y-122157868D01*
X53491401Y-122143253D01*
X53473223Y-122126777D01*
X53456747Y-122108599D01*
X53442132Y-122088893D01*
X53429520Y-122067850D01*
X53419030Y-122045671D01*
X53410765Y-122022572D01*
X53404804Y-121998773D01*
X53401204Y-121974505D01*
X53400000Y-121950001D01*
X53400000Y-121049999D01*
X53401204Y-121025495D01*
X53404804Y-121001227D01*
X53410765Y-120977428D01*
X53419030Y-120954329D01*
X53429520Y-120932150D01*
X53442132Y-120911107D01*
X53456747Y-120891401D01*
X53473223Y-120873223D01*
X53491401Y-120856747D01*
X53511107Y-120842132D01*
X53532150Y-120829520D01*
X53554329Y-120819030D01*
X53577428Y-120810765D01*
X53601227Y-120804804D01*
X53625495Y-120801204D01*
X53649999Y-120800000D01*
X54300001Y-120800000D01*
X54324505Y-120801204D01*
G37*
G36*
X56374505Y-120801204D02*
G01*
X56398773Y-120804804D01*
X56422572Y-120810765D01*
X56445671Y-120819030D01*
X56467850Y-120829520D01*
X56488893Y-120842132D01*
X56508599Y-120856747D01*
X56526777Y-120873223D01*
X56543253Y-120891401D01*
X56557868Y-120911107D01*
X56570480Y-120932150D01*
X56580970Y-120954329D01*
X56589235Y-120977428D01*
X56595196Y-121001227D01*
X56598796Y-121025495D01*
X56600000Y-121049999D01*
X56600000Y-121950001D01*
X56598796Y-121974505D01*
X56595196Y-121998773D01*
X56589235Y-122022572D01*
X56580970Y-122045671D01*
X56570480Y-122067850D01*
X56557868Y-122088893D01*
X56543253Y-122108599D01*
X56526777Y-122126777D01*
X56508599Y-122143253D01*
X56488893Y-122157868D01*
X56467850Y-122170480D01*
X56445671Y-122180970D01*
X56422572Y-122189235D01*
X56398773Y-122195196D01*
X56374505Y-122198796D01*
X56350001Y-122200000D01*
X55699999Y-122200000D01*
X55675495Y-122198796D01*
X55651227Y-122195196D01*
X55627428Y-122189235D01*
X55604329Y-122180970D01*
X55582150Y-122170480D01*
X55561107Y-122157868D01*
X55541401Y-122143253D01*
X55523223Y-122126777D01*
X55506747Y-122108599D01*
X55492132Y-122088893D01*
X55479520Y-122067850D01*
X55469030Y-122045671D01*
X55460765Y-122022572D01*
X55454804Y-121998773D01*
X55451204Y-121974505D01*
X55450000Y-121950001D01*
X55450000Y-121049999D01*
X55451204Y-121025495D01*
X55454804Y-121001227D01*
X55460765Y-120977428D01*
X55469030Y-120954329D01*
X55479520Y-120932150D01*
X55492132Y-120911107D01*
X55506747Y-120891401D01*
X55523223Y-120873223D01*
X55541401Y-120856747D01*
X55561107Y-120842132D01*
X55582150Y-120829520D01*
X55604329Y-120819030D01*
X55627428Y-120810765D01*
X55651227Y-120804804D01*
X55675495Y-120801204D01*
X55699999Y-120800000D01*
X56350001Y-120800000D01*
X56374505Y-120801204D01*
G37*
G36*
X60874505Y-145301204D02*
G01*
X60898773Y-145304804D01*
X60922572Y-145310765D01*
X60945671Y-145319030D01*
X60967850Y-145329520D01*
X60988893Y-145342132D01*
X61008599Y-145356747D01*
X61026777Y-145373223D01*
X61043253Y-145391401D01*
X61057868Y-145411107D01*
X61070480Y-145432150D01*
X61080970Y-145454329D01*
X61089235Y-145477428D01*
X61095196Y-145501227D01*
X61098796Y-145525495D01*
X61100000Y-145549999D01*
X61100000Y-146450001D01*
X61098796Y-146474505D01*
X61095196Y-146498773D01*
X61089235Y-146522572D01*
X61080970Y-146545671D01*
X61070480Y-146567850D01*
X61057868Y-146588893D01*
X61043253Y-146608599D01*
X61026777Y-146626777D01*
X61008599Y-146643253D01*
X60988893Y-146657868D01*
X60967850Y-146670480D01*
X60945671Y-146680970D01*
X60922572Y-146689235D01*
X60898773Y-146695196D01*
X60874505Y-146698796D01*
X60850001Y-146700000D01*
X60199999Y-146700000D01*
X60175495Y-146698796D01*
X60151227Y-146695196D01*
X60127428Y-146689235D01*
X60104329Y-146680970D01*
X60082150Y-146670480D01*
X60061107Y-146657868D01*
X60041401Y-146643253D01*
X60023223Y-146626777D01*
X60006747Y-146608599D01*
X59992132Y-146588893D01*
X59979520Y-146567850D01*
X59969030Y-146545671D01*
X59960765Y-146522572D01*
X59954804Y-146498773D01*
X59951204Y-146474505D01*
X59950000Y-146450001D01*
X59950000Y-145549999D01*
X59951204Y-145525495D01*
X59954804Y-145501227D01*
X59960765Y-145477428D01*
X59969030Y-145454329D01*
X59979520Y-145432150D01*
X59992132Y-145411107D01*
X60006747Y-145391401D01*
X60023223Y-145373223D01*
X60041401Y-145356747D01*
X60061107Y-145342132D01*
X60082150Y-145329520D01*
X60104329Y-145319030D01*
X60127428Y-145310765D01*
X60151227Y-145304804D01*
X60175495Y-145301204D01*
X60199999Y-145300000D01*
X60850001Y-145300000D01*
X60874505Y-145301204D01*
G37*
G36*
X58824505Y-145301204D02*
G01*
X58848773Y-145304804D01*
X58872572Y-145310765D01*
X58895671Y-145319030D01*
X58917850Y-145329520D01*
X58938893Y-145342132D01*
X58958599Y-145356747D01*
X58976777Y-145373223D01*
X58993253Y-145391401D01*
X59007868Y-145411107D01*
X59020480Y-145432150D01*
X59030970Y-145454329D01*
X59039235Y-145477428D01*
X59045196Y-145501227D01*
X59048796Y-145525495D01*
X59050000Y-145549999D01*
X59050000Y-146450001D01*
X59048796Y-146474505D01*
X59045196Y-146498773D01*
X59039235Y-146522572D01*
X59030970Y-146545671D01*
X59020480Y-146567850D01*
X59007868Y-146588893D01*
X58993253Y-146608599D01*
X58976777Y-146626777D01*
X58958599Y-146643253D01*
X58938893Y-146657868D01*
X58917850Y-146670480D01*
X58895671Y-146680970D01*
X58872572Y-146689235D01*
X58848773Y-146695196D01*
X58824505Y-146698796D01*
X58800001Y-146700000D01*
X58149999Y-146700000D01*
X58125495Y-146698796D01*
X58101227Y-146695196D01*
X58077428Y-146689235D01*
X58054329Y-146680970D01*
X58032150Y-146670480D01*
X58011107Y-146657868D01*
X57991401Y-146643253D01*
X57973223Y-146626777D01*
X57956747Y-146608599D01*
X57942132Y-146588893D01*
X57929520Y-146567850D01*
X57919030Y-146545671D01*
X57910765Y-146522572D01*
X57904804Y-146498773D01*
X57901204Y-146474505D01*
X57900000Y-146450001D01*
X57900000Y-145549999D01*
X57901204Y-145525495D01*
X57904804Y-145501227D01*
X57910765Y-145477428D01*
X57919030Y-145454329D01*
X57929520Y-145432150D01*
X57942132Y-145411107D01*
X57956747Y-145391401D01*
X57973223Y-145373223D01*
X57991401Y-145356747D01*
X58011107Y-145342132D01*
X58032150Y-145329520D01*
X58054329Y-145319030D01*
X58077428Y-145310765D01*
X58101227Y-145304804D01*
X58125495Y-145301204D01*
X58149999Y-145300000D01*
X58800001Y-145300000D01*
X58824505Y-145301204D01*
G37*
G36*
X63474505Y-143451204D02*
G01*
X63498773Y-143454804D01*
X63522572Y-143460765D01*
X63545671Y-143469030D01*
X63567850Y-143479520D01*
X63588893Y-143492132D01*
X63608599Y-143506747D01*
X63626777Y-143523223D01*
X63643253Y-143541401D01*
X63657868Y-143561107D01*
X63670480Y-143582150D01*
X63680970Y-143604329D01*
X63689235Y-143627428D01*
X63695196Y-143651227D01*
X63698796Y-143675495D01*
X63700000Y-143699999D01*
X63700000Y-144350001D01*
X63698796Y-144374505D01*
X63695196Y-144398773D01*
X63689235Y-144422572D01*
X63680970Y-144445671D01*
X63670480Y-144467850D01*
X63657868Y-144488893D01*
X63643253Y-144508599D01*
X63626777Y-144526777D01*
X63608599Y-144543253D01*
X63588893Y-144557868D01*
X63567850Y-144570480D01*
X63545671Y-144580970D01*
X63522572Y-144589235D01*
X63498773Y-144595196D01*
X63474505Y-144598796D01*
X63450001Y-144600000D01*
X62549999Y-144600000D01*
X62525495Y-144598796D01*
X62501227Y-144595196D01*
X62477428Y-144589235D01*
X62454329Y-144580970D01*
X62432150Y-144570480D01*
X62411107Y-144557868D01*
X62391401Y-144543253D01*
X62373223Y-144526777D01*
X62356747Y-144508599D01*
X62342132Y-144488893D01*
X62329520Y-144467850D01*
X62319030Y-144445671D01*
X62310765Y-144422572D01*
X62304804Y-144398773D01*
X62301204Y-144374505D01*
X62300000Y-144350001D01*
X62300000Y-143699999D01*
X62301204Y-143675495D01*
X62304804Y-143651227D01*
X62310765Y-143627428D01*
X62319030Y-143604329D01*
X62329520Y-143582150D01*
X62342132Y-143561107D01*
X62356747Y-143541401D01*
X62373223Y-143523223D01*
X62391401Y-143506747D01*
X62411107Y-143492132D01*
X62432150Y-143479520D01*
X62454329Y-143469030D01*
X62477428Y-143460765D01*
X62501227Y-143454804D01*
X62525495Y-143451204D01*
X62549999Y-143450000D01*
X63450001Y-143450000D01*
X63474505Y-143451204D01*
G37*
G36*
X63474505Y-141401204D02*
G01*
X63498773Y-141404804D01*
X63522572Y-141410765D01*
X63545671Y-141419030D01*
X63567850Y-141429520D01*
X63588893Y-141442132D01*
X63608599Y-141456747D01*
X63626777Y-141473223D01*
X63643253Y-141491401D01*
X63657868Y-141511107D01*
X63670480Y-141532150D01*
X63680970Y-141554329D01*
X63689235Y-141577428D01*
X63695196Y-141601227D01*
X63698796Y-141625495D01*
X63700000Y-141649999D01*
X63700000Y-142300001D01*
X63698796Y-142324505D01*
X63695196Y-142348773D01*
X63689235Y-142372572D01*
X63680970Y-142395671D01*
X63670480Y-142417850D01*
X63657868Y-142438893D01*
X63643253Y-142458599D01*
X63626777Y-142476777D01*
X63608599Y-142493253D01*
X63588893Y-142507868D01*
X63567850Y-142520480D01*
X63545671Y-142530970D01*
X63522572Y-142539235D01*
X63498773Y-142545196D01*
X63474505Y-142548796D01*
X63450001Y-142550000D01*
X62549999Y-142550000D01*
X62525495Y-142548796D01*
X62501227Y-142545196D01*
X62477428Y-142539235D01*
X62454329Y-142530970D01*
X62432150Y-142520480D01*
X62411107Y-142507868D01*
X62391401Y-142493253D01*
X62373223Y-142476777D01*
X62356747Y-142458599D01*
X62342132Y-142438893D01*
X62329520Y-142417850D01*
X62319030Y-142395671D01*
X62310765Y-142372572D01*
X62304804Y-142348773D01*
X62301204Y-142324505D01*
X62300000Y-142300001D01*
X62300000Y-141649999D01*
X62301204Y-141625495D01*
X62304804Y-141601227D01*
X62310765Y-141577428D01*
X62319030Y-141554329D01*
X62329520Y-141532150D01*
X62342132Y-141511107D01*
X62356747Y-141491401D01*
X62373223Y-141473223D01*
X62391401Y-141456747D01*
X62411107Y-141442132D01*
X62432150Y-141429520D01*
X62454329Y-141419030D01*
X62477428Y-141410765D01*
X62501227Y-141404804D01*
X62525495Y-141401204D01*
X62549999Y-141400000D01*
X63450001Y-141400000D01*
X63474505Y-141401204D01*
G37*
G36*
X54324505Y-128301204D02*
G01*
X54348773Y-128304804D01*
X54372572Y-128310765D01*
X54395671Y-128319030D01*
X54417850Y-128329520D01*
X54438893Y-128342132D01*
X54458599Y-128356747D01*
X54476777Y-128373223D01*
X54493253Y-128391401D01*
X54507868Y-128411107D01*
X54520480Y-128432150D01*
X54530970Y-128454329D01*
X54539235Y-128477428D01*
X54545196Y-128501227D01*
X54548796Y-128525495D01*
X54550000Y-128549999D01*
X54550000Y-129450001D01*
X54548796Y-129474505D01*
X54545196Y-129498773D01*
X54539235Y-129522572D01*
X54530970Y-129545671D01*
X54520480Y-129567850D01*
X54507868Y-129588893D01*
X54493253Y-129608599D01*
X54476777Y-129626777D01*
X54458599Y-129643253D01*
X54438893Y-129657868D01*
X54417850Y-129670480D01*
X54395671Y-129680970D01*
X54372572Y-129689235D01*
X54348773Y-129695196D01*
X54324505Y-129698796D01*
X54300001Y-129700000D01*
X53649999Y-129700000D01*
X53625495Y-129698796D01*
X53601227Y-129695196D01*
X53577428Y-129689235D01*
X53554329Y-129680970D01*
X53532150Y-129670480D01*
X53511107Y-129657868D01*
X53491401Y-129643253D01*
X53473223Y-129626777D01*
X53456747Y-129608599D01*
X53442132Y-129588893D01*
X53429520Y-129567850D01*
X53419030Y-129545671D01*
X53410765Y-129522572D01*
X53404804Y-129498773D01*
X53401204Y-129474505D01*
X53400000Y-129450001D01*
X53400000Y-128549999D01*
X53401204Y-128525495D01*
X53404804Y-128501227D01*
X53410765Y-128477428D01*
X53419030Y-128454329D01*
X53429520Y-128432150D01*
X53442132Y-128411107D01*
X53456747Y-128391401D01*
X53473223Y-128373223D01*
X53491401Y-128356747D01*
X53511107Y-128342132D01*
X53532150Y-128329520D01*
X53554329Y-128319030D01*
X53577428Y-128310765D01*
X53601227Y-128304804D01*
X53625495Y-128301204D01*
X53649999Y-128300000D01*
X54300001Y-128300000D01*
X54324505Y-128301204D01*
G37*
G36*
X56374505Y-128301204D02*
G01*
X56398773Y-128304804D01*
X56422572Y-128310765D01*
X56445671Y-128319030D01*
X56467850Y-128329520D01*
X56488893Y-128342132D01*
X56508599Y-128356747D01*
X56526777Y-128373223D01*
X56543253Y-128391401D01*
X56557868Y-128411107D01*
X56570480Y-128432150D01*
X56580970Y-128454329D01*
X56589235Y-128477428D01*
X56595196Y-128501227D01*
X56598796Y-128525495D01*
X56600000Y-128549999D01*
X56600000Y-129450001D01*
X56598796Y-129474505D01*
X56595196Y-129498773D01*
X56589235Y-129522572D01*
X56580970Y-129545671D01*
X56570480Y-129567850D01*
X56557868Y-129588893D01*
X56543253Y-129608599D01*
X56526777Y-129626777D01*
X56508599Y-129643253D01*
X56488893Y-129657868D01*
X56467850Y-129670480D01*
X56445671Y-129680970D01*
X56422572Y-129689235D01*
X56398773Y-129695196D01*
X56374505Y-129698796D01*
X56350001Y-129700000D01*
X55699999Y-129700000D01*
X55675495Y-129698796D01*
X55651227Y-129695196D01*
X55627428Y-129689235D01*
X55604329Y-129680970D01*
X55582150Y-129670480D01*
X55561107Y-129657868D01*
X55541401Y-129643253D01*
X55523223Y-129626777D01*
X55506747Y-129608599D01*
X55492132Y-129588893D01*
X55479520Y-129567850D01*
X55469030Y-129545671D01*
X55460765Y-129522572D01*
X55454804Y-129498773D01*
X55451204Y-129474505D01*
X55450000Y-129450001D01*
X55450000Y-128549999D01*
X55451204Y-128525495D01*
X55454804Y-128501227D01*
X55460765Y-128477428D01*
X55469030Y-128454329D01*
X55479520Y-128432150D01*
X55492132Y-128411107D01*
X55506747Y-128391401D01*
X55523223Y-128373223D01*
X55541401Y-128356747D01*
X55561107Y-128342132D01*
X55582150Y-128329520D01*
X55604329Y-128319030D01*
X55627428Y-128310765D01*
X55651227Y-128304804D01*
X55675495Y-128301204D01*
X55699999Y-128300000D01*
X56350001Y-128300000D01*
X56374505Y-128301204D01*
G37*
G36*
X53324505Y-141301204D02*
G01*
X53348773Y-141304804D01*
X53372572Y-141310765D01*
X53395671Y-141319030D01*
X53417850Y-141329520D01*
X53438893Y-141342132D01*
X53458599Y-141356747D01*
X53476777Y-141373223D01*
X53493253Y-141391401D01*
X53507868Y-141411107D01*
X53520480Y-141432150D01*
X53530970Y-141454329D01*
X53539235Y-141477428D01*
X53545196Y-141501227D01*
X53548796Y-141525495D01*
X53550000Y-141549999D01*
X53550000Y-142450001D01*
X53548796Y-142474505D01*
X53545196Y-142498773D01*
X53539235Y-142522572D01*
X53530970Y-142545671D01*
X53520480Y-142567850D01*
X53507868Y-142588893D01*
X53493253Y-142608599D01*
X53476777Y-142626777D01*
X53458599Y-142643253D01*
X53438893Y-142657868D01*
X53417850Y-142670480D01*
X53395671Y-142680970D01*
X53372572Y-142689235D01*
X53348773Y-142695196D01*
X53324505Y-142698796D01*
X53300001Y-142700000D01*
X52649999Y-142700000D01*
X52625495Y-142698796D01*
X52601227Y-142695196D01*
X52577428Y-142689235D01*
X52554329Y-142680970D01*
X52532150Y-142670480D01*
X52511107Y-142657868D01*
X52491401Y-142643253D01*
X52473223Y-142626777D01*
X52456747Y-142608599D01*
X52442132Y-142588893D01*
X52429520Y-142567850D01*
X52419030Y-142545671D01*
X52410765Y-142522572D01*
X52404804Y-142498773D01*
X52401204Y-142474505D01*
X52400000Y-142450001D01*
X52400000Y-141549999D01*
X52401204Y-141525495D01*
X52404804Y-141501227D01*
X52410765Y-141477428D01*
X52419030Y-141454329D01*
X52429520Y-141432150D01*
X52442132Y-141411107D01*
X52456747Y-141391401D01*
X52473223Y-141373223D01*
X52491401Y-141356747D01*
X52511107Y-141342132D01*
X52532150Y-141329520D01*
X52554329Y-141319030D01*
X52577428Y-141310765D01*
X52601227Y-141304804D01*
X52625495Y-141301204D01*
X52649999Y-141300000D01*
X53300001Y-141300000D01*
X53324505Y-141301204D01*
G37*
G36*
X55374505Y-141301204D02*
G01*
X55398773Y-141304804D01*
X55422572Y-141310765D01*
X55445671Y-141319030D01*
X55467850Y-141329520D01*
X55488893Y-141342132D01*
X55508599Y-141356747D01*
X55526777Y-141373223D01*
X55543253Y-141391401D01*
X55557868Y-141411107D01*
X55570480Y-141432150D01*
X55580970Y-141454329D01*
X55589235Y-141477428D01*
X55595196Y-141501227D01*
X55598796Y-141525495D01*
X55600000Y-141549999D01*
X55600000Y-142450001D01*
X55598796Y-142474505D01*
X55595196Y-142498773D01*
X55589235Y-142522572D01*
X55580970Y-142545671D01*
X55570480Y-142567850D01*
X55557868Y-142588893D01*
X55543253Y-142608599D01*
X55526777Y-142626777D01*
X55508599Y-142643253D01*
X55488893Y-142657868D01*
X55467850Y-142670480D01*
X55445671Y-142680970D01*
X55422572Y-142689235D01*
X55398773Y-142695196D01*
X55374505Y-142698796D01*
X55350001Y-142700000D01*
X54699999Y-142700000D01*
X54675495Y-142698796D01*
X54651227Y-142695196D01*
X54627428Y-142689235D01*
X54604329Y-142680970D01*
X54582150Y-142670480D01*
X54561107Y-142657868D01*
X54541401Y-142643253D01*
X54523223Y-142626777D01*
X54506747Y-142608599D01*
X54492132Y-142588893D01*
X54479520Y-142567850D01*
X54469030Y-142545671D01*
X54460765Y-142522572D01*
X54454804Y-142498773D01*
X54451204Y-142474505D01*
X54450000Y-142450001D01*
X54450000Y-141549999D01*
X54451204Y-141525495D01*
X54454804Y-141501227D01*
X54460765Y-141477428D01*
X54469030Y-141454329D01*
X54479520Y-141432150D01*
X54492132Y-141411107D01*
X54506747Y-141391401D01*
X54523223Y-141373223D01*
X54541401Y-141356747D01*
X54561107Y-141342132D01*
X54582150Y-141329520D01*
X54604329Y-141319030D01*
X54627428Y-141310765D01*
X54651227Y-141304804D01*
X54675495Y-141301204D01*
X54699999Y-141300000D01*
X55350001Y-141300000D01*
X55374505Y-141301204D01*
G37*
G36*
X54324505Y-126301204D02*
G01*
X54348773Y-126304804D01*
X54372572Y-126310765D01*
X54395671Y-126319030D01*
X54417850Y-126329520D01*
X54438893Y-126342132D01*
X54458599Y-126356747D01*
X54476777Y-126373223D01*
X54493253Y-126391401D01*
X54507868Y-126411107D01*
X54520480Y-126432150D01*
X54530970Y-126454329D01*
X54539235Y-126477428D01*
X54545196Y-126501227D01*
X54548796Y-126525495D01*
X54550000Y-126549999D01*
X54550000Y-127450001D01*
X54548796Y-127474505D01*
X54545196Y-127498773D01*
X54539235Y-127522572D01*
X54530970Y-127545671D01*
X54520480Y-127567850D01*
X54507868Y-127588893D01*
X54493253Y-127608599D01*
X54476777Y-127626777D01*
X54458599Y-127643253D01*
X54438893Y-127657868D01*
X54417850Y-127670480D01*
X54395671Y-127680970D01*
X54372572Y-127689235D01*
X54348773Y-127695196D01*
X54324505Y-127698796D01*
X54300001Y-127700000D01*
X53649999Y-127700000D01*
X53625495Y-127698796D01*
X53601227Y-127695196D01*
X53577428Y-127689235D01*
X53554329Y-127680970D01*
X53532150Y-127670480D01*
X53511107Y-127657868D01*
X53491401Y-127643253D01*
X53473223Y-127626777D01*
X53456747Y-127608599D01*
X53442132Y-127588893D01*
X53429520Y-127567850D01*
X53419030Y-127545671D01*
X53410765Y-127522572D01*
X53404804Y-127498773D01*
X53401204Y-127474505D01*
X53400000Y-127450001D01*
X53400000Y-126549999D01*
X53401204Y-126525495D01*
X53404804Y-126501227D01*
X53410765Y-126477428D01*
X53419030Y-126454329D01*
X53429520Y-126432150D01*
X53442132Y-126411107D01*
X53456747Y-126391401D01*
X53473223Y-126373223D01*
X53491401Y-126356747D01*
X53511107Y-126342132D01*
X53532150Y-126329520D01*
X53554329Y-126319030D01*
X53577428Y-126310765D01*
X53601227Y-126304804D01*
X53625495Y-126301204D01*
X53649999Y-126300000D01*
X54300001Y-126300000D01*
X54324505Y-126301204D01*
G37*
G36*
X56374505Y-126301204D02*
G01*
X56398773Y-126304804D01*
X56422572Y-126310765D01*
X56445671Y-126319030D01*
X56467850Y-126329520D01*
X56488893Y-126342132D01*
X56508599Y-126356747D01*
X56526777Y-126373223D01*
X56543253Y-126391401D01*
X56557868Y-126411107D01*
X56570480Y-126432150D01*
X56580970Y-126454329D01*
X56589235Y-126477428D01*
X56595196Y-126501227D01*
X56598796Y-126525495D01*
X56600000Y-126549999D01*
X56600000Y-127450001D01*
X56598796Y-127474505D01*
X56595196Y-127498773D01*
X56589235Y-127522572D01*
X56580970Y-127545671D01*
X56570480Y-127567850D01*
X56557868Y-127588893D01*
X56543253Y-127608599D01*
X56526777Y-127626777D01*
X56508599Y-127643253D01*
X56488893Y-127657868D01*
X56467850Y-127670480D01*
X56445671Y-127680970D01*
X56422572Y-127689235D01*
X56398773Y-127695196D01*
X56374505Y-127698796D01*
X56350001Y-127700000D01*
X55699999Y-127700000D01*
X55675495Y-127698796D01*
X55651227Y-127695196D01*
X55627428Y-127689235D01*
X55604329Y-127680970D01*
X55582150Y-127670480D01*
X55561107Y-127657868D01*
X55541401Y-127643253D01*
X55523223Y-127626777D01*
X55506747Y-127608599D01*
X55492132Y-127588893D01*
X55479520Y-127567850D01*
X55469030Y-127545671D01*
X55460765Y-127522572D01*
X55454804Y-127498773D01*
X55451204Y-127474505D01*
X55450000Y-127450001D01*
X55450000Y-126549999D01*
X55451204Y-126525495D01*
X55454804Y-126501227D01*
X55460765Y-126477428D01*
X55469030Y-126454329D01*
X55479520Y-126432150D01*
X55492132Y-126411107D01*
X55506747Y-126391401D01*
X55523223Y-126373223D01*
X55541401Y-126356747D01*
X55561107Y-126342132D01*
X55582150Y-126329520D01*
X55604329Y-126319030D01*
X55627428Y-126310765D01*
X55651227Y-126304804D01*
X55675495Y-126301204D01*
X55699999Y-126300000D01*
X56350001Y-126300000D01*
X56374505Y-126301204D01*
G37*
G36*
X48474505Y-132401204D02*
G01*
X48498773Y-132404804D01*
X48522572Y-132410765D01*
X48545671Y-132419030D01*
X48567850Y-132429520D01*
X48588893Y-132442132D01*
X48608599Y-132456747D01*
X48626777Y-132473223D01*
X48643253Y-132491401D01*
X48657868Y-132511107D01*
X48670480Y-132532150D01*
X48680970Y-132554329D01*
X48689235Y-132577428D01*
X48695196Y-132601227D01*
X48698796Y-132625495D01*
X48700000Y-132649999D01*
X48700000Y-133300001D01*
X48698796Y-133324505D01*
X48695196Y-133348773D01*
X48689235Y-133372572D01*
X48680970Y-133395671D01*
X48670480Y-133417850D01*
X48657868Y-133438893D01*
X48643253Y-133458599D01*
X48626777Y-133476777D01*
X48608599Y-133493253D01*
X48588893Y-133507868D01*
X48567850Y-133520480D01*
X48545671Y-133530970D01*
X48522572Y-133539235D01*
X48498773Y-133545196D01*
X48474505Y-133548796D01*
X48450001Y-133550000D01*
X47549999Y-133550000D01*
X47525495Y-133548796D01*
X47501227Y-133545196D01*
X47477428Y-133539235D01*
X47454329Y-133530970D01*
X47432150Y-133520480D01*
X47411107Y-133507868D01*
X47391401Y-133493253D01*
X47373223Y-133476777D01*
X47356747Y-133458599D01*
X47342132Y-133438893D01*
X47329520Y-133417850D01*
X47319030Y-133395671D01*
X47310765Y-133372572D01*
X47304804Y-133348773D01*
X47301204Y-133324505D01*
X47300000Y-133300001D01*
X47300000Y-132649999D01*
X47301204Y-132625495D01*
X47304804Y-132601227D01*
X47310765Y-132577428D01*
X47319030Y-132554329D01*
X47329520Y-132532150D01*
X47342132Y-132511107D01*
X47356747Y-132491401D01*
X47373223Y-132473223D01*
X47391401Y-132456747D01*
X47411107Y-132442132D01*
X47432150Y-132429520D01*
X47454329Y-132419030D01*
X47477428Y-132410765D01*
X47501227Y-132404804D01*
X47525495Y-132401204D01*
X47549999Y-132400000D01*
X48450001Y-132400000D01*
X48474505Y-132401204D01*
G37*
G36*
X48474505Y-134451204D02*
G01*
X48498773Y-134454804D01*
X48522572Y-134460765D01*
X48545671Y-134469030D01*
X48567850Y-134479520D01*
X48588893Y-134492132D01*
X48608599Y-134506747D01*
X48626777Y-134523223D01*
X48643253Y-134541401D01*
X48657868Y-134561107D01*
X48670480Y-134582150D01*
X48680970Y-134604329D01*
X48689235Y-134627428D01*
X48695196Y-134651227D01*
X48698796Y-134675495D01*
X48700000Y-134699999D01*
X48700000Y-135350001D01*
X48698796Y-135374505D01*
X48695196Y-135398773D01*
X48689235Y-135422572D01*
X48680970Y-135445671D01*
X48670480Y-135467850D01*
X48657868Y-135488893D01*
X48643253Y-135508599D01*
X48626777Y-135526777D01*
X48608599Y-135543253D01*
X48588893Y-135557868D01*
X48567850Y-135570480D01*
X48545671Y-135580970D01*
X48522572Y-135589235D01*
X48498773Y-135595196D01*
X48474505Y-135598796D01*
X48450001Y-135600000D01*
X47549999Y-135600000D01*
X47525495Y-135598796D01*
X47501227Y-135595196D01*
X47477428Y-135589235D01*
X47454329Y-135580970D01*
X47432150Y-135570480D01*
X47411107Y-135557868D01*
X47391401Y-135543253D01*
X47373223Y-135526777D01*
X47356747Y-135508599D01*
X47342132Y-135488893D01*
X47329520Y-135467850D01*
X47319030Y-135445671D01*
X47310765Y-135422572D01*
X47304804Y-135398773D01*
X47301204Y-135374505D01*
X47300000Y-135350001D01*
X47300000Y-134699999D01*
X47301204Y-134675495D01*
X47304804Y-134651227D01*
X47310765Y-134627428D01*
X47319030Y-134604329D01*
X47329520Y-134582150D01*
X47342132Y-134561107D01*
X47356747Y-134541401D01*
X47373223Y-134523223D01*
X47391401Y-134506747D01*
X47411107Y-134492132D01*
X47432150Y-134479520D01*
X47454329Y-134469030D01*
X47477428Y-134460765D01*
X47501227Y-134454804D01*
X47525495Y-134451204D01*
X47549999Y-134450000D01*
X48450001Y-134450000D01*
X48474505Y-134451204D01*
G37*
G36*
X46474505Y-150401204D02*
G01*
X46498773Y-150404804D01*
X46522572Y-150410765D01*
X46545671Y-150419030D01*
X46567850Y-150429520D01*
X46588893Y-150442132D01*
X46608599Y-150456747D01*
X46626777Y-150473223D01*
X46643253Y-150491401D01*
X46657868Y-150511107D01*
X46670480Y-150532150D01*
X46680970Y-150554329D01*
X46689235Y-150577428D01*
X46695196Y-150601227D01*
X46698796Y-150625495D01*
X46700000Y-150649999D01*
X46700000Y-151300001D01*
X46698796Y-151324505D01*
X46695196Y-151348773D01*
X46689235Y-151372572D01*
X46680970Y-151395671D01*
X46670480Y-151417850D01*
X46657868Y-151438893D01*
X46643253Y-151458599D01*
X46626777Y-151476777D01*
X46608599Y-151493253D01*
X46588893Y-151507868D01*
X46567850Y-151520480D01*
X46545671Y-151530970D01*
X46522572Y-151539235D01*
X46498773Y-151545196D01*
X46474505Y-151548796D01*
X46450001Y-151550000D01*
X45549999Y-151550000D01*
X45525495Y-151548796D01*
X45501227Y-151545196D01*
X45477428Y-151539235D01*
X45454329Y-151530970D01*
X45432150Y-151520480D01*
X45411107Y-151507868D01*
X45391401Y-151493253D01*
X45373223Y-151476777D01*
X45356747Y-151458599D01*
X45342132Y-151438893D01*
X45329520Y-151417850D01*
X45319030Y-151395671D01*
X45310765Y-151372572D01*
X45304804Y-151348773D01*
X45301204Y-151324505D01*
X45300000Y-151300001D01*
X45300000Y-150649999D01*
X45301204Y-150625495D01*
X45304804Y-150601227D01*
X45310765Y-150577428D01*
X45319030Y-150554329D01*
X45329520Y-150532150D01*
X45342132Y-150511107D01*
X45356747Y-150491401D01*
X45373223Y-150473223D01*
X45391401Y-150456747D01*
X45411107Y-150442132D01*
X45432150Y-150429520D01*
X45454329Y-150419030D01*
X45477428Y-150410765D01*
X45501227Y-150404804D01*
X45525495Y-150401204D01*
X45549999Y-150400000D01*
X46450001Y-150400000D01*
X46474505Y-150401204D01*
G37*
G36*
X46474505Y-152451204D02*
G01*
X46498773Y-152454804D01*
X46522572Y-152460765D01*
X46545671Y-152469030D01*
X46567850Y-152479520D01*
X46588893Y-152492132D01*
X46608599Y-152506747D01*
X46626777Y-152523223D01*
X46643253Y-152541401D01*
X46657868Y-152561107D01*
X46670480Y-152582150D01*
X46680970Y-152604329D01*
X46689235Y-152627428D01*
X46695196Y-152651227D01*
X46698796Y-152675495D01*
X46700000Y-152699999D01*
X46700000Y-153350001D01*
X46698796Y-153374505D01*
X46695196Y-153398773D01*
X46689235Y-153422572D01*
X46680970Y-153445671D01*
X46670480Y-153467850D01*
X46657868Y-153488893D01*
X46643253Y-153508599D01*
X46626777Y-153526777D01*
X46608599Y-153543253D01*
X46588893Y-153557868D01*
X46567850Y-153570480D01*
X46545671Y-153580970D01*
X46522572Y-153589235D01*
X46498773Y-153595196D01*
X46474505Y-153598796D01*
X46450001Y-153600000D01*
X45549999Y-153600000D01*
X45525495Y-153598796D01*
X45501227Y-153595196D01*
X45477428Y-153589235D01*
X45454329Y-153580970D01*
X45432150Y-153570480D01*
X45411107Y-153557868D01*
X45391401Y-153543253D01*
X45373223Y-153526777D01*
X45356747Y-153508599D01*
X45342132Y-153488893D01*
X45329520Y-153467850D01*
X45319030Y-153445671D01*
X45310765Y-153422572D01*
X45304804Y-153398773D01*
X45301204Y-153374505D01*
X45300000Y-153350001D01*
X45300000Y-152699999D01*
X45301204Y-152675495D01*
X45304804Y-152651227D01*
X45310765Y-152627428D01*
X45319030Y-152604329D01*
X45329520Y-152582150D01*
X45342132Y-152561107D01*
X45356747Y-152541401D01*
X45373223Y-152523223D01*
X45391401Y-152506747D01*
X45411107Y-152492132D01*
X45432150Y-152479520D01*
X45454329Y-152469030D01*
X45477428Y-152460765D01*
X45501227Y-152454804D01*
X45525495Y-152451204D01*
X45549999Y-152450000D01*
X46450001Y-152450000D01*
X46474505Y-152451204D01*
G37*
G36*
X35499505Y-141326204D02*
G01*
X35523773Y-141329804D01*
X35547572Y-141335765D01*
X35570671Y-141344030D01*
X35592850Y-141354520D01*
X35613893Y-141367132D01*
X35633599Y-141381747D01*
X35651777Y-141398223D01*
X35668253Y-141416401D01*
X35682868Y-141436107D01*
X35695480Y-141457150D01*
X35705970Y-141479329D01*
X35714235Y-141502428D01*
X35720196Y-141526227D01*
X35723796Y-141550495D01*
X35725000Y-141574999D01*
X35725000Y-142425001D01*
X35723796Y-142449505D01*
X35720196Y-142473773D01*
X35714235Y-142497572D01*
X35705970Y-142520671D01*
X35695480Y-142542850D01*
X35682868Y-142563893D01*
X35668253Y-142583599D01*
X35651777Y-142601777D01*
X35633599Y-142618253D01*
X35613893Y-142632868D01*
X35592850Y-142645480D01*
X35570671Y-142655970D01*
X35547572Y-142664235D01*
X35523773Y-142670196D01*
X35499505Y-142673796D01*
X35475001Y-142675000D01*
X34399999Y-142675000D01*
X34375495Y-142673796D01*
X34351227Y-142670196D01*
X34327428Y-142664235D01*
X34304329Y-142655970D01*
X34282150Y-142645480D01*
X34261107Y-142632868D01*
X34241401Y-142618253D01*
X34223223Y-142601777D01*
X34206747Y-142583599D01*
X34192132Y-142563893D01*
X34179520Y-142542850D01*
X34169030Y-142520671D01*
X34160765Y-142497572D01*
X34154804Y-142473773D01*
X34151204Y-142449505D01*
X34150000Y-142425001D01*
X34150000Y-141574999D01*
X34151204Y-141550495D01*
X34154804Y-141526227D01*
X34160765Y-141502428D01*
X34169030Y-141479329D01*
X34179520Y-141457150D01*
X34192132Y-141436107D01*
X34206747Y-141416401D01*
X34223223Y-141398223D01*
X34241401Y-141381747D01*
X34261107Y-141367132D01*
X34282150Y-141354520D01*
X34304329Y-141344030D01*
X34327428Y-141335765D01*
X34351227Y-141329804D01*
X34375495Y-141326204D01*
X34399999Y-141325000D01*
X35475001Y-141325000D01*
X35499505Y-141326204D01*
G37*
G36*
X32624505Y-141326204D02*
G01*
X32648773Y-141329804D01*
X32672572Y-141335765D01*
X32695671Y-141344030D01*
X32717850Y-141354520D01*
X32738893Y-141367132D01*
X32758599Y-141381747D01*
X32776777Y-141398223D01*
X32793253Y-141416401D01*
X32807868Y-141436107D01*
X32820480Y-141457150D01*
X32830970Y-141479329D01*
X32839235Y-141502428D01*
X32845196Y-141526227D01*
X32848796Y-141550495D01*
X32850000Y-141574999D01*
X32850000Y-142425001D01*
X32848796Y-142449505D01*
X32845196Y-142473773D01*
X32839235Y-142497572D01*
X32830970Y-142520671D01*
X32820480Y-142542850D01*
X32807868Y-142563893D01*
X32793253Y-142583599D01*
X32776777Y-142601777D01*
X32758599Y-142618253D01*
X32738893Y-142632868D01*
X32717850Y-142645480D01*
X32695671Y-142655970D01*
X32672572Y-142664235D01*
X32648773Y-142670196D01*
X32624505Y-142673796D01*
X32600001Y-142675000D01*
X31524999Y-142675000D01*
X31500495Y-142673796D01*
X31476227Y-142670196D01*
X31452428Y-142664235D01*
X31429329Y-142655970D01*
X31407150Y-142645480D01*
X31386107Y-142632868D01*
X31366401Y-142618253D01*
X31348223Y-142601777D01*
X31331747Y-142583599D01*
X31317132Y-142563893D01*
X31304520Y-142542850D01*
X31294030Y-142520671D01*
X31285765Y-142497572D01*
X31279804Y-142473773D01*
X31276204Y-142449505D01*
X31275000Y-142425001D01*
X31275000Y-141574999D01*
X31276204Y-141550495D01*
X31279804Y-141526227D01*
X31285765Y-141502428D01*
X31294030Y-141479329D01*
X31304520Y-141457150D01*
X31317132Y-141436107D01*
X31331747Y-141416401D01*
X31348223Y-141398223D01*
X31366401Y-141381747D01*
X31386107Y-141367132D01*
X31407150Y-141354520D01*
X31429329Y-141344030D01*
X31452428Y-141335765D01*
X31476227Y-141329804D01*
X31500495Y-141326204D01*
X31524999Y-141325000D01*
X32600001Y-141325000D01*
X32624505Y-141326204D01*
G37*
G36*
X34874505Y-138801204D02*
G01*
X34898773Y-138804804D01*
X34922572Y-138810765D01*
X34945671Y-138819030D01*
X34967850Y-138829520D01*
X34988893Y-138842132D01*
X35008599Y-138856747D01*
X35026777Y-138873223D01*
X35043253Y-138891401D01*
X35057868Y-138911107D01*
X35070480Y-138932150D01*
X35080970Y-138954329D01*
X35089235Y-138977428D01*
X35095196Y-139001227D01*
X35098796Y-139025495D01*
X35100000Y-139049999D01*
X35100000Y-139950001D01*
X35098796Y-139974505D01*
X35095196Y-139998773D01*
X35089235Y-140022572D01*
X35080970Y-140045671D01*
X35070480Y-140067850D01*
X35057868Y-140088893D01*
X35043253Y-140108599D01*
X35026777Y-140126777D01*
X35008599Y-140143253D01*
X34988893Y-140157868D01*
X34967850Y-140170480D01*
X34945671Y-140180970D01*
X34922572Y-140189235D01*
X34898773Y-140195196D01*
X34874505Y-140198796D01*
X34850001Y-140200000D01*
X34199999Y-140200000D01*
X34175495Y-140198796D01*
X34151227Y-140195196D01*
X34127428Y-140189235D01*
X34104329Y-140180970D01*
X34082150Y-140170480D01*
X34061107Y-140157868D01*
X34041401Y-140143253D01*
X34023223Y-140126777D01*
X34006747Y-140108599D01*
X33992132Y-140088893D01*
X33979520Y-140067850D01*
X33969030Y-140045671D01*
X33960765Y-140022572D01*
X33954804Y-139998773D01*
X33951204Y-139974505D01*
X33950000Y-139950001D01*
X33950000Y-139049999D01*
X33951204Y-139025495D01*
X33954804Y-139001227D01*
X33960765Y-138977428D01*
X33969030Y-138954329D01*
X33979520Y-138932150D01*
X33992132Y-138911107D01*
X34006747Y-138891401D01*
X34023223Y-138873223D01*
X34041401Y-138856747D01*
X34061107Y-138842132D01*
X34082150Y-138829520D01*
X34104329Y-138819030D01*
X34127428Y-138810765D01*
X34151227Y-138804804D01*
X34175495Y-138801204D01*
X34199999Y-138800000D01*
X34850001Y-138800000D01*
X34874505Y-138801204D01*
G37*
G36*
X32824505Y-138801204D02*
G01*
X32848773Y-138804804D01*
X32872572Y-138810765D01*
X32895671Y-138819030D01*
X32917850Y-138829520D01*
X32938893Y-138842132D01*
X32958599Y-138856747D01*
X32976777Y-138873223D01*
X32993253Y-138891401D01*
X33007868Y-138911107D01*
X33020480Y-138932150D01*
X33030970Y-138954329D01*
X33039235Y-138977428D01*
X33045196Y-139001227D01*
X33048796Y-139025495D01*
X33050000Y-139049999D01*
X33050000Y-139950001D01*
X33048796Y-139974505D01*
X33045196Y-139998773D01*
X33039235Y-140022572D01*
X33030970Y-140045671D01*
X33020480Y-140067850D01*
X33007868Y-140088893D01*
X32993253Y-140108599D01*
X32976777Y-140126777D01*
X32958599Y-140143253D01*
X32938893Y-140157868D01*
X32917850Y-140170480D01*
X32895671Y-140180970D01*
X32872572Y-140189235D01*
X32848773Y-140195196D01*
X32824505Y-140198796D01*
X32800001Y-140200000D01*
X32149999Y-140200000D01*
X32125495Y-140198796D01*
X32101227Y-140195196D01*
X32077428Y-140189235D01*
X32054329Y-140180970D01*
X32032150Y-140170480D01*
X32011107Y-140157868D01*
X31991401Y-140143253D01*
X31973223Y-140126777D01*
X31956747Y-140108599D01*
X31942132Y-140088893D01*
X31929520Y-140067850D01*
X31919030Y-140045671D01*
X31910765Y-140022572D01*
X31904804Y-139998773D01*
X31901204Y-139974505D01*
X31900000Y-139950001D01*
X31900000Y-139049999D01*
X31901204Y-139025495D01*
X31904804Y-139001227D01*
X31910765Y-138977428D01*
X31919030Y-138954329D01*
X31929520Y-138932150D01*
X31942132Y-138911107D01*
X31956747Y-138891401D01*
X31973223Y-138873223D01*
X31991401Y-138856747D01*
X32011107Y-138842132D01*
X32032150Y-138829520D01*
X32054329Y-138819030D01*
X32077428Y-138810765D01*
X32101227Y-138804804D01*
X32125495Y-138801204D01*
X32149999Y-138800000D01*
X32800001Y-138800000D01*
X32824505Y-138801204D01*
G37*
G36*
X34874505Y-128801204D02*
G01*
X34898773Y-128804804D01*
X34922572Y-128810765D01*
X34945671Y-128819030D01*
X34967850Y-128829520D01*
X34988893Y-128842132D01*
X35008599Y-128856747D01*
X35026777Y-128873223D01*
X35043253Y-128891401D01*
X35057868Y-128911107D01*
X35070480Y-128932150D01*
X35080970Y-128954329D01*
X35089235Y-128977428D01*
X35095196Y-129001227D01*
X35098796Y-129025495D01*
X35100000Y-129049999D01*
X35100000Y-129950001D01*
X35098796Y-129974505D01*
X35095196Y-129998773D01*
X35089235Y-130022572D01*
X35080970Y-130045671D01*
X35070480Y-130067850D01*
X35057868Y-130088893D01*
X35043253Y-130108599D01*
X35026777Y-130126777D01*
X35008599Y-130143253D01*
X34988893Y-130157868D01*
X34967850Y-130170480D01*
X34945671Y-130180970D01*
X34922572Y-130189235D01*
X34898773Y-130195196D01*
X34874505Y-130198796D01*
X34850001Y-130200000D01*
X34199999Y-130200000D01*
X34175495Y-130198796D01*
X34151227Y-130195196D01*
X34127428Y-130189235D01*
X34104329Y-130180970D01*
X34082150Y-130170480D01*
X34061107Y-130157868D01*
X34041401Y-130143253D01*
X34023223Y-130126777D01*
X34006747Y-130108599D01*
X33992132Y-130088893D01*
X33979520Y-130067850D01*
X33969030Y-130045671D01*
X33960765Y-130022572D01*
X33954804Y-129998773D01*
X33951204Y-129974505D01*
X33950000Y-129950001D01*
X33950000Y-129049999D01*
X33951204Y-129025495D01*
X33954804Y-129001227D01*
X33960765Y-128977428D01*
X33969030Y-128954329D01*
X33979520Y-128932150D01*
X33992132Y-128911107D01*
X34006747Y-128891401D01*
X34023223Y-128873223D01*
X34041401Y-128856747D01*
X34061107Y-128842132D01*
X34082150Y-128829520D01*
X34104329Y-128819030D01*
X34127428Y-128810765D01*
X34151227Y-128804804D01*
X34175495Y-128801204D01*
X34199999Y-128800000D01*
X34850001Y-128800000D01*
X34874505Y-128801204D01*
G37*
G36*
X32824505Y-128801204D02*
G01*
X32848773Y-128804804D01*
X32872572Y-128810765D01*
X32895671Y-128819030D01*
X32917850Y-128829520D01*
X32938893Y-128842132D01*
X32958599Y-128856747D01*
X32976777Y-128873223D01*
X32993253Y-128891401D01*
X33007868Y-128911107D01*
X33020480Y-128932150D01*
X33030970Y-128954329D01*
X33039235Y-128977428D01*
X33045196Y-129001227D01*
X33048796Y-129025495D01*
X33050000Y-129049999D01*
X33050000Y-129950001D01*
X33048796Y-129974505D01*
X33045196Y-129998773D01*
X33039235Y-130022572D01*
X33030970Y-130045671D01*
X33020480Y-130067850D01*
X33007868Y-130088893D01*
X32993253Y-130108599D01*
X32976777Y-130126777D01*
X32958599Y-130143253D01*
X32938893Y-130157868D01*
X32917850Y-130170480D01*
X32895671Y-130180970D01*
X32872572Y-130189235D01*
X32848773Y-130195196D01*
X32824505Y-130198796D01*
X32800001Y-130200000D01*
X32149999Y-130200000D01*
X32125495Y-130198796D01*
X32101227Y-130195196D01*
X32077428Y-130189235D01*
X32054329Y-130180970D01*
X32032150Y-130170480D01*
X32011107Y-130157868D01*
X31991401Y-130143253D01*
X31973223Y-130126777D01*
X31956747Y-130108599D01*
X31942132Y-130088893D01*
X31929520Y-130067850D01*
X31919030Y-130045671D01*
X31910765Y-130022572D01*
X31904804Y-129998773D01*
X31901204Y-129974505D01*
X31900000Y-129950001D01*
X31900000Y-129049999D01*
X31901204Y-129025495D01*
X31904804Y-129001227D01*
X31910765Y-128977428D01*
X31919030Y-128954329D01*
X31929520Y-128932150D01*
X31942132Y-128911107D01*
X31956747Y-128891401D01*
X31973223Y-128873223D01*
X31991401Y-128856747D01*
X32011107Y-128842132D01*
X32032150Y-128829520D01*
X32054329Y-128819030D01*
X32077428Y-128810765D01*
X32101227Y-128804804D01*
X32125495Y-128801204D01*
X32149999Y-128800000D01*
X32800001Y-128800000D01*
X32824505Y-128801204D01*
G37*
G36*
X37449505Y-124826204D02*
G01*
X37473773Y-124829804D01*
X37497572Y-124835765D01*
X37520671Y-124844030D01*
X37542850Y-124854520D01*
X37563893Y-124867132D01*
X37583599Y-124881747D01*
X37601777Y-124898223D01*
X37618253Y-124916401D01*
X37632868Y-124936107D01*
X37645480Y-124957150D01*
X37655970Y-124979329D01*
X37664235Y-125002428D01*
X37670196Y-125026227D01*
X37673796Y-125050495D01*
X37675000Y-125074999D01*
X37675000Y-126925001D01*
X37673796Y-126949505D01*
X37670196Y-126973773D01*
X37664235Y-126997572D01*
X37655970Y-127020671D01*
X37645480Y-127042850D01*
X37632868Y-127063893D01*
X37618253Y-127083599D01*
X37601777Y-127101777D01*
X37583599Y-127118253D01*
X37563893Y-127132868D01*
X37542850Y-127145480D01*
X37520671Y-127155970D01*
X37497572Y-127164235D01*
X37473773Y-127170196D01*
X37449505Y-127173796D01*
X37425001Y-127175000D01*
X35674999Y-127175000D01*
X35650495Y-127173796D01*
X35626227Y-127170196D01*
X35602428Y-127164235D01*
X35579329Y-127155970D01*
X35557150Y-127145480D01*
X35536107Y-127132868D01*
X35516401Y-127118253D01*
X35498223Y-127101777D01*
X35481747Y-127083599D01*
X35467132Y-127063893D01*
X35454520Y-127042850D01*
X35444030Y-127020671D01*
X35435765Y-126997572D01*
X35429804Y-126973773D01*
X35426204Y-126949505D01*
X35425000Y-126925001D01*
X35425000Y-125074999D01*
X35426204Y-125050495D01*
X35429804Y-125026227D01*
X35435765Y-125002428D01*
X35444030Y-124979329D01*
X35454520Y-124957150D01*
X35467132Y-124936107D01*
X35481747Y-124916401D01*
X35498223Y-124898223D01*
X35516401Y-124881747D01*
X35536107Y-124867132D01*
X35557150Y-124854520D01*
X35579329Y-124844030D01*
X35602428Y-124835765D01*
X35626227Y-124829804D01*
X35650495Y-124826204D01*
X35674999Y-124825000D01*
X37425001Y-124825000D01*
X37449505Y-124826204D01*
G37*
G36*
X32349505Y-124826204D02*
G01*
X32373773Y-124829804D01*
X32397572Y-124835765D01*
X32420671Y-124844030D01*
X32442850Y-124854520D01*
X32463893Y-124867132D01*
X32483599Y-124881747D01*
X32501777Y-124898223D01*
X32518253Y-124916401D01*
X32532868Y-124936107D01*
X32545480Y-124957150D01*
X32555970Y-124979329D01*
X32564235Y-125002428D01*
X32570196Y-125026227D01*
X32573796Y-125050495D01*
X32575000Y-125074999D01*
X32575000Y-126925001D01*
X32573796Y-126949505D01*
X32570196Y-126973773D01*
X32564235Y-126997572D01*
X32555970Y-127020671D01*
X32545480Y-127042850D01*
X32532868Y-127063893D01*
X32518253Y-127083599D01*
X32501777Y-127101777D01*
X32483599Y-127118253D01*
X32463893Y-127132868D01*
X32442850Y-127145480D01*
X32420671Y-127155970D01*
X32397572Y-127164235D01*
X32373773Y-127170196D01*
X32349505Y-127173796D01*
X32325001Y-127175000D01*
X30574999Y-127175000D01*
X30550495Y-127173796D01*
X30526227Y-127170196D01*
X30502428Y-127164235D01*
X30479329Y-127155970D01*
X30457150Y-127145480D01*
X30436107Y-127132868D01*
X30416401Y-127118253D01*
X30398223Y-127101777D01*
X30381747Y-127083599D01*
X30367132Y-127063893D01*
X30354520Y-127042850D01*
X30344030Y-127020671D01*
X30335765Y-126997572D01*
X30329804Y-126973773D01*
X30326204Y-126949505D01*
X30325000Y-126925001D01*
X30325000Y-125074999D01*
X30326204Y-125050495D01*
X30329804Y-125026227D01*
X30335765Y-125002428D01*
X30344030Y-124979329D01*
X30354520Y-124957150D01*
X30367132Y-124936107D01*
X30381747Y-124916401D01*
X30398223Y-124898223D01*
X30416401Y-124881747D01*
X30436107Y-124867132D01*
X30457150Y-124854520D01*
X30479329Y-124844030D01*
X30502428Y-124835765D01*
X30526227Y-124829804D01*
X30550495Y-124826204D01*
X30574999Y-124825000D01*
X32325001Y-124825000D01*
X32349505Y-124826204D01*
G37*
M02*
